<?xml version="1.0" standalone="no"?>
<!DOCTYPE svg PUBLIC "-//W3C//DTD SVG 1.1//EN" "http://www.w3.org/Graphics/SVG/1.1/DTD/svg11.dtd" >
<svg xmlns="http://www.w3.org/2000/svg">
<metadata>
Created by FontPrep 20130207 at Fri Feb  5 14:50:18 2016
 By Wilfred Denton
Created by Fabian De Smet
</metadata>
<defs>
<font id="6d8c8a4ff1a72fd63a6889a7a4f212af" horiz-adv-x='1024' >
  <font-face 
    font-family="Butler-Bold"
    font-weight="700"
    font-stretch="normal"
    units-per-em="2048"
    panose-1="2 7 8 3 8 7 6 2 3 3"
    ascent="1505"
    descent="-543"
    x-height="946"
    cap-height="1442"
    bbox="-299 -653 2267 2019.02"
    underline-thickness="102"
    underline-position="-102"
    unicode-range="U+0020-FB02"
  />
<missing-glyph horiz-adv-x="1038" 
d="M580 721l356 -547v1096zM518 629l-342 -527h684zM176 1339l342 -524l342 524h-684zM457 721l-357 549v-1096zM-2 1442h1040v-1442h-1040v1442z" />
    <glyph glyph-name="f_i" unicode="fi" horiz-adv-x="1210" 
d="M1049 231q0 -98 16 -150t68 -65v-16h-420v16q53 14 66 66t14 149v512q0 63 -26 115t-77 53h-264v-680q0 -96 17 -148t67 -67v-16h-420v16q54 16 68 68t14 147v680h-131l-4 35h135v47q0 285 134 409t413 124q104 0 185 -41t108 -88q49 -90 10 -170q-27 -55 -85 -75t-114 7
q-55 29 -74 86t7 113q29 55 86 72q31 8 -6 34q-38 26 -92 27q-54 0 -78 -3t-73 -27q-48 -25 -81 -67q-34 -42 -60 -132t-26 -215v-101h623v-715z" />
    <glyph glyph-name="f_l" unicode="fl" horiz-adv-x="1173" 
d="M1065 231q0 -94 16 -139t68 -57v-35h-420v35q53 14 67 58q13 44 13 138v1063q0 100 -72 131q-127 47 -194 2q-35 -23 -67 -65q-68 -88 -68 -334v-82h219l-6 -35h-213v-680q0 -94 16 -138t68 -58v-35h-422v35q53 16 67 60t15 136v680h-132l-4 35h136v164q0 198 103 308
t255 108q121 0 227 -66l328 68v-1297z" />
    <glyph glyph-name=".notdef" horiz-adv-x="1038" 
d="M580 721l356 -547v1096zM518 629l-342 -527h684zM176 1339l342 -524l342 524h-684zM457 721l-357 549v-1096zM-2 1442h1040v-1442h-1040v1442z" />
    <glyph glyph-name=".null" horiz-adv-x="0" 
 />
    <glyph glyph-name="nonmarkingreturn" horiz-adv-x="681" 
 />
    <glyph glyph-name="space" unicode=" " horiz-adv-x="542" 
 />
    <glyph glyph-name="exclam" unicode="!" horiz-adv-x="684" 
d="M496 137q0 -63 -45 -109t-109 -46t-111 46q-45 46 -45 109t45 109t110 47q65 -1 110 -47t45 -109zM408 459h-134l-65 1067h270z" />
    <glyph glyph-name="quotedbl" unicode="&#x22;" horiz-adv-x="1089" 
d="M702 772l-71 670h270l-70 -670h-129zM279 772l-72 670h268l-67 -670h-129z" />
    <glyph glyph-name="numbersign" unicode="#" horiz-adv-x="1462" 
d="M909 948h-278l-70 -305h277zM1366 948h-270l-72 -305h213v-182h-254l-106 -461h-187l107 461h-279l-106 -461h-187l107 461h-242v182h285l69 305h-223v180h264l95 400h186l-92 -400h276l94 400h187l-94 -400h229v-180z" />
    <glyph glyph-name="dollar" unicode="$" horiz-adv-x="1216" 
d="M606 -18v-250h-35v250q-151 8 -269 40t-163 60l-45 27v393h17q154 -428 460 -484v553l-194 123q-469 295 -230 611q13 20 70 65t160 68q104 22 194 22v250h35v-250q145 -2 268 -26t175 -50l49 -22v-344h-17q-56 163 -188 287q-49 45 -125 79t-162 41v-491l246 -162
q280 -184 298 -401q9 -111 -69 -221q-70 -86 -172 -127t-303 -41zM571 1425q-82 0 -135 -45q-116 -99 -36 -257q42 -81 137 -142l34 -25v469zM606 16q115 0 178 54q121 103 28 285q-42 83 -120 141l-86 53v-533z" />
    <glyph glyph-name="percent" unicode="%" horiz-adv-x="2070" 
d="M1518 86q68 0 85 56t17 268t-18 276t-85 64t-85 -62t-18 -274t18 -270t86 -58zM1233 412q0 372 284 372t283 -372q0 -170 -63 -266t-220 -95q-157 0 -221 95q-63 95 -63 266zM573 692q68 0 85 56q18 56 18 269q0 212 -18 275q-18 64 -86 64q-67 0 -85 -62t-18 -274
t18 -270t86 -58zM572 1391q284 0 284 -373q0 -170 -63 -265t-221 -95t-220 94q-63 96 -63 266q-1 373 283 373zM512 0l934 1442h133l-934 -1442h-133z" />
    <glyph glyph-name="ampersand" unicode="&#x26;" horiz-adv-x="1708" 
d="M768 915q123 85 165 185t22 173q-19 73 -66 130q-43 45 -97 61t-104 0q-76 -27 -104 -121t37 -206zM473 692q-57 -42 -85 -112t-12 -162t76 -168q58 -76 140 -100q82 -25 167 7t130 122l-326 473zM1602 268q0 -128 -77 -200t-188 -84q-10 0 -25 -1t-83 2t-125 34t-80 65
l-109 160q-33 -88 -121 -156t-190 -96q-104 -28 -216 8q-112 35 -181 139q-211 315 244 588l92 55l-117 174q-86 133 -80 251t84 203t193 106q197 35 299 -86q67 -80 75 -220q4 -74 -48 -160t-158 -167l239 -361q88 170 227 203q93 20 143 -20t54 -95t-32 -97t-91 -47
t-97 31t-46 89q0 33 -52 8t-87 -98l159 -236q27 -42 71 -64t75 -24l30 -2q152 0 181 98h37z" />
    <glyph glyph-name="quotesingle" unicode="'" 
d="M223 770l-69 672h268l-70 -672h-129z" />
    <glyph glyph-name="parenleft" unicode="(" horiz-adv-x="681" 
d="M525 -191q58 -120 151 -204l-29 -27q-285 163 -394 419q-85 200 -90 415q-1 40 -1 108t2 166q4 154 89 368q64 160 218 319q80 83 180 153l29 -27q-76 -90 -130 -206t-80 -211q-56 -205 -56 -624t111 -649z" />
    <glyph glyph-name="parenright" unicode=")" horiz-adv-x="681" 
d="M514 522q0 -68 -2 -167q-4 -156 -80 -334q-118 -278 -403 -441l-29 27q187 171 230 469q32 211 32 373q0 163 -2 225t-15 189q-13 126 -39 221t-80 211t-130 206l29 27q184 -129 311 -308q169 -241 177 -589q1 -41 1 -109z" />
    <glyph glyph-name="asterisk" unicode="*" horiz-adv-x="1138" 
d="M997 1051l-368 -50l270 -256l-174 -127l-160 338l-162 -338l-172 127l271 256l-371 50l68 202l325 -178l-67 367h215l-68 -367l328 178z" />
    <glyph glyph-name="plus" unicode="+" horiz-adv-x="1464" 
d="M1346 729v-190h-521v-539h-190v539h-520v190h520v539h190v-539h521z" />
    <glyph glyph-name="comma" unicode="," horiz-adv-x="557" 
d="M297 -54q0 32 -12 40q-74 8 -120 52t-46 115t49 121t120 50t119 -48t49 -124q2 -131 -87 -261q-66 -104 -172 -161l-23 28q53 40 88 98t35 90z" />
    <glyph glyph-name="hyphen" unicode="-" horiz-adv-x="909" 
d="M776 426h-645v190h645v-190z" />
    <glyph glyph-name="period" unicode="." horiz-adv-x="606" 
d="M475 162q0 -72 -50 -122t-122 -50t-123 50t-51 122t51 123t123 51t122 -51t50 -123z" />
    <glyph glyph-name="slash" unicode="/" horiz-adv-x="880" 
d="M846 1485l-631 -1528h-186l630 1528h187z" />
    <glyph glyph-name="zero" unicode="0" horiz-adv-x="1290" 
d="M393 709q0 -525 104 -637q52 -56 147 -56q94 0 146 56t76 206q24 148 25 430q0 282 -26 438t-78 218q-52 61 -144 61q-141 0 -196 -150q-54 -151 -54 -566zM642 1460q572 0 572 -751q0 -325 -115 -514q-129 -213 -457 -213q-327 0 -457 213q-117 192 -115 514
q0 751 572 751z" />
    <glyph glyph-name="one" unicode="1" horiz-adv-x="868" 
d="M582 195q0 -122 78 -150q32 -10 90 -10v-35h-617v35q143 0 177 71q17 35 18 89v886q0 83 -47 95t-97 -17l-47 -29l-20 33l399 297h66v-1265z" />
    <glyph glyph-name="two" unicode="2" horiz-adv-x="1009" 
d="M831 1118q0 -94 -57 -195t-160 -233t-266 -358l-47 -70h424q123 0 186 117h35l-104 -379h-762l467 680q143 248 43 414q-70 115 -210 128t-228 -100q-20 -25 -35 -55l-33 8q12 107 58 187t102 116q125 78 200 80l37 2q152 0 251 -100t99 -242z" />
    <glyph glyph-name="three" unicode="3" horiz-adv-x="1081" 
d="M506 16q133 0 186 104t39 251q-9 81 -78 180q-39 57 -119 101t-192 59v34q120 37 188 104q116 115 62 267q-49 130 -188 145q-74 7 -146 -29t-108 -112l-33 8q12 92 54 161t93 101q100 63 185 68l32 2q86 0 165 -34q159 -69 200 -236q18 -78 -23 -176t-139 -195
q133 -68 210 -159t83 -190t-22 -186t-76 -142q-145 -160 -379 -160q-233 0 -371 102q-33 23 -47 68t-2 99t67 90q55 35 120 19t99 -71t20 -117t-67 -92q-18 -6 9 -27q45 -37 178 -37z" />
    <glyph glyph-name="four" unicode="4" horiz-adv-x="1120" 
d="M535 545v542l-287 -434q-70 -96 -6 -106q12 -2 32 -2h261zM1044 401h-213v-104q0 -187 57 -229q30 -23 54 -28t64 -5v-35h-646v35q41 0 65 6q23 6 53 28q55 41 57 218v114h-476v35l676 1024l96 -18v-897h213v-144z" />
    <glyph glyph-name="five" unicode="5" horiz-adv-x="1095" 
d="M188 893q322 56 555 -50q91 -42 147 -113q103 -131 101 -279q0 -223 -147 -347q-148 -124 -360 -122q-212 0 -330 96q-31 26 -45 70t-7 90q16 63 72 97q56 33 120 19t98 -70t21 -118t-67 -94q-29 -16 4 -37q35 -19 129 -19t166 34t103 85q73 120 32 230q-18 59 -62 113
t-92 84q-139 87 -295 90q-97 3 -227 -9l152 799h709l-88 -268h-631z" />
    <glyph glyph-name="six" unicode="6" horiz-adv-x="1196" 
d="M612 16q115 0 159 79t44 293t-52 319q-52 104 -138 104q-63 0 -128 -38t-87 -124q4 -349 46 -491t156 -142zM733 897q201 0 292 -129t91 -339t-141 -329q-141 -118 -381 -118t-374 178t-134 491q0 365 184 587t439 222q109 0 181 -45t99 -90q21 -31 21 -77t-25 -83
q-33 -55 -95 -69t-116 20t-69 96q-13 64 21 118t89 63q13 2 -13 17t-93 15q-297 0 -299 -696q71 168 323 168z" />
    <glyph glyph-name="seven" unicode="7" horiz-adv-x="1138" 
d="M371 0q0 276 104 542t404 636h-545q-58 0 -116 -31t-89 -88h-35l49 383h924l-154 -264q-252 -449 -251 -1178h-291z" />
    <glyph glyph-name="eight" unicode="8" horiz-adv-x="1157" 
d="M1087 414q0 -224 -134 -328t-359 -104q-520 0 -520 329q0 125 103 233t216 132q-133 84 -201 188t-67 207q0 189 124 289t315 100t310 -79t119 -220q-1 -102 -65 -193t-185 -118q147 -72 245 -192t99 -244zM299 325q0 -137 77 -223t218 -86q102 0 164 64t63 186
q0 121 -97 204q-97 82 -177 122q-80 41 -107 57q-51 -27 -96 -107t-45 -217zM702 872q104 49 105 263q0 159 -71 225t-164 66t-146 -59q-53 -58 -53 -167q-1 -199 329 -328z" />
    <glyph glyph-name="nine" unicode="9" horiz-adv-x="1181" 
d="M584 1425q-119 1 -163 -77t-44 -292t52 -319q52 -104 138 -104q61 0 127 43t88 129q-4 233 -20 361q-32 259 -178 259zM459 547q-201 0 -292 129q-91 128 -91 338t141 328t381 118t374 -178t134 -489q0 -383 -159 -597t-464 -214q-215 0 -297 137q-20 31 -20 77t24 83
q34 55 96 69t116 -20t68 -96q14 -64 -20 -118t-92 -63q-14 -2 15 -14q45 -20 110 -21q189 0 243 136t56 567q-79 -172 -323 -172z" />
    <glyph glyph-name="colon" unicode=":" 
d="M463 788q0 -72 -52 -124t-125 -52t-124 52t-51 124t51 124t124 52t125 -52t52 -124zM463 162q0 -74 -52 -125t-125 -51t-124 51t-51 125t51 125t124 51t125 -51t52 -125z" />
    <glyph glyph-name="semicolon" unicode=";" 
d="M119 153q0 71 49 121t120 50t119 -48t51 -124q5 -132 -81 -261q-53 -84 -184 -155l-23 28q57 34 93 90t35 90t-13 42q-74 8 -120 52t-46 115zM463 787q0 -73 -51 -123t-125 -52q-74 0 -125 52t-51 124t51 124t125 52t125 -52t51 -125z" />
    <glyph glyph-name="less" unicode="&#x3c;" horiz-adv-x="1228" 
d="M399 545l734 -387v-191l-1039 533v88l1039 532v-192z" />
    <glyph glyph-name="equal" unicode="=" horiz-adv-x="1255" 
d="M1161 233h-1046v164h1046v-164zM1161 694h-1046v164h1046v-164z" />
    <glyph glyph-name="greater" unicode="&#x3e;" horiz-adv-x="1228" 
d="M96 158l733 387l-733 383v192l1039 -532v-88l-1039 -533v191z" />
    <glyph glyph-name="question" unicode="?" horiz-adv-x="1214" 
d="M578 1507q125 3 223 -33q97 -36 163 -113t71 -181t-23 -190t-75 -136q-94 -99 -196 -123q-84 -23 -130 -87t-38 -155l-53 -8q-33 209 109 326q74 61 99 143q26 82 11 224q-12 168 -129 234t-252 13q-57 -25 -51 -65q2 -18 17 -21q51 -8 85 -55q33 -47 23 -103t-55 -92
q-47 -33 -103 -21t-94 63q-37 50 -12 139q10 47 53 101t113 85q119 51 244 55zM571 336q72 0 123 -50t51 -122t-51 -123t-123 -51q-71 0 -121 51t-51 123q0 72 50 122t122 50z" />
    <glyph glyph-name="at" unicode="@" horiz-adv-x="1826" 
d="M1130 649q0 53 -22 88q-23 35 -64 35q-92 0 -162 -100t-101 -247q-29 -147 17 -229t120 -87q38 -4 72 13t48 38l15 18q0 4 34 166t39 207q4 45 4 98zM1167 -18q-65 0 -99 42t-26 91q-18 -23 -46 -49t-96 -55q-68 -30 -144 -29q-127 0 -176 118q-64 155 -8 357
q15 53 52 121q36 68 83 118t123 87q76 36 163 36q86 0 126 -36q32 -25 37 -34q5 -10 7 -12l2 -4l11 53l200 -4q-100 -539 -114 -612q-12 -31 0 -65t53 -33q86 0 185 118t99 324q0 588 -497 625q-170 12 -314 -47q-253 -104 -386 -402q-80 -182 -83 -400q0 -277 161 -451
q60 -65 170 -115t255 -62q107 -6 209 22t152 58l47 33l20 -31l-17 -17q-11 -11 -75 -53t-179 -65q-338 -70 -615 66q-109 55 -191 139t-133 229t-45 342t95 373q169 335 549 465q177 61 359 55q285 -12 475 -217t162 -557q-10 -136 -57 -236t-105 -153t-136 -85
q-77 -32 -133 -40t-120 -8z" />
    <glyph glyph-name="A" unicode="A" horiz-adv-x="1449" 
d="M348 438h467l-244 598zM1421 0h-585v35q44 1 66 23t22 70t-25 103l-72 172h-485q-2 -8 -6 -21q-35 -112 -10 -208q35 -150 213 -139v-35h-504v35q25 2 34 4q9 3 37 25q77 61 234 444l354 934h35l520 -1258q30 -76 50 -96t29 -30q22 -23 93 -23v-35z" />
    <glyph glyph-name="B" unicode="B" horiz-adv-x="1314" 
d="M573 35q164 0 212 25q75 38 98 98q35 93 36 203q2 270 -165 327q-74 25 -181 25h-79v-678h79zM573 1407h-79v-659h79q266 0 267 350q0 216 -100 270q-48 27 -82 33t-85 6zM758 739q221 0 340 -90q49 -37 86 -109t37 -161q-1 -87 -19 -145t-46 -97t-103 -77t-187 -49
q-111 -11 -293 -11h-497v18q119 0 119 263v878q0 111 -29 189t-90 77v17h478q170 0 232 -4q63 -4 126 -20q64 -16 86 -34q76 -59 91 -100q35 -94 35 -195t-50 -179t-120 -110q-132 -62 -196 -61z" />
    <glyph glyph-name="C" unicode="C" horiz-adv-x="1406" 
d="M793 1460q377 0 530 -125l-29 -321h-34q-90 217 -194 314t-273 97q-121 0 -192 -58q-152 -124 -151 -647t154 -646q72 -57 189 -58q176 0 300 118t167 296h34l29 -321q-109 -72 -233 -100t-297 -27q-322 0 -517 212t-194 527q0 315 194 527q195 212 517 212z" />
    <glyph glyph-name="D" unicode="D" horiz-adv-x="1572" 
d="M616 35q227 0 334 109q169 172 166 571q0 311 -85 462q-85 152 -190 191t-225 39h-90v-1372h90zM616 1442q458 0 676 -211q80 -78 131 -210t52 -306q0 -715 -859 -715h-540v35q66 1 110 71t43 175v878q0 98 -44 173t-109 75v35h540z" />
    <glyph glyph-name="E" unicode="E" horiz-adv-x="1337" 
d="M1208 446v-446h-1153v35q119 0 119 246v878q0 248 -119 248v35h1127v-389h-35q-12 98 -80 172q-68 75 -154 107q-176 66 -311 73l-57 2h-74v-662h74q111 -1 207 45q44 20 81 65q38 44 44 103h34v-460h-34q-15 152 -222 199q-47 11 -77 12l-33 2h-74v-676h74q168 0 344 78
q70 31 123 71q52 40 98 110q46 68 64 152h34z" />
    <glyph glyph-name="F" unicode="F" horiz-adv-x="1232" 
d="M51 1442h1149v-389h-35q-20 104 -92 179q-72 76 -160 108q-183 68 -317 67h-129v-659h72q200 0 300 105q42 44 52 105h35v-460h-35q-10 61 -50 105t-116 74t-154 32h-104v-428q0 -167 56 -211q28 -23 54 -29t66 -6v-35h-592v35q119 0 119 246v878q0 248 -119 248v35z" />
    <glyph glyph-name="G" unicode="G" horiz-adv-x="1525" 
d="M897 573h578v-34q-63 0 -91 -29t-38 -126q-12 -97 -13 -316q-223 -86 -541 -86t-514 213q-198 213 -198 526t198 526t538 213t505 -108l-14 -351h-70q-43 233 -146 329t-292 95q-123 0 -195 -57q-149 -118 -149 -645t151 -649q72 -57 193 -58q178 0 225 42t47 184
q1 142 -21 206t-53 77t-100 14v34z" />
    <glyph glyph-name="H" unicode="H" horiz-adv-x="1347" 
d="M1214 1208v-1035q0 -91 28 -110q28 -18 63 -28v-35h-426v35q35 12 42 49q7 38 7 108v478h-496v-447q0 -104 7 -140t42 -48v-35h-428v35q64 19 78 46t14 66v1002q0 164 -17 206t-75 52v35h428v-35q-35 -10 -42 -52t-7 -115v-529h496v438q0 182 -10 215t-39 43v35h426v-35
q-33 -6 -62 -29t-29 -170z" />
    <glyph glyph-name="I" unicode="I" horiz-adv-x="798" 
d="M80 1442h645v-35q-72 0 -123 -46t-51 -136v-977q0 -98 52 -156t122 -57v-35h-645v35q72 0 123 57t51 156v977q0 90 -50 136t-124 46v35z" />
    <glyph glyph-name="J" unicode="J" horiz-adv-x="907" 
d="M176 1442h651v-35q-76 0 -127 -48t-51 -140v-846q0 -621 -637 -715l-8 35q340 123 340 680v596q0 301 -24 369t-144 69v35z" />
    <glyph glyph-name="K" unicode="K" horiz-adv-x="1667" 
d="M1640 35v-35h-323q-158 0 -236 63t-245 308l-207 284l282 342l68 90q164 242 20 304q-39 14 -100 16v35h676v-35q-53 0 -86 -4t-99 -34q-188 -85 -538 -533l500 -668q100 -133 288 -133zM70 1442h618v-35q-176 0 -176 -182v-973q0 -102 43 -160t111 -57v-35h-596v35
q66 0 106 57t39 160v973q0 182 -145 182v35z" />
    <glyph glyph-name="L" unicode="L" horiz-adv-x="1366" 
d="M1239 444v-444h-1163v35q66 0 106 62t39 167v961q0 90 -46 136t-116 46v35h650v-35q-190 0 -191 -182v-1190h74q175 0 329 70q245 112 283 339h35z" />
    <glyph glyph-name="M" unicode="M" horiz-adv-x="2023" 
d="M1810 248q0 -98 52 -156t125 -57v-35h-619v35q66 0 107 55t41 158v1098l-545 -1364h-35l-574 1228v-692q0 -67 16 -160q16 -92 43 -155q26 -63 83 -115t137 -53v-35h-621v35q86 0 150 50q63 50 92 121q56 138 64 261l2 51v748q-56 97 -123 118t-109 23v35h516l494 -1039
l410 1039h452v-35q-70 0 -114 -45t-44 -135v-979z" />
    <glyph glyph-name="N" unicode="N" horiz-adv-x="1720" 
d="M1065 1442h621v-35q-86 0 -150 -49t-92 -121q-57 -141 -64 -266v-971h-108l-895 1124v-602q0 -178 59 -318q27 -65 84 -117t137 -52v-35h-622v35q86 0 149 50t92 122q59 147 64 264l2 51v639l-80 101q-106 133 -185 142q-27 3 -59 3v35h502l826 -1018v498q0 154 -47 282
q-75 203 -234 203v35z" />
    <glyph glyph-name="O" unicode="O" horiz-adv-x="1589" 
d="M790 16q128 0 200 56q152 117 153 641q0 525 -152 651q-75 61 -201 61t-201 -61t-115 -219t-40 -434t40 -430q40 -153 114 -209t202 -56zM791 1460q326 0 516 -216t190 -532t-189 -524t-517 -206q-328 0 -518 206q-189 208 -189 524t190 532q191 216 517 216z" />
    <glyph glyph-name="P" unicode="P" horiz-adv-x="1333" 
d="M496 1407v-758h73q93 0 145 9t108 44q108 68 108 326q0 200 -68 291q-52 70 -176 84q-43 4 -117 4h-73zM569 614h-73v-333q0 -166 89 -210q69 -36 152 -36v-35h-674v35q63 0 100 68q36 69 36 178v890q0 98 -41 167t-107 69v35h518q417 0 571 -120q126 -100 126 -294
q0 -288 -276 -366q-162 -48 -421 -48z" />
    <glyph glyph-name="Q" unicode="Q" horiz-adv-x="1579" 
d="M790 16q128 0 200 56q152 117 153 641q0 525 -152 651q-75 61 -201 61t-201 -61t-115 -219t-40 -434t40 -430q40 -153 114 -209t202 -56zM791 1460q326 0 516 -216t190 -532t-189 -524t-517 -206q-328 0 -518 206q-189 208 -189 524t190 532q191 216 517 216zM1260 -238
q61 -18 106 -18t68 8q22 8 34 12t28 14t22 15q8 4 21 14t15 11l25 -27l-219 -188q-142 -123 -398 -49q-114 33 -298 110l-177 74q-58 23 -86 25q-28 1 -58 1t-72 -26t-58 -41l-27 27q102 88 217 135t196 56t176 -3t134 -31z" />
    <glyph glyph-name="R" unicode="R" horiz-adv-x="1490" 
d="M545 692q139 0 171 10q84 28 101 49q52 61 70 125t18 157q0 243 -80 307q-31 26 -64 44t-97 21q-64 2 -119 2h-64v-715h64zM1477 0h-238q-91 0 -199 16q-14 2 -44 26t-34 35q-5 11 -27 57t-32 89t-69 223q-30 94 -94 146t-113 59l-49 6h-97v-409q0 -100 42 -156t110 -57
v-35h-596v35q67 0 107 55t40 158v977q0 182 -147 182v35h508q272 0 392 -32t176 -74q126 -94 126 -279q0 -183 -101 -269t-298 -108q115 12 221 -89t176 -355q17 -72 69 -120q81 -76 171 -81v-35z" />
    <glyph glyph-name="S" unicode="S" horiz-adv-x="1261" 
d="M94 502h35q64 -183 100 -231q106 -143 171 -182q120 -73 255 -73q80 0 132 50q51 50 63 122q12 70 -28 156t-130 152l-315 198q-469 295 -230 611q13 20 70 65t160 68q104 22 227 22t255 -24t185 -50l54 -24v-344h-35q-66 186 -187 297q-50 45 -132 78t-168 33
q-87 0 -140 -46q-116 -99 -36 -257q42 -81 137 -142l315 -209q280 -184 298 -401q9 -111 -69 -221l-12 -18q-8 -11 -43 -41q-127 -109 -413 -109q-134 0 -274 32t-192 64l-53 31v393z" />
    <glyph glyph-name="T" unicode="T" horiz-adv-x="1429" 
d="M39 1442h1347v-412h-34q-4 102 -52 179t-116 113q-136 74 -240 83l-45 2h-39v-1159q0 -98 52 -156t122 -57v-35h-645v35q70 0 122 57t52 156v1159h-39q-56 0 -141 -25q-86 -24 -145 -60q-60 -36 -110 -113t-54 -179h-35v412z" />
    <glyph glyph-name="U" unicode="U" horiz-adv-x="1540" 
d="M1507 1442v-35q-86 0 -149 -31t-92 -77q-60 -95 -62 -169l-2 -30v-608q0 -124 -36 -220t-89 -149t-147 -97t-234 -44q-217 0 -362 140t-146 382v723q0 90 -46 135t-117 45v35h651v-35q-190 0 -191 -180v-738q-1 -176 97 -280q98 -105 237 -105t243 104t105 284v608
q0 109 -58 200q-26 41 -83 74t-137 33v35h618z" />
    <glyph glyph-name="V" unicode="V" horiz-adv-x="1587" 
d="M965 1442h579v-35q-36 0 -58 -3t-62 -29q-111 -72 -275 -457l-369 -918h-35l-524 1241q-52 119 -100 143q-48 23 -94 23v35h651v-35q-74 0 -96 -59t-9 -119l15 -60l313 -780l215 539q59 148 49 291q-4 55 -22 94q-17 39 -63 67t-115 27v35z" />
    <glyph glyph-name="W" unicode="W" horiz-adv-x="2297" 
d="M1663 1442h604v-35q-149 0 -288 -228q-62 -103 -130 -261l-354 -918h-35l-366 885l-328 -885h-35l-514 1241q-45 115 -93 141q-48 25 -95 25v35h653v-35q-51 0 -79 -25t-34 -80t13 -108l303 -772l190 514l-117 305q-29 76 -66 116q-38 40 -62 45t-60 5v35h653v-35
q-51 0 -80 -25t-34 -77t14 -111l299 -780l195 514q60 149 53 276q-11 203 -207 203v35z" />
    <glyph glyph-name="X" unicode="X" horiz-adv-x="1699" 
d="M1661 35v-35h-676v35q61 15 63 73t-28 107l-31 49l-217 303l-113 -151q-83 -110 -102 -231q-6 -43 5 -75t52 -54t111 -21v-35h-614v35q29 0 43 1t67 21q53 21 103 59t132 124q83 86 175 209l117 153q-289 424 -416 578l-45 59q-129 168 -258 168v35h723v-35
q-74 0 -87 -67t56 -169l209 -282l112 149q12 12 48 82q88 171 19 240q-45 47 -153 47v35h672v-35q-254 0 -559 -401l-117 -152l465 -653q127 -166 244 -166z" />
    <glyph glyph-name="Y" unicode="Y" horiz-adv-x="1579" 
d="M938 1442h614v-35q-252 0 -483 -453l-135 -284v-422q0 -98 52 -156t122 -57v-35h-645v35q70 0 122 57t52 156v317q-227 406 -367 631l-32 51q-41 72 -87 111t-72 45t-61 6v33h654v-33q-92 0 -105 -49q-16 -60 58 -184l288 -471l138 284q25 49 40 127t14 126t-15 83
t-54 59t-98 23v35z" />
    <glyph glyph-name="Z" unicode="Z" horiz-adv-x="1263" 
d="M555 35q290 0 521 319q50 70 69 123h37l-52 -477h-1081l813 1407h-96q-203 0 -379 -112t-231 -267h-41l39 414h1063l-758 -1407h96z" />
    <glyph glyph-name="bracketleft" unicode="[" horiz-adv-x="681" 
d="M231 1505h420v-35q-97 0 -140 -18q-44 -18 -60 -56t-17 -100v-1405q0 -108 71 -134q58 -21 146 -21v-35h-420v1804z" />
    <glyph glyph-name="backslash" unicode="\" horiz-adv-x="888" 
d="M666 -41l-637 1546h186l637 -1546h-186z" />
    <glyph glyph-name="bracketright" unicode="]" horiz-adv-x="681" 
d="M23 1505h419v-1804h-419v35q165 0 199 68q17 34 18 87v1405q0 125 -70 153q-52 21 -147 21v35z" />
    <glyph glyph-name="asciicircum" unicode="^" horiz-adv-x="1177" 
d="M604 1442l379 -672h-92l-311 320l-306 -320h-92l375 672h47z" />
    <glyph glyph-name="underscore" unicode="_" horiz-adv-x="1146" 
d="M0 -141h1147v-125h-1147v125z" />
    <glyph glyph-name="grave" unicode="`" horiz-adv-x="716" 
d="M238 1475l346 -334h-76l-500 262z" />
    <glyph glyph-name="a" unicode="a" horiz-adv-x="1079" 
d="M872 234q0 -10 8 -48q8 -39 35 -59q27 -21 63 -21t48 35l35 -14q-14 -53 -82 -99t-171 -46t-161 85q-25 34 -31 80q-26 -69 -108 -117t-178 -48q-158 0 -220 106q-26 43 -26 102q0 139 92 194t438 140v127q0 160 -76 231q-77 71 -184 15q-61 -31 -65 -59q0 -10 6 -11
q49 -6 76 -46t19 -86q-8 -45 -49 -73q-40 -28 -88 -19t-75 48q-41 63 5 141t149 132q71 40 170 43l28 -2q188 -1 266 -107t76 -303v-321zM346 242q0 -84 69 -121q29 -15 71 -15t77 31t51 74v276q-268 -59 -268 -245z" />
    <glyph glyph-name="b" unicode="b" horiz-adv-x="1214" 
d="M702 965q180 1 308 -135t127 -372t-139 -356t-349 -120t-315 104q-76 -66 -162 -84q-39 -8 -39 8v1276q0 53 -21 81q-22 28 -83 50v35l358 76v-737q45 84 137 129t178 45zM638 16q106 0 156 98t50 334t-58 333t-172 97t-170 -73q-56 -74 -57 -187v-260q0 -178 72 -260
q73 -82 179 -82z" />
    <glyph glyph-name="c" unicode="c" horiz-adv-x="1024" 
d="M532 -18q-182 0 -311 152t-129 344t141 339t390 148q166 0 268 -91q63 -56 44 -124t-67 -97t-104 -15q-55 14 -84 64q-29 49 -12 103q12 53 63 82q17 8 -19 25q-118 55 -252 -57q-48 -40 -79 -129t-31 -212q0 -293 260 -350q76 -16 176 16t136 84l28 -18
q-27 -98 -131 -181q-105 -83 -287 -83z" />
    <glyph glyph-name="d" unicode="d" horiz-adv-x="1206" 
d="M1071 199q1 -76 21 -102t84 -34v-34l-302 -45q-50 -8 -57 36v127q-45 -81 -136 -123t-177 -42q-182 0 -309 136t-127 372t138 355q138 120 365 120q141 0 246 -62v391q0 53 -20 77t-84 46v35l358 76v-1329zM817 299v289q0 178 -72 260q-71 82 -179 82t-158 -97t-50 -335
t54 -341t168 -103t176 68t61 177z" />
    <glyph glyph-name="e" unicode="e" horiz-adv-x="1073" 
d="M521 -18q-191 0 -319 150t-128 352t134 342t351 139q217 0 323 -117t107 -356h-651q12 -144 80 -228t166 -106t198 10t138 100l34 -18q-31 -102 -137 -185t-296 -83zM338 526h401q0 188 -55 296t-142 108q-88 0 -146 -124t-58 -280z" />
    <glyph glyph-name="f" unicode="f" horiz-adv-x="684" 
d="M550 1491q-50 0 -77 -46q-59 -101 -59 -499h219l-6 -35h-213v-680q0 -94 16 -138t68 -58v-35h-420v35q53 14 66 58t14 138v680h-131l-2 35h133q0 437 170 535q78 45 182 45t166 -35q60 -35 80 -68q45 -68 10 -139q-23 -45 -71 -61q-48 -15 -94 7t-61 68t6 94q21 46 72 56
q25 4 5 20q-23 23 -73 23z" />
    <glyph glyph-name="g" unicode="g" horiz-adv-x="1171" 
d="M536 385q78 0 116 56t38 216t-40 216q-40 57 -118 57t-115 -54q-36 -54 -36 -216t39 -219q39 -56 116 -56zM438 -86q-113 0 -182 29q-53 -31 -77 -69q-23 -38 -19 -73q10 -76 39 -112l14 -17q88 -104 247 -129t306 58q59 37 89 88t30 84v32q1 13 -13 35q-45 74 -155 74
h-279zM930 651q0 -123 -106 -212t-289 -89q-115 0 -189 31q-24 -10 -48 -41q-66 -83 -19 -125q29 -27 104 -27h287q198 0 279 -76q34 -32 52 -97t9 -152q0 -20 -16 -63q-50 -137 -199 -222q-150 -86 -309 -110q-158 -24 -280 12q-122 35 -161 117q-49 104 11 213t163 153
q-106 51 -106 172q0 71 41 138q18 32 59 68t96 56q-76 33 -122 106t-46 154q1 129 107 219t290 89q184 0 291 -91q68 98 193 121q70 14 115 -37q33 -34 29 -82t-39 -81q-36 -33 -84 -29t-80 39q-31 37 -25 82q2 16 -29 3t-53 -40q74 -76 74 -199z" />
    <glyph glyph-name="h" unicode="h" horiz-adv-x="1103" 
d="M987 252q-1 -96 17 -150t67 -67v-35h-420v35q53 14 68 67q14 53 14 150v387q0 172 -172 172q-45 0 -92 -32t-78 -91v-436q1 -98 17 -150t67 -65v-37h-422v37q53 14 68 66q14 52 14 149v1032q0 53 -19 77t-83 46v35l358 86v-785q29 82 136 152q109 70 221 70t176 -71
t63 -247v-395z" />
    <glyph glyph-name="i" unicode="i" horiz-adv-x="577" 
d="M416 250q0 -98 16 -150t68 -65v-35h-420v35q53 16 67 67t15 148v455q0 53 -20 81t-85 62v35l359 82v-715zM410 1268q0 -56 -41 -98t-101 -42t-99 40q-40 40 -40 100t40 99q40 40 99 40q58 0 100 -41t42 -98z" />
    <glyph glyph-name="j" unicode="j" horiz-adv-x="575" 
d="M412 1268q0 -56 -41 -98t-99 -42t-100 41q-41 41 -41 99t41 98q41 41 99 41q57 0 99 -41t42 -98zM162 696q0 53 -20 86t-83 66v35l357 82v-863q0 -184 -56 -307t-133 -178q-78 -55 -190 -84v35q55 14 87 136t36 237l2 114v641z" />
    <glyph glyph-name="k" unicode="k" horiz-adv-x="1144" 
d="M1120 0h-289q-100 0 -143 38t-153 204l-115 172l192 209q111 111 138 217q8 35 -20 54t-91 17v35h498v-35q-260 -29 -519 -346l308 -428q68 -94 194 -102v-35zM379 248q0 -96 16 -148t68 -65v-35h-422v35q53 14 68 65q14 51 14 148v1036q-1 55 -21 83t-82 50v35l359 76
v-1280z" />
    <glyph glyph-name="l" unicode="l" horiz-adv-x="542" 
d="M406 248q0 -96 16 -148t65 -65v-35h-419v35q53 14 67 65t15 148v1036q0 55 -20 83t-83 50v35l359 76v-1280z" />
    <glyph glyph-name="m" unicode="m" horiz-adv-x="1628" 
d="M1597 0h-421v35q53 14 67 66t14 149v397q0 170 -149 170q-58 0 -110 -56t-52 -118v-393q0 -98 16 -150t68 -65v-35h-422v35q53 14 68 66q14 52 14 149v397q0 170 -147 170q-55 0 -109 -56t-55 -112v-403q0 -94 17 -146t67 -65v-35h-420v35q53 14 67 63q13 49 13 148v448
q-1 55 -21 88t-82 66v35l359 82v-211q43 90 129 150t180 61q221 0 256 -217q33 92 123 154q89 62 203 62t179 -67q65 -68 64 -244v-403q1 -98 17 -150t67 -65v-35z" />
    <glyph glyph-name="n" unicode="n" horiz-adv-x="1103" 
d="M975 250q0 -98 16 -150t68 -65v-35h-422v35q53 14 68 66q14 52 14 149v397q0 76 -45 123q-46 47 -114 47t-124 -53t-57 -115v-403q0 -94 17 -146t67 -65v-35h-420v35q53 14 67 63q13 49 13 148v463q1 53 -19 79t-84 60v35l359 82v-220q35 91 136 155t216 64t179 -67
q64 -68 65 -244v-403z" />
    <glyph glyph-name="o" unicode="o" horiz-adv-x="1138" 
d="M571 16q111 0 148 90t37 366t-37 368q-37 90 -148 90t-149 -90t-37 -366q-1 -276 37 -368q38 -90 149 -90zM84 474q0 210 131 350t357 141q226 -1 356 -141t131 -351q0 -211 -130 -351q-131 -140 -357 -140t-357 141t-131 351z" />
    <glyph glyph-name="p" unicode="p" horiz-adv-x="1234" 
d="M702 965q182 -1 310 -135t127 -368q1 -234 -139 -358q-140 -123 -365 -122q-145 0 -244 63v-354q1 -95 17 -141t67 -58v-35h-420v35q53 16 67 62t15 137v1042q0 51 -19 71t-83 44v35l356 82v-166q45 82 136 124t175 42zM642 16q102 0 153 100t51 336t-58 336t-186 101
q-88 -1 -143 -63t-68 -158v-375q12 -143 81 -210q68 -67 170 -67z" />
    <glyph glyph-name="q" unicode="q" horiz-adv-x="1210" 
d="M1069 -311q0 -93 16 -139t68 -58v-35h-420v35q51 16 65 60t15 137v397q-104 -104 -277 -104t-300 137t-127 373t138 354q138 119 365 119q164 0 265 -76q37 29 85 49q98 41 107 8v-1257zM813 281v307q0 180 -62 261t-168 81t-156 -95t-50 -336t54 -354t177 -112
q100 0 153 67q52 68 52 181z" />
    <glyph glyph-name="r" unicode="r" horiz-adv-x="870" 
d="M549 797q0 20 -43 0q-61 -33 -117 -121v-426q1 -98 17 -150t67 -65v-35h-424v35q53 16 68 66q14 50 14 149v455q0 53 -20 83t-82 60v35l360 82v-232q49 78 103 129q54 52 76 64q24 12 59 27t86 9t91 -41q40 -34 44 -99q4 -64 -37 -110t-103 -52t-112 36q-47 43 -47 101z
" />
    <glyph glyph-name="s" unicode="s" horiz-adv-x="909" 
d="M729 674q-88 256 -303 256q-49 0 -83 -27t-41 -65t21 -88q28 -49 91 -91l207 -129q137 -86 177 -206t-36 -232q-8 -12 -28 -30t-93 -50q-73 -30 -175 -30t-194 24t-129 47l-39 23v258h35q3 -4 13 -32t25 -67t32 -62t37 -50t65 -58q66 -46 151 -48q85 -1 117 49t8 120
q-24 68 -98 117l-206 125q-150 90 -187 207t47 227q100 100 244 102q247 3 346 -46l31 -15v-229h-35z" />
    <glyph glyph-name="t" unicode="t" horiz-adv-x="724" 
d="M551 127q80 0 123 72l31 -19q-33 -78 -119 -138t-201 -60t-178 68t-64 245v616h-102l-6 35h108v275l256 43v-318h244l-8 -35h-236v-610q0 -174 152 -174z" />
    <glyph glyph-name="u" unicode="u" horiz-adv-x="1148" 
d="M1010 188q0 -72 18 -90t86 -26v-35l-303 -53q-48 -8 -57 39v180q-38 -86 -144 -154q-106 -67 -218 -67t-178 68q-65 68 -64 245v492q0 11 -4 36q-3 25 -9 30q-32 27 -51 30q-20 4 -51 8v35l368 39v-664q0 -170 172 -170q45 0 97 37q51 37 82 96v488q0 84 -14 108t-83 31
v35l353 39v-777z" />
    <glyph glyph-name="v" unicode="v" horiz-adv-x="1069" 
d="M670 946h399v-35q-27 0 -45 -6q-109 -36 -221 -311l-244 -612h-33l-381 821q-23 49 -51 76q-29 27 -45 29t-43 3v35h483v-35q-51 0 -60 -38t5 -76l219 -473l113 278q15 30 27 96t8 106t-36 74t-95 33v35z" />
    <glyph glyph-name="w" unicode="w" horiz-adv-x="1667" 
d="M1249 946h402v-35q-39 0 -86 -33q-83 -59 -168 -284l-236 -612h-33l-299 649l-241 -649h-35l-391 841q-45 88 -129 88v35h483v-35q-53 1 -66 -33t1 -67l227 -481l131 344l-70 149q-47 88 -131 88v35h486v-35q-57 0 -71 -33q-13 -34 1 -67l229 -481l105 272q57 171 13 249
q-30 60 -122 60v35z" />
    <glyph glyph-name="x" unicode="x" horiz-adv-x="1120" 
d="M1106 35v-35h-500v35q57 0 43 49q-13 49 -45 94l-125 191l-82 -119q-2 -4 -7 -12q-35 -56 -31 -100q3 -44 17 -61q36 -42 134 -42v-35h-463v35q139 0 324 246l88 120l-293 439q-44 55 -74 63t-67 8v35h489v-35q-98 0 -22 -127l116 -178l70 90q17 23 32 68t13 73
q-2 27 -33 51t-94 23v35h463v-35l-19 -2q-65 1 -108 -27q-90 -57 -151 -118q-40 -41 -83 -94l-71 -95l299 -454q59 -86 180 -86z" />
    <glyph glyph-name="y" unicode="y" horiz-adv-x="1107" 
d="M676 946h401v-35q-92 0 -168 -121q-55 -88 -100 -198l-313 -825q-57 -152 -154 -228q-29 -25 -75 -31t-91 15t-65 76t2 108q25 53 80 75t107 -2t71 -85q8 -25 39 -1t51 77l78 211l-387 849q-33 80 -129 80v35h483v-35q-47 0 -61 -31q-13 -32 -3 -63l11 -31l217 -462
l108 276q17 34 29 98t8 106t-39 75t-100 32v35z" />
    <glyph glyph-name="z" unicode="z" horiz-adv-x="948" 
d="M881 946l-500 -911q324 0 420 276h35l-19 -311h-758l533 911q-352 0 -434 -235h-35l10 270h748z" />
    <glyph glyph-name="braceleft" unicode="{" horiz-adv-x="681" 
d="M446 6q0 -154 28 -220t93 -87v-35q-305 43 -305 342v240q0 143 -15 182t-19 53q-4 13 -19 27q-14 14 -22 23t-46 16q-38 8 -41 8v35q4 2 39 8t46 18q11 13 24 26q12 14 17 30q4 16 20 58t16 194v239q0 299 305 342v-35q-65 -26 -93 -90t-28 -217v-295q0 -295 -270 -295
q127 0 199 -58t71 -214v-295z" />
    <glyph glyph-name="bar" unicode="|" horiz-adv-x="454" 
d="M150 -336v1841h155v-1841h-155z" />
    <glyph glyph-name="braceright" unicode="}" horiz-adv-x="681" 
d="M229 6v295q0 156 72 214t199 58q-270 0 -271 295v295q1 155 -27 219t-93 88v35q305 -43 305 -342v-239q0 -124 10 -164q10 -39 15 -63t19 -40t19 -26q7 -11 25 -19t22 -10t27 -7t24 -5v-35q-19 0 -52 -11q-33 -10 -37 -16t-19 -19q-14 -13 -18 -27q-3 -14 -19 -54
q-16 -39 -16 -182v-240q0 -299 -305 -342v35q66 23 93 88t27 219z" />
    <glyph glyph-name="asciitilde" unicode="~" horiz-adv-x="1228" 
d="M713 401l-246 88q-122 30 -224 -16q-65 -29 -89 -80l-33 15q41 100 97 164t108 85q113 44 170 27l26 -6l246 -88q118 -29 219 17q63 30 88 81l31 -12q-41 -100 -97 -165q-55 -65 -105 -87q-101 -44 -165 -29z" />
    <glyph glyph-name="uni007F" horiz-adv-x="0" 
 />
    <glyph glyph-name="uni00A0" unicode="&#xa0;" horiz-adv-x="542" 
 />
    <glyph glyph-name="exclamdown" unicode="&#xa1;" horiz-adv-x="653" 
d="M180 1014q0 63 45 107t109 44t107 -44q44 -44 44 -107q0 -62 -44 -108t-107 -46t-109 45q-45 46 -45 109zM266 694h131l66 -1052h-266z" />
    <glyph glyph-name="cent" unicode="&#xa2;" horiz-adv-x="1091" 
d="M684 -242h-35v224q-243 0 -369 147t-126 339t132 338t363 159v249h35v-249q166 0 268 -91q63 -56 44 -124t-67 -97q-47 -29 -103 -15t-85 64q-29 49 -12 103q12 53 64 82q18 8 -19 25t-90 18v-770q76 -10 170 22t129 82l29 -18q-25 -86 -109 -166t-219 -98v-224zM412 514
q0 -279 237 -346v760q-89 -18 -163 -114t-74 -300z" />
    <glyph glyph-name="sterling" unicode="&#xa3;" horiz-adv-x="1372" 
d="M289 16q188 0 278 150q-125 74 -192 104q-129 55 -205 2t-57 -131q35 -125 176 -125zM291 -18q-35 0 -85 16q-99 32 -132 133q-14 69 1 103t33 62q34 55 137 78q104 24 271 -30l76 -25q0 92 -101 250t-110 172h-191v35h177q-63 144 -71 272q-15 221 133 359
q126 115 313 115q83 0 162 -35t120 -75t63 -93q29 -86 -36 -152q-41 -45 -103 -45t-106 43q-45 43 -45 105t39 101q39 40 106 40q31 -1 -1 21q-57 38 -174 44q-117 5 -184 -69q-67 -73 -46 -233t153 -398h371v-35h-350l55 -75q125 -197 10 -406l152 -47q117 -33 210 -8
t109 84l35 -8q0 -161 -136 -253q-32 -22 -52 -28l-23 -8q-84 -25 -182 8t-230 109q-116 -127 -368 -127z" />
    <glyph glyph-name="currency" unicode="&#xa4;" horiz-adv-x="1253" 
d="M623 389q131 0 224 93q93 94 93 226t-93 225t-224 93t-225 -93t-95 -225q0 -132 94 -226q95 -93 226 -93zM1116 710q0 -159 -90 -288l182 -180l-118 -121l-183 182q-125 -90 -283 -90t-288 90l-180 -182l-119 121l180 180q-90 133 -90 287t90 284l-180 181l119 118
l180 -180q129 90 288 90t283 -90l183 180l118 -118l-182 -181q90 -124 90 -283z" />
    <glyph glyph-name="yen" unicode="&#xa5;" horiz-adv-x="1437" 
d="M864 1442h615v-35q-252 0 -484 -453l-135 -284h338v-35h-338v-148h338v-34h-338v-205q0 -98 52 -156t122 -57v-35h-645v35q70 0 122 57t52 156v205h-381v34h381v78l-41 70h-340v35h322l-340 577q-41 72 -87 111t-72 45t-60 6v33h653v-33q-93 0 -104 -49q-16 -59 57 -184
l289 -471l137 284q29 59 42 132t12 121q-3 165 -167 165v35z" />
    <glyph glyph-name="brokenbar" unicode="&#xa6;" horiz-adv-x="454" 
d="M311 381v-772h-166v772h166zM311 1505v-768h-166v768h166z" />
    <glyph glyph-name="section" unicode="&#xa7;" horiz-adv-x="1138" 
d="M387 786q-223 -149 -113 -283q52 -63 160 -132q7 -3 13 -8t10 -7l245 -149q27 -14 72 -51q78 57 110 112t29 94q-2 39 -40 83t-72 70t-117 79l-246 154q-27 18 -51 38zM805 127q65 -63 103 -155t29 -183q-9 -90 -48 -156q-39 -67 -91 -95q-124 -68 -231 -60q-55 4 -98 4
q-80 8 -138 37q-154 77 -95 194q22 49 72 67t102 -3q49 -23 67 -74t-3 -97t-83 -65q-8 -2 8 -10q29 -10 72 -14q113 -14 181 37t76 138q9 87 -20 147q-30 60 -122 122l-254 164q-192 123 -222 305q-15 90 45 192t199 193q-154 141 -133 348q8 90 45 156q37 65 87 95
q113 67 224 61q53 -3 113 -7t119 -34q153 -76 98 -195q-25 -49 -75 -67t-101 4q-49 24 -67 74t4 100q23 45 61 57q16 6 -6 15t-51 14q-117 10 -193 -40t-84 -145q-16 -154 160 -264l254 -160q194 -124 228 -312q17 -93 -40 -197t-192 -191z" />
    <glyph glyph-name="dieresis" unicode="&#xa8;" horiz-adv-x="598" 
d="M610 1322q0 -50 -36 -86t-86 -36t-85 36t-35 86t35 85t85 35t86 -35t36 -85zM225 1322q0 -50 -36 -86t-86 -36t-86 36q-35 36 -35 86t35 85q36 35 86 35t86 -35t36 -85z" />
    <glyph glyph-name="copyright" unicode="&#xa9;" horiz-adv-x="1669" 
d="M828 319q-182 0 -292 120t-110 297t110 297t303 120t281 -70l-10 -176h-35q-39 211 -248 211q-193 0 -193 -382t193 -382q96 0 161 44q64 44 87 167h35l10 -174q-109 -72 -292 -72zM219 756q1 -254 181 -436t433 -181q253 -1 433 181t180 436t-180 436t-433 182
t-433 -182t-181 -436zM832 1528q320 0 547 -226t227 -546t-226 -546t-548 -226q-320 0 -545 226t-225 546t224 546q226 226 546 226z" />
    <glyph glyph-name="ordfeminine" unicode="&#xaa;" horiz-adv-x="653" 
d="M43 1052q0 62 48 91q47 29 131 49t97 25v63q0 80 -40 111q-41 31 -101 4q-29 -14 -26 -25q29 0 42 -21t8 -46q-6 -25 -26 -38t-45 -9t-42 27t3 67t70 70q51 26 98 26l16 -2q100 0 140 -55t39 -158v-160q0 -31 14 -54q13 -24 33 -23t24 22l27 -10q-4 -31 -37 -54
q-32 -22 -64 -22t-50 2t-47 21q-30 19 -33 53q-10 -31 -62 -57t-129 -16q-20 3 -54 30t-34 89zM178 1065q0 -24 20 -44q20 -21 60 -21q41 0 61 51v131q-141 -33 -141 -117z" />
    <glyph glyph-name="guillemotleft" unicode="&#xab;" horiz-adv-x="1249" 
d="M1069 1034v-80l-250 -409l250 -398v-79l-473 477zM651 1034v-80l-252 -409l252 -398v-79l-473 477z" />
    <glyph glyph-name="logicalnot" unicode="&#xac;" horiz-adv-x="1337" 
d="M84 817h1159v-655h-170v487h-989v168z" />
    <glyph glyph-name="uni00AD" unicode="&#xad;" horiz-adv-x="909" 
d="M776 426h-645v190h645v-190z" />
    <glyph glyph-name="registered" unicode="&#xae;" horiz-adv-x="1677" 
d="M770 764q51 0 77 3q81 9 102 75q13 39 13 103q0 63 -12 101q-22 61 -103 71q-26 3 -77 3h-35v-356h35zM1270 418v-35h-128q-48 0 -74 4t-33 5q-7 2 -22 14t-19 19q-3 7 -14 31t-16 46t-38 121q-16 47 -50 73t-61 29l-27 4h-53v-197q0 -55 23 -85t59 -29v-35h-319v35
q80 0 80 114v506q0 50 -20 66t-60 16v35h272q188 0 280 -41t93 -168q0 -94 -54 -140t-161 -58q60 6 118 -50t95 -192q25 -88 129 -88zM836 143q254 -1 433 179t179 434t-179 434t-433 180t-434 -180t-179 -434q-1 -254 179 -434t434 -179zM836 1528q319 0 545 -226
q227 -226 227 -546t-226 -546t-546 -226q-319 0 -546 226q-226 226 -226 546t226 546q227 226 546 226z" />
    <glyph glyph-name="macron" unicode="&#xaf;" horiz-adv-x="737" 
d="M772 1202h-805v141h805v-141z" />
    <glyph glyph-name="degree" unicode="&#xb0;" horiz-adv-x="780" 
d="M567 1243q0 76 -53 129t-130 53t-131 -53t-54 -129t54 -129t131 -53t130 53t53 129zM383 1509q109 1 187 -77t79 -188q0 -110 -79 -186q-80 -76 -188 -77q-108 0 -186 77q-78 76 -79 186q1 110 79 188t187 77z" />
    <glyph glyph-name="plusminus" unicode="&#xb1;" horiz-adv-x="1245" 
d="M84 0v164h1063v-164h-1063zM696 774h451v-166h-451v-321h-164v321h-448v166h448v322h164v-322z" />
    <glyph glyph-name="twosuperior" unicode="&#xb2;" horiz-adv-x="552" 
d="M248 1442q70 0 114 -45t46 -121q0 -76 -103 -201l-123 -178h158q55 0 84 53h35l-47 -174h-349l213 311q78 133 9 209q-51 53 -111 34t-82 -68l-33 6q6 49 28 85t62 60t80 29h19z" />
    <glyph glyph-name="threesuperior" unicode="&#xb3;" horiz-adv-x="565" 
d="M252 762q-88 0 -156 53q-34 25 -26 63t33 54q26 16 55 9t45 -33t8 -56t-33 -39q-10 -4 10 -10q23 -8 76 -8t84 50t19 105q-23 121 -174 140v36q71 23 101 64t20 79q-9 38 -40 60q-32 29 -80 19t-73 -62l-35 4q8 68 50 106t81 42l37 4q68 0 119 -41t51 -111t-74 -141
q61 -23 95 -67t38 -89q5 -113 -69 -172t-162 -59z" />
    <glyph glyph-name="acute" unicode="&#xb4;" horiz-adv-x="761" 
d="M178 1143l346 334l230 -72l-500 -262h-76z" />
    <glyph glyph-name="mu" unicode="&#xb5;" horiz-adv-x="1140" 
d="M997 188q1 -72 19 -90t86 -26v-35l-303 -53q-49 -8 -58 39v180q-37 -88 -142 -155t-208 -66v-304q1 -74 21 -100t86 -31v-34l-301 -54q-50 -7 -58 27l-2 12v1289q0 55 -9 63q-34 29 -54 33t-51 8v35l368 39v-664q0 -170 172 -170q45 0 96 37t82 96v488q0 84 -13 108
t-83 31v35l352 39v-777z" />
    <glyph glyph-name="paragraph" unicode="&#xb6;" horiz-adv-x="1345" 
d="M733 1442v-1985h-420v35q95 0 173 49q46 29 74 93t28 159v821q-381 0 -473 203q-39 84 -39 207q0 414 512 418h145zM1190 1407q-74 0 -121 -89t-47 -202v-1323q0 -125 41 -213t113 -88v-35h-297v1985h311v-35z" />
    <glyph glyph-name="periodcentered" unicode="&#xb7;" 
d="M406 612q0 -51 -36 -87t-87 -36t-87 36t-36 87t36 87t87 36t87 -36t36 -87z" />
    <glyph glyph-name="cedilla" unicode="&#xb8;" 
d="M292 -442q38 0 66 30t26 79q-1 47 -51 103t-151 40l64 182h35l-41 -121q130 31 198 -29t59 -134q-9 -76 -51 -118q-66 -66 -163 -65q-98 0 -148 43q-29 22 -23 56t29 47t49 7q59 -14 50 -75q-2 -18 -14 -27t8 -14q20 -4 58 -4z" />
    <glyph glyph-name="onesuperior" unicode="&#xb9;" horiz-adv-x="475" 
d="M307 891q0 -78 82 -78v-35h-301v35q94 0 94 78v356q0 33 -19 40t-40 -3l-19 -10l-24 35l194 133h33v-551z" />
    <glyph glyph-name="ordmasculine" unicode="&#xba;" horiz-adv-x="673" 
d="M219 1101q0 -183 29 -243t89 -59q60 0 87 59q27 58 27 242t-29 249t-88 65t-87 -66q-28 -64 -28 -247zM70 1100q0 348 265 348t265 -342t-264 -342q-147 0 -207 89q-59 89 -59 247z" />
    <glyph glyph-name="guillemotright" unicode="&#xbb;" horiz-adv-x="1247" 
d="M172 954v80l473 -489l-473 -477v79l250 398zM590 954v80l473 -489l-473 -477v79l252 398z" />
    <glyph glyph-name="onequarter" unicode="&#xbc;" horiz-adv-x="1339" 
d="M1167 1450h133l-1140 -1376h-131zM928 285v250l-129 -193q-29 -49 -7 -55q7 -2 21 -2h115zM1194 211h-111v-41q-1 -61 15 -93t31 -37t45 -5v-35h-336v35q67 0 83 57q7 29 7 74v45h-248v18l348 523l55 -7v-460h111v-74zM246 1319q0 35 -20 41t-42 -6l-20 -13l-23 33
l199 154h35v-643q0 -58 26 -70t56 -12v-35h-307v35q29 0 46 3t33 22t17 57v434z" />
    <glyph glyph-name="onehalf" unicode="&#xbd;" horiz-adv-x="1341" 
d="M246 1319q0 35 -20 41t-42 -6l-20 -13l-23 33l199 154h35v-643q0 -58 26 -70t56 -12v-35h-307v35q29 0 46 3t33 22t17 57v434zM1167 1450h133l-1140 -1376h-131zM1014 762q80 0 131 -52t51 -136t-121 -232l-141 -203h182q72 1 105 60h34l-55 -199h-395l242 356
q86 145 14 232q-51 61 -131 41q-61 -18 -90 -78l-33 10q6 55 30 97t53 61q65 39 105 43h19z" />
    <glyph glyph-name="threequarters" unicode="&#xbe;" horiz-adv-x="1343" 
d="M928 285v250l-129 -193q-29 -49 -7 -55q7 -2 21 -2h115zM1194 211h-111v-41q-1 -61 15 -93t31 -37t45 -5v-35h-336v35q67 0 83 57q7 29 7 74v45h-248v18l348 523l55 -7v-460h111v-74zM292 762q-102 0 -175 57q-37 27 -29 70t37 61t61 12t52 -36q18 -29 12 -64
q-14 -35 -28 -41t8 -15q24 -9 86 -9t90 53q27 53 16 125q-33 147 -197 168v31q82 26 115 72t22 87q-10 41 -44 69t-89 14t-82 -70l-36 12q8 76 54 118t89 48l41 4q78 0 135 -46t56 -125t-83 -159q68 -20 107 -72t45 -104q0 -136 -80 -198q-81 -62 -183 -62zM1167 1450h133
l-1140 -1376h-131z" />
    <glyph glyph-name="questiondown" unicode="&#xbf;" horiz-adv-x="1239" 
d="M903 -485q-171 -68 -323 -54q-152 13 -260 103t-112 206q-13 294 194 419q48 29 116 47t114 82t38 155l53 8q33 -209 -109 -325q-74 -62 -100 -144t-10 -223q8 -113 70 -183q111 -124 319 -59q29 11 39 31t4 34t-16 15q-49 7 -84 55t-25 104t55 91q48 33 104 21t93 -62
t12 -139q-10 -45 -56 -98t-116 -84zM672 627q-72 0 -123 50t-51 122t51 123t123 51t122 -51t50 -123t-50 -122t-122 -50z" />
    <glyph glyph-name="Agrave" unicode="&#xc0;" horiz-adv-x="1449" 
d="M647 1839l346 -334h-75l-500 262zM348 438h467l-244 598zM1421 0h-585v35q44 1 66 23t22 70t-25 103l-72 172h-485q-2 -8 -6 -21q-35 -112 -10 -208q35 -150 213 -139v-35h-504v35q25 2 34 4q9 3 37 25q77 61 234 444l354 934h35l520 -1258q30 -76 50 -96t29 -30
q22 -23 93 -23v-35z" />
    <glyph glyph-name="Aacute" unicode="&#xc1;" horiz-adv-x="1449" 
d="M348 438h467l-244 598zM1421 0h-585v35q44 1 66 23t22 70t-25 103l-72 172h-485q-2 -8 -6 -21q-35 -112 -10 -208q35 -150 213 -139v-35h-504v35q25 2 34 4q9 3 37 25q77 61 234 444l354 934h35l520 -1258q30 -76 50 -96t29 -30q22 -23 93 -23v-35zM457 1505l346 334
l229 -72l-500 -262h-75z" />
    <glyph glyph-name="Acircumflex" unicode="&#xc2;" horiz-adv-x="1449" 
d="M469 1505h-74l318 383l317 -383h-76l-241 158zM348 438h467l-244 598zM1421 0h-585v35q44 1 66 23t22 70t-25 103l-72 172h-485q-2 -8 -6 -21q-35 -112 -10 -208q35 -150 213 -139v-35h-504v35q25 2 34 4q9 3 37 25q77 61 234 444l354 934h35l520 -1258q30 -76 50 -96
t29 -30q22 -23 93 -23v-35z" />
    <glyph glyph-name="Atilde" unicode="&#xc3;" horiz-adv-x="1449" 
d="M348 438h467l-244 598zM1421 0h-585v35q44 1 66 23t22 70t-25 103l-72 172h-485q-2 -8 -6 -21q-35 -112 -10 -208q35 -150 213 -139v-35h-504v35q25 2 34 4q9 3 37 25q77 61 234 444l354 934h35l520 -1258q30 -76 50 -96t29 -30q22 -23 93 -23v-35zM809 1536l-246 88
q-118 29 -219 -17q-63 -30 -88 -81l-31 12q41 100 97 165t105 87q101 44 165 29l26 -7l244 -90q66 -23 169 3t140 102l31 -17q-41 -100 -97 -164q-55 -64 -105 -86q-101 -44 -164 -30z" />
    <glyph glyph-name="Adieresis" unicode="&#xc4;" horiz-adv-x="1449" 
d="M348 438h467l-244 598zM1421 0h-585v35q44 1 66 23t22 70t-25 103l-72 172h-485q-2 -8 -6 -21q-35 -112 -10 -208q35 -150 213 -139v-35h-504v35q25 2 34 4q9 3 37 25q77 61 234 444l354 934h35l520 -1258q30 -76 50 -96t29 -30q22 -23 93 -23v-35zM910 1585
q-50 0 -86 35t-36 85t36 86t86 36t86 -36t36 -86t-36 -85t-86 -35zM525 1585q-50 0 -86 35t-36 85t36 86t86 36t85 -36t35 -86t-35 -85t-85 -35z" />
    <glyph glyph-name="Aring" unicode="&#xc5;" horiz-adv-x="1449" 
d="M348 438h467l-244 598zM1421 0h-585v35q44 1 66 23t22 70t-25 103l-72 172h-485q-2 -8 -6 -21q-35 -112 -10 -208q35 -150 213 -139v-35h-504v35q25 2 34 4q9 3 37 25q77 61 234 444l354 934h35l520 -1258q30 -76 50 -96t29 -30q22 -23 93 -23v-35zM717 1925
q-51 0 -87 -36t-36 -87t36 -87t87 -36t87 36t36 87t-36 87t-87 36zM717 1587q-91 1 -153 63t-62 152t63 154t153 63q90 0 152 -63q64 -62 64 -152t-64 -154t-153 -63z" />
    <glyph glyph-name="AE" unicode="&#xc6;" horiz-adv-x="2039" 
d="M1913 442v-442h-1151v35q76 0 116 48t40 196v217h-439q-213 -401 -29 -451q40 -10 70 -10h31v-35h-526v35q145 10 444 530l424 752q-37 90 -164 90v35h1155v-391h-35q-12 100 -74 173q-63 72 -143 106q-162 67 -289 75l-53 2h-73v-666h73q169 0 251 108q34 44 40 105h35
v-458h-35q-6 61 -39 105t-93 73t-130 31l-29 2h-73v-672h73q164 0 309 69q236 113 279 338h35zM918 530v629q0 66 -9 107l-415 -736h424z" />
    <glyph glyph-name="Ccedilla" unicode="&#xc7;" horiz-adv-x="1411" 
d="M806 -446q38 0 66 30t26 79q-1 47 -51 103t-151 39l62 177q-307 12 -492 223q-184 211 -184 521t194 522q195 212 517 212q377 0 530 -125l-29 -321h-34q-90 217 -194 314t-273 97q-121 0 -192 -58q-152 -124 -151 -647t154 -646q72 -57 189 -58q176 0 300 118t167 296
h34l29 -321q-109 -72 -233 -100t-297 -27l-39 -115q130 31 198 -29t59 -134q-9 -76 -50 -118q-65 -66 -163 -65q-99 0 -149 43q-29 22 -23 56t29 47t50 7q59 -14 49 -75q-2 -18 -14 -27t8 -14q20 -4 58 -4z" />
    <glyph glyph-name="Egrave" unicode="&#xc8;" horiz-adv-x="1327" 
d="M563 1839l346 -334h-75l-500 262zM1208 446v-446h-1153v35q119 0 119 246v878q0 248 -119 248v35h1127v-389h-35q-12 98 -80 172q-68 75 -154 107q-176 66 -311 73l-57 2h-74v-662h74q111 -1 207 45q44 20 81 65q38 44 44 103h34v-460h-34q-15 152 -222 199
q-47 11 -77 12l-33 2h-74v-676h74q168 0 344 78q70 31 123 71q52 40 98 110q46 68 64 152h34z" />
    <glyph glyph-name="Eacute" unicode="&#xc9;" horiz-adv-x="1327" 
d="M334 1505l346 334l229 -72l-499 -262h-76zM1208 446v-446h-1153v35q119 0 119 246v878q0 248 -119 248v35h1127v-389h-35q-12 98 -80 172q-68 75 -154 107q-176 66 -311 73l-57 2h-74v-662h74q111 -1 207 45q44 20 81 65q38 44 44 103h34v-460h-34q-15 152 -222 199
q-47 11 -77 12l-33 2h-74v-676h74q168 0 344 78q70 31 123 71q52 40 98 110q46 68 64 152h34z" />
    <glyph glyph-name="Ecircumflex" unicode="&#xca;" horiz-adv-x="1327" 
d="M387 1505h-74l318 383l317 -383h-76l-241 158zM1208 446v-446h-1153v35q119 0 119 246v878q0 248 -119 248v35h1127v-389h-35q-12 98 -80 172q-68 75 -154 107q-176 66 -311 73l-57 2h-74v-662h74q111 -1 207 45q44 20 81 65q38 44 44 103h34v-460h-34q-15 152 -222 199
q-47 11 -77 12l-33 2h-74v-676h74q168 0 344 78q70 31 123 71q52 40 98 110q46 68 64 152h34z" />
    <glyph glyph-name="Edieresis" unicode="&#xcb;" horiz-adv-x="1327" 
d="M1208 446v-446h-1153v35q119 0 119 246v878q0 248 -119 248v35h1127v-389h-35q-12 98 -80 172q-68 75 -154 107q-176 66 -311 73l-57 2h-74v-662h74q111 -1 207 45q44 20 81 65q38 44 44 103h34v-460h-34q-15 152 -222 199q-47 11 -77 12l-33 2h-74v-676h74q168 0 344 78
q70 31 123 71q52 40 98 110q46 68 64 152h34zM816 1585q-50 0 -86 35t-36 85t36 86t86 36t86 -36t36 -86t-36 -85t-86 -35zM431 1585q-50 0 -86 35t-36 85t36 86t86 36t85 -36t35 -86t-35 -85t-85 -35z" />
    <glyph glyph-name="Igrave" unicode="&#xcc;" horiz-adv-x="794" 
d="M319 1839l347 -334h-76l-500 262zM76 1442h645v-35q-72 0 -123 -46t-51 -136v-975q0 -100 52 -158t122 -57v-35h-645v35q70 0 122 57t52 158v975q0 90 -50 136t-124 46v35z" />
    <glyph glyph-name="Iacute" unicode="&#xcd;" horiz-adv-x="794" 
d="M109 1505l346 334l229 -72l-500 -262h-75zM721 1442v-35q-72 0 -123 -46t-51 -136v-975q0 -100 52 -158t122 -57v-35h-645v35q70 0 122 57t52 158v975q0 90 -50 136t-124 46v35h645z" />
    <glyph glyph-name="Icircumflex" unicode="&#xce;" horiz-adv-x="794" 
d="M156 1505h-74l317 383l318 -383h-76l-242 158zM76 1442h645v-35q-72 0 -123 -46t-51 -136v-975q0 -100 52 -158t122 -57v-35h-645v35q70 0 122 57t52 158v975q0 90 -50 136t-124 46v35z" />
    <glyph glyph-name="Idieresis" unicode="&#xcf;" horiz-adv-x="794" 
d="M721 1442v-35q-72 0 -123 -46t-51 -136v-975q0 -100 52 -158t122 -57v-35h-645v35q70 0 122 57t52 158v975q0 90 -50 136t-124 46v35h645zM593 1585q-50 0 -86 35t-36 85t36 86t86 36t86 -36t36 -86t-36 -85t-86 -35zM208 1585q-50 0 -86 35t-36 85t36 86t86 36t85 -36
t35 -86t-35 -85t-85 -35z" />
    <glyph glyph-name="Eth" unicode="&#xd0;" horiz-adv-x="1564" 
d="M608 35q225 0 327 102q114 117 150 306q23 118 23 272q0 307 -85 461t-191 192q-106 39 -224 39h-90v-668h299v-37h-299v-667h90zM70 702v37h151v420q0 98 -44 173t-109 75v35h540q456 0 675 -211q81 -78 132 -210t51 -306q0 -715 -858 -715h-540v35q66 1 110 71t43 175
v421h-151z" />
    <glyph glyph-name="Ntilde" unicode="&#xd1;" horiz-adv-x="1720" 
d="M1065 1442h621v-35q-86 0 -150 -49t-92 -121q-57 -141 -64 -266v-971h-108l-895 1124v-602q0 -178 59 -318q27 -65 84 -117t137 -52v-35h-622v35q86 0 149 50t92 122q59 147 64 264l2 51v639l-80 101q-106 133 -185 142q-27 3 -59 3v35h502l826 -1018v498q0 154 -47 282
q-75 203 -234 203v35zM958 1536l-245 88q-119 29 -219 -17q-63 -30 -88 -81l-31 12q41 100 96 165t105 87q103 44 165 29l27 -7l244 -90q66 -23 169 3t140 102l31 -17q-42 -100 -98 -164t-105 -86q-100 -44 -164 -30z" />
    <glyph glyph-name="Ograve" unicode="&#xd2;" horiz-adv-x="1589" 
d="M721 1839l346 -334h-76l-499 262zM790 16q128 0 200 56q152 117 153 641q0 525 -152 651q-75 61 -201 61t-201 -61t-115 -219t-40 -434t40 -430q40 -153 114 -209t202 -56zM791 1460q326 0 516 -216t190 -532t-189 -524t-517 -206q-328 0 -518 206q-189 208 -189 524
t190 532q191 216 517 216z" />
    <glyph glyph-name="Oacute" unicode="&#xd3;" horiz-adv-x="1589" 
d="M790 16q128 0 200 56q152 117 153 641q0 525 -152 651q-75 61 -201 61t-201 -61t-115 -219t-40 -434t40 -430q40 -153 114 -209t202 -56zM791 1460q326 0 516 -216t190 -532t-189 -524t-517 -206q-328 0 -518 206q-189 208 -189 524t190 532q191 216 517 216zM504 1505
l346 334l229 -72l-499 -262h-76z" />
    <glyph glyph-name="Ocircumflex" unicode="&#xd4;" horiz-adv-x="1589" 
d="M555 1505h-74l318 383l317 -383h-76l-241 158zM790 16q128 0 200 56q152 117 153 641q0 525 -152 651q-75 61 -201 61t-201 -61t-115 -219t-40 -434t40 -430q40 -153 114 -209t202 -56zM791 1460q326 0 516 -216t190 -532t-189 -524t-517 -206q-328 0 -518 206
q-189 208 -189 524t190 532q191 216 517 216z" />
    <glyph glyph-name="Otilde" unicode="&#xd5;" horiz-adv-x="1589" 
d="M790 16q128 0 200 56q152 117 153 641q0 525 -152 651q-75 61 -201 61t-201 -61t-115 -219t-40 -434t40 -430q40 -153 114 -209t202 -56zM791 1460q326 0 516 -216t190 -532t-189 -524t-517 -206q-328 0 -518 206q-189 208 -189 524t190 532q191 216 517 216zM895 1536
l-246 88q-118 29 -219 -17q-63 -30 -88 -81l-31 12q41 100 97 165t105 87q101 44 165 29l27 -7l243 -90q66 -23 169 3t140 102l31 -17q-41 -100 -97 -164q-55 -64 -105 -86q-101 -44 -164 -30z" />
    <glyph glyph-name="Odieresis" unicode="&#xd6;" horiz-adv-x="1589" 
d="M790 16q128 0 200 56q152 117 153 641q0 525 -152 651q-75 61 -201 61t-201 -61t-115 -219t-40 -434t40 -430q40 -153 114 -209t202 -56zM791 1460q326 0 516 -216t190 -532t-189 -524t-517 -206q-328 0 -518 206q-189 208 -189 524t190 532q191 216 517 216zM986 1585
q-50 0 -86 35t-36 85t36 86t86 36t86 -36t36 -86t-36 -85t-86 -35zM601 1585q-50 0 -86 35t-36 85t36 86t86 36t85 -36t35 -86t-35 -85t-85 -35z" />
    <glyph glyph-name="multiply" unicode="&#xd7;" horiz-adv-x="1228" 
d="M1106 885l-365 -365l365 -364l-127 -129l-365 364l-364 -364l-129 129l364 364l-364 365l129 129l364 -365l365 365z" />
    <glyph glyph-name="Oslash" unicode="&#xd8;" horiz-adv-x="1591" 
d="M798 16q120 0 192 56q152 117 153 639q0 309 -49 475l-598 -983q41 -102 111 -145q71 -42 191 -42zM434 692q0 -294 47 -444l598 983q-41 104 -111 149q-72 45 -188 45t-191 -61t-115 -219q-40 -159 -40 -453zM791 1460q209 0 368 -96l98 162h43l-110 -180
q147 -100 227 -268t80 -367q0 -315 -189 -523t-517 -206q-213 0 -373 92l-88 -146h-43l100 164q-145 96 -224 258t-79 361q0 317 190 533q191 216 517 216z" />
    <glyph glyph-name="Ugrave" unicode="&#xd9;" horiz-adv-x="1540" 
d="M1507 1442v-35q-86 0 -149 -31t-92 -77q-60 -95 -62 -169l-2 -30v-608q0 -124 -36 -220t-89 -149t-147 -97t-234 -44q-217 0 -362 140t-146 382v723q0 90 -46 135t-117 45v35h651v-35q-190 0 -191 -180v-738q-1 -176 97 -280q98 -105 237 -105t243 104t105 284v608
q0 109 -58 200q-26 41 -83 74t-137 33v35h618zM696 1839l346 -334h-75l-500 262z" />
    <glyph glyph-name="Uacute" unicode="&#xda;" horiz-adv-x="1540" 
d="M504 1505l346 334l229 -72l-499 -262h-76zM1507 1442v-35q-86 0 -149 -31t-92 -77q-60 -95 -62 -169l-2 -30v-608q0 -124 -36 -220t-89 -149t-147 -97t-234 -44q-217 0 -362 140t-146 382v723q0 90 -46 135t-117 45v35h651v-35q-190 0 -191 -180v-738q-1 -176 97 -280
q98 -105 237 -105t243 104t105 284v608q0 109 -58 200q-26 41 -83 74t-137 33v35h618z" />
    <glyph glyph-name="Ucircumflex" unicode="&#xdb;" horiz-adv-x="1540" 
d="M1507 1442v-35q-86 0 -149 -31t-92 -77q-60 -95 -62 -169l-2 -30v-608q0 -124 -36 -220t-89 -149t-147 -97t-234 -44q-217 0 -362 140t-146 382v723q0 90 -46 135t-117 45v35h651v-35q-190 0 -191 -180v-738q-1 -176 97 -280q98 -105 237 -105t243 104t105 284v608
q0 109 -58 200q-26 41 -83 74t-137 33v35h618zM535 1505h-74l317 383l318 -383h-76l-242 158z" />
    <glyph glyph-name="Udieresis" unicode="&#xdc;" horiz-adv-x="1540" 
d="M1507 1442v-35q-86 0 -149 -31t-92 -77q-60 -95 -62 -169l-2 -30v-608q0 -124 -36 -220t-89 -149t-147 -97t-234 -44q-217 0 -362 140t-146 382v723q0 90 -46 135t-117 45v35h651v-35q-190 0 -191 -180v-738q-1 -176 97 -280q98 -105 237 -105t243 104t105 284v608
q0 109 -58 200q-26 41 -83 74t-137 33v35h618zM964 1585q-50 0 -86 35t-36 85t36 86t86 36t86 -36t36 -86t-36 -85t-86 -35zM579 1585q-50 0 -86 35t-36 85t36 86t86 36t85 -36q34 -36 34 -86t-34 -85t-85 -35z" />
    <glyph glyph-name="Yacute" unicode="&#xdd;" horiz-adv-x="1579" 
d="M563 1505l346 334l230 -72l-500 -262h-76zM938 1442h614v-35q-252 0 -483 -453l-135 -284v-422q0 -98 52 -156t122 -57v-35h-645v35q70 0 122 57t52 156v317q-227 406 -367 631l-32 51q-41 72 -87 111t-72 45t-61 6v33h654v-33q-92 0 -105 -49q-16 -60 58 -184l288 -471
l138 284q25 49 40 127t14 126t-15 83t-54 59t-98 23v35z" />
    <glyph glyph-name="Thorn" unicode="&#xde;" horiz-adv-x="1361" 
d="M602 358h-74v-110q0 -98 52 -156t120 -57v-35h-645v35q70 0 122 57t52 156v977q0 90 -50 136t-124 46v35h645v-35q-72 0 -122 -46t-50 -136v-45h74q419 0 570 -120q128 -101 127 -296q-1 -194 -121 -286t-347 -110q-98 -10 -229 -10zM528 1145v-752h74q198 0 257 51
q74 66 89 150q35 206 -5 351q-19 73 -48 112q-52 70 -176 84q-43 4 -117 4h-74z" />
    <glyph glyph-name="germandbls" unicode="&#xdf;" horiz-adv-x="1277" 
d="M760 860q104 0 196 -47q93 -47 147 -96t91 -128t37 -173q0 -190 -116 -312t-376 -122q-156 0 -213 71q-54 57 -36 119t62 87q44 23 92 9t73 -58t9 -93t-58 -70q-18 -10 4 -20q22 -11 73 -11t92 29q40 29 60 67q45 86 45 328q0 174 -120 285t-238 111v34q96 0 153 68
t58 254q0 90 -22 154t-44 91q-23 28 -63 43t-52 15h-34q-86 0 -132 -112t-51 -224l-4 -110v-1049h-336v35q53 16 68 67q14 51 14 148v749q0 244 112 387q112 144 343 144t335 -90q41 -37 69 -104q28 -66 28 -148q0 -150 -81 -234q-66 -64 -141 -86q-28 -8 -44 -8z" />
    <glyph glyph-name="agrave" unicode="&#xe0;" horiz-adv-x="1077" 
d="M475 1442l346 -334h-76l-499 262zM872 234q0 -10 8 -48q8 -39 35 -59q27 -21 63 -21t48 35l35 -14q-14 -53 -82 -99t-171 -46t-161 85q-25 34 -31 80q-26 -69 -108 -117t-178 -48q-158 0 -220 106q-26 43 -26 102q0 139 92 194t438 140v127q0 160 -76 231q-77 71 -184 15
q-61 -31 -65 -59q0 -10 6 -11q49 -6 76 -46t19 -86q-8 -45 -49 -73q-40 -28 -88 -19t-75 48q-41 63 5 141t149 132q71 40 170 43l28 -2q188 -1 266 -107t76 -303v-321zM346 242q0 -84 69 -121q29 -15 71 -15t77 31t51 74v276q-268 -59 -268 -245z" />
    <glyph glyph-name="aacute" unicode="&#xe1;" horiz-adv-x="1077" 
d="M289 1108l346 334l229 -72l-499 -262h-76zM872 234q0 -10 8 -48q8 -39 35 -59q27 -21 63 -21t48 35l35 -14q-14 -53 -82 -99t-171 -46t-161 85q-25 34 -31 80q-26 -69 -108 -117t-178 -48q-158 0 -220 106q-26 43 -26 102q0 139 92 194t438 140v127q0 160 -76 231
q-77 71 -184 15q-61 -31 -65 -59q0 -10 6 -11q49 -6 76 -46t19 -86q-8 -45 -49 -73q-40 -28 -88 -19t-75 48q-41 63 5 141t149 132q71 40 170 43l28 -2q188 -1 266 -107t76 -303v-321zM346 242q0 -84 69 -121q29 -15 71 -15t77 31t51 74v276q-268 -59 -268 -245z" />
    <glyph glyph-name="acircumflex" unicode="&#xe2;" horiz-adv-x="1077" 
d="M319 1059h-73l317 383l318 -383h-76l-242 158zM872 234q0 -10 8 -48q8 -39 35 -59q27 -21 63 -21t48 35l35 -14q-14 -53 -82 -99t-171 -46t-161 85q-25 34 -31 80q-26 -69 -108 -117t-178 -48q-158 0 -220 106q-26 43 -26 102q0 139 92 194t438 140v127q0 160 -76 231
q-77 71 -184 15q-61 -31 -65 -59q0 -10 6 -11q49 -6 76 -46t19 -86q-8 -45 -49 -73q-40 -28 -88 -19t-75 48q-41 63 5 141t149 132q71 40 170 43l28 -2q188 -1 266 -107t76 -303v-321zM346 242q0 -84 69 -121q29 -15 71 -15t77 31t51 74v276q-268 -59 -268 -245z" />
    <glyph glyph-name="atilde" unicode="&#xe3;" horiz-adv-x="1077" 
d="M872 234q0 -10 8 -48q8 -39 35 -59q27 -21 63 -21t48 35l35 -14q-14 -53 -82 -99t-171 -46t-161 85q-25 34 -31 80q-26 -69 -108 -117t-178 -48q-158 0 -220 106q-26 43 -26 102q0 139 92 194t438 140v127q0 160 -76 231q-77 71 -184 15q-61 -31 -65 -59q0 -10 6 -11
q49 -6 76 -46t19 -86q-8 -45 -49 -73q-40 -28 -88 -19t-75 48q-41 63 5 141t149 132q71 40 170 43l28 -2q188 -1 266 -107t76 -303v-321zM346 242q0 -84 69 -121q29 -15 71 -15t77 31t51 74v276q-268 -59 -268 -245zM647 1120l-246 88q-120 29 -219 -17q-63 -30 -88 -81
l-31 12q41 100 97 165t105 87q101 44 165 29l27 -6l243 -90q66 -23 169 3t141 101l30 -16q-41 -100 -97 -165q-56 -64 -105 -86q-101 -44 -164 -30z" />
    <glyph glyph-name="adieresis" unicode="&#xe4;" horiz-adv-x="1077" 
d="M872 234q0 -10 8 -48q8 -39 35 -59q27 -21 63 -21t48 35l35 -14q-14 -53 -82 -99t-171 -46t-161 85q-25 34 -31 80q-26 -69 -108 -117t-178 -48q-158 0 -220 106q-26 43 -26 102q0 139 92 194t438 140v127q0 160 -76 231q-77 71 -184 15q-61 -31 -65 -59q0 -10 6 -11
q49 -6 76 -46t19 -86q-8 -45 -49 -73q-40 -28 -88 -19t-75 48q-41 63 5 141t149 132q71 40 170 43l28 -2q188 -1 266 -107t76 -303v-321zM346 242q0 -84 69 -121q29 -15 71 -15t77 31t51 74v276q-268 -59 -268 -245zM868 1261q0 -50 -34 -86t-86 -36q-51 0 -86 36t-35 86
t35 86q35 35 86 35t86 -35q34 -36 34 -86zM483 1261q-1 -50 -35 -86t-86 -36t-86 36t-34 86t34 86q35 35 86 35t87 -35q34 -36 34 -86z" />
    <glyph glyph-name="aring" unicode="&#xe5;" horiz-adv-x="1077" 
d="M872 234q0 -10 8 -48q8 -39 35 -59q27 -21 63 -21t48 35l35 -14q-14 -53 -82 -99t-171 -46t-161 85q-25 34 -31 80q-26 -69 -108 -117t-178 -48q-158 0 -220 106q-26 43 -26 102q0 139 92 194t438 140v127q0 160 -76 231q-77 71 -184 15q-61 -31 -65 -59q0 -10 6 -11
q49 -6 76 -46t19 -86q-8 -45 -49 -73q-40 -28 -88 -19t-75 48q-41 63 5 141t149 132q71 40 170 43l28 -2q188 -1 266 -107t76 -303v-321zM346 242q0 -84 69 -121q29 -15 71 -15t77 31t51 74v276q-268 -59 -268 -245zM545 1430q-51 0 -87 -36t-36 -87t36 -87t87 -36t87 36
t36 87t-36 87t-87 36zM545 1092q-90 0 -153 62q-62 62 -62 152t62 153t152 63t153 -62t63 -153t-62 -153t-153 -62z" />
    <glyph glyph-name="ae" unicode="&#xe6;" horiz-adv-x="1513" 
d="M84 198q0 68 27 117t88 84t143 61t161 46t93 24v121q0 160 -73 230t-179 14q-68 -35 -57 -57q2 -6 6 -7q41 -6 70 -48t21 -88q-8 -45 -49 -73q-40 -28 -88 -19t-75 48q-41 63 -6 123q0 2 6 11t8 15t12 18q11 11 31 35t52 42t76 42t132 28h25q164 0 244 -138
q141 137 284 138q217 0 304 -113t87 -360h-577q18 -289 227 -336q80 -18 162 18t121 94l37 -18q-35 -104 -97 -172q-90 -98 -278 -96q-119 0 -216 63t-140 148q-20 -83 -116 -147t-206 -64q-172 0 -234 106q-26 42 -26 110zM346 242v-16q0 -9 6 -31q24 -89 134 -89
q52 0 94 41q43 41 61 84q-35 74 -43 172l-2 91q-65 -17 -127 -56q-123 -76 -123 -196zM1036 930q-90 0 -138 -121t-48 -283h348q0 404 -162 404z" />
    <glyph glyph-name="ccedilla" unicode="&#xe7;" horiz-adv-x="1021" 
d="M543 -18q-14 0 -31 2l-37 -113q129 31 198 -29t59 -134q-10 -76 -50 -118q-65 -65 -163 -65q-99 0 -148 43q-29 22 -23 56t29 47t49 7q59 -14 49 -75q-2 -19 -10 -25q-9 -6 -5 -13t54 -7t79 30t27 79q-2 47 -52 103t-150 40l61 178q-171 25 -279 171q-108 147 -108 329
t141 329t390 148q166 0 268 -91q63 -56 44 -124t-67 -97t-104 -15q-55 14 -84 64q-29 49 -12 103q12 53 63 82q17 8 -19 25q-118 55 -252 -57q-48 -40 -79 -129t-31 -212q0 -293 260 -350q76 -16 176 16t136 84l28 -18q-27 -98 -131 -181t-276 -83z" />
    <glyph glyph-name="egrave" unicode="&#xe8;" horiz-adv-x="1073" 
d="M467 1442l346 -334h-76l-499 262zM521 -18q-191 0 -319 150t-128 352t134 342t351 139q217 0 323 -117t107 -356h-651q12 -144 80 -228t166 -106t198 10t138 100l34 -18q-31 -102 -137 -185t-296 -83zM338 526h401q0 188 -55 296t-142 108q-88 0 -146 -124t-58 -280z" />
    <glyph glyph-name="eacute" unicode="&#xe9;" horiz-adv-x="1073" 
d="M260 1108l346 334l230 -72l-500 -262h-76zM521 -18q-191 0 -319 150t-128 352t134 342t351 139q217 0 323 -117t107 -356h-651q12 -144 80 -228t166 -106t198 10t138 100l34 -18q-31 -102 -137 -185t-296 -83zM338 526h401q0 188 -55 296t-142 108q-88 0 -146 -124
t-58 -280z" />
    <glyph glyph-name="ecircumflex" unicode="&#xea;" horiz-adv-x="1073" 
d="M283 1059h-74l317 383l318 -383h-76l-242 158zM521 -18q-191 0 -319 150t-128 352t134 342t351 139q217 0 323 -117t107 -356h-651q12 -144 80 -228t166 -106t198 10t138 100l34 -18q-31 -102 -137 -185t-296 -83zM338 526h401q0 188 -55 296t-142 108q-88 0 -146 -124
t-58 -280z" />
    <glyph glyph-name="edieresis" unicode="&#xeb;" horiz-adv-x="1073" 
d="M521 -18q-191 0 -319 150t-128 352t134 342t351 139q217 0 323 -117t107 -356h-651q12 -144 80 -228t166 -106t198 10t138 100l34 -18q-31 -102 -137 -185t-296 -83zM338 526h401q0 188 -55 296t-142 108q-88 0 -146 -124t-58 -280zM848 1261q0 -50 -35 -86t-86 -36
t-86 36t-35 86t35 86q35 35 86 35t86 -36t35 -85zM463 1261q0 -50 -35 -86t-86 -36t-86 36t-35 86t35 86q35 35 86 35t86 -36t35 -85z" />
    <glyph glyph-name="igrave" unicode="&#xec;" horiz-adv-x="577" 
d="M221 1442l346 -334h-75l-500 262zM416 250q0 -98 16 -150t68 -65v-35h-420v35q53 16 67 67t15 148v455q0 53 -20 81t-85 62v35l359 82v-715z" />
    <glyph glyph-name="iacute" unicode="&#xed;" horiz-adv-x="577" 
d="M18 1108l347 334l229 -72l-500 -262h-76zM416 250q0 -98 16 -150t68 -65v-35h-420v35q53 16 67 67t15 148v455q0 53 -20 81t-85 62v35l359 82v-715z" />
    <glyph glyph-name="icircumflex" unicode="&#xee;" horiz-adv-x="577" 
d="M70 1059h-74l317 383l318 -383h-76l-242 158zM416 250q0 -98 16 -150t68 -65v-35h-420v35q53 16 67 67t15 148v455q0 53 -20 81t-85 62v35l359 82v-715z" />
    <glyph glyph-name="idieresis" unicode="&#xef;" horiz-adv-x="577" 
d="M416 250q0 -98 16 -150t68 -65v-35h-420v35q53 16 67 67t15 148v455q0 53 -20 81t-85 62v35l359 82v-715zM594 1261q0 -50 -35 -86t-86 -36t-86 36t-35 86t35 86q35 35 86 35t86 -36t35 -85zM209 1261q0 -50 -35 -86t-86 -36t-86 36t-35 86t35 86q35 35 86 35t86 -36
t35 -85z" />
    <glyph glyph-name="eth" unicode="&#xf0;" horiz-adv-x="1185" 
d="M1108 651q0 -311 -133 -490t-387 -179q-221 0 -366 118q-144 119 -144 346q0 190 95 320t311 129q216 0 300 -141q-6 315 -84 481l-348 -176l-26 28l356 185q-98 154 -307 153v35q260 0 444 -119l211 109l31 -29l-207 -106q254 -218 254 -664zM784 680v4
q-84 150 -213 150q-86 0 -139 -115t-53 -327t48 -294t161 -82q112 0 154 150t42 514z" />
    <glyph glyph-name="ntilde" unicode="&#xf1;" horiz-adv-x="1103" 
d="M975 250q0 -98 16 -150t68 -65v-35h-422v35q53 14 68 66q14 52 14 149v397q0 76 -45 123q-46 47 -114 47t-124 -53t-57 -115v-403q0 -94 17 -146t67 -65v-35h-420v35q53 14 67 63q13 49 13 148v463q1 53 -19 79t-84 60v35l359 82v-220q35 91 136 155t216 64t179 -67
q64 -68 65 -244v-403zM639 1120l-246 88q-120 29 -219 -17q-63 -30 -88 -81l-31 12q41 100 97 165t105 87q101 44 165 29l27 -6l243 -90q66 -23 169 3t140 101l31 -16q-41 -100 -97 -165q-55 -64 -105 -86q-101 -44 -164 -30z" />
    <glyph glyph-name="ograve" unicode="&#xf2;" horiz-adv-x="1136" 
d="M496 1442l346 -334h-76l-500 262zM571 16q111 0 148 90t37 366t-37 368q-37 90 -148 90t-149 -90t-37 -366q-1 -276 37 -368q38 -90 149 -90zM84 474q0 210 131 350t357 141q226 -1 356 -141t131 -351q0 -211 -130 -351q-131 -140 -357 -140t-357 141t-131 351z" />
    <glyph glyph-name="oacute" unicode="&#xf3;" horiz-adv-x="1136" 
d="M305 1108l346 334l230 -72l-500 -262h-76zM571 16q111 0 148 90t37 366t-37 368q-37 90 -148 90t-149 -90t-37 -366q-1 -276 37 -368q38 -90 149 -90zM84 474q0 210 131 350t357 141q226 -1 356 -141t131 -351q0 -211 -130 -351q-131 -140 -357 -140t-357 141t-131 351z
" />
    <glyph glyph-name="ocircumflex" unicode="&#xf4;" horiz-adv-x="1136" 
d="M338 1059h-74l318 383l317 -383h-76l-241 158zM571 16q111 0 148 90t37 366t-37 368q-37 90 -148 90t-149 -90t-37 -366q-1 -276 37 -368q38 -90 149 -90zM84 474q0 210 131 350t357 141q226 -1 356 -141t131 -351q0 -211 -130 -351q-131 -140 -357 -140t-357 141
t-131 351z" />
    <glyph glyph-name="otilde" unicode="&#xf5;" horiz-adv-x="1136" 
d="M571 16q111 0 148 90t37 366t-37 368q-37 90 -148 90t-149 -90t-37 -366q-1 -276 37 -368q38 -90 149 -90zM84 474q0 210 131 350t357 141q226 -1 356 -141t131 -351q0 -211 -130 -351q-131 -140 -357 -140t-357 141t-131 351zM657 1120l-245 88q-121 30 -219 -17
q-63 -30 -89 -81l-30 12q41 100 96 165t105 87q102 44 165 29l27 -6l244 -90q66 -23 169 3t140 101l31 -16q-41 -100 -97 -165q-56 -64 -106 -86q-100 -44 -164 -30z" />
    <glyph glyph-name="odieresis" unicode="&#xf6;" horiz-adv-x="1136" 
d="M571 16q111 0 148 90t37 366t-37 368q-37 90 -148 90t-149 -90t-37 -366q-1 -276 37 -368q38 -90 149 -90zM84 474q0 210 131 350t357 141q226 -1 356 -141t131 -351q0 -211 -130 -351q-131 -140 -357 -140t-357 141t-131 351zM885 1261q0 -50 -35 -86t-86 -36t-86 36
t-35 86t35 86q35 35 86 35t86 -36t35 -85zM500 1261q0 -50 -35 -86t-86 -36t-86 36t-35 86t35 86q35 35 86 35t86 -36t35 -85z" />
    <glyph glyph-name="divide" unicode="&#xf7;" horiz-adv-x="1280" 
d="M778 123q0 -57 -41 -98t-98 -41t-97 41t-40 98t40 97t97 40t98 -40t41 -97zM778 1010q0 -56 -41 -98t-98 -42t-97 41t-40 99t40 98q40 41 97 41t98 -41t41 -98zM1190 471h-1098v191h1098v-191z" />
    <glyph glyph-name="oslash" unicode="&#xf8;" horiz-adv-x="1140" 
d="M571 16q111 0 148 90t37 308t-13 311l-340 -553q18 -88 56 -122t112 -34zM571 930q-111 0 -149 -90t-37 -317q0 -226 10 -306l342 553q-16 90 -54 125t-112 35zM84 473q0 211 131 351t356 141q137 0 250 -60l105 170h35l-115 -184q213 -135 213 -418q0 -211 -130 -351
t-358 -140q-141 0 -249 57l-109 -176h-35l119 192q-102 63 -158 174q-55 111 -55 244z" />
    <glyph glyph-name="ugrave" unicode="&#xf9;" horiz-adv-x="1144" 
d="M496 1442l346 -334h-76l-500 262zM1010 188q0 -72 18 -90t86 -26v-35l-303 -53q-48 -8 -57 39v180q-38 -86 -144 -154q-106 -67 -218 -67t-178 68q-65 68 -64 245v492q0 11 -4 36q-3 25 -9 30q-32 27 -51 30q-20 4 -51 8v35l368 39v-664q0 -170 172 -170q45 0 97 37
q51 37 82 96v488q0 84 -14 108t-83 31v35l353 39v-777z" />
    <glyph glyph-name="uacute" unicode="&#xfa;" horiz-adv-x="1144" 
d="M305 1108l346 334l230 -72l-500 -262h-76zM1010 188q0 -72 18 -90t86 -26v-35l-303 -53q-48 -8 -57 39v180q-38 -86 -144 -154q-106 -67 -218 -67t-178 68q-65 68 -64 245v492q0 11 -4 36q-3 25 -9 30q-32 27 -51 30q-20 4 -51 8v35l368 39v-664q0 -170 172 -170
q45 0 97 37q51 37 82 96v488q0 84 -14 108t-83 31v35l353 39v-777z" />
    <glyph glyph-name="ucircumflex" unicode="&#xfb;" horiz-adv-x="1144" 
d="M324 1059h-74l317 383l318 -383h-76l-242 158zM1010 188q0 -72 18 -90t86 -26v-35l-303 -53q-48 -8 -57 39v180q-38 -86 -144 -154q-106 -67 -218 -67t-178 68q-65 68 -64 245v492q0 11 -4 36q-3 25 -9 30q-32 27 -51 30q-20 4 -51 8v35l368 39v-664q0 -170 172 -170
q45 0 97 37q51 37 82 96v488q0 84 -14 108t-83 31v35l353 39v-777z" />
    <glyph glyph-name="udieresis" unicode="&#xfc;" horiz-adv-x="1144" 
d="M1010 188q0 -72 18 -90t86 -26v-35l-303 -53q-48 -8 -57 39v180q-38 -86 -144 -154q-106 -67 -218 -67t-178 68q-65 68 -64 245v492q0 11 -4 36q-3 25 -9 30q-32 27 -51 30q-20 4 -51 8v35l368 39v-664q0 -170 172 -170q45 0 97 37q51 37 82 96v488q0 84 -14 108t-83 31
v35l353 39v-777zM881 1261q0 -50 -35 -86t-86 -36t-86 36t-35 86t35 86q35 35 86 35t86 -36t35 -85zM496 1261q0 -50 -35 -86t-86 -36t-86 36t-35 86t35 86q35 35 86 35t86 -36t35 -85z" />
    <glyph glyph-name="yacute" unicode="&#xfd;" horiz-adv-x="1107" 
d="M266 1108l346 334l230 -72l-500 -262h-76zM676 946h401v-35q-92 0 -168 -121q-55 -88 -100 -198l-313 -825q-57 -152 -154 -228q-29 -25 -75 -31t-91 15t-65 76t2 108q25 53 80 75t107 -2t71 -85q8 -25 39 -1t51 77l78 211l-387 849q-33 80 -129 80v35h483v-35
q-47 0 -61 -31q-13 -32 -3 -63l11 -31l217 -462l108 276q17 34 29 98t8 106t-39 75t-100 32v35z" />
    <glyph glyph-name="thorn" unicode="&#xfe;" horiz-adv-x="1228" 
d="M702 965q182 -1 310 -135t127 -368q1 -234 -139 -358q-140 -123 -365 -122q-145 0 -244 63v-354q1 -95 17 -141t67 -58v-35h-420v35q53 16 67 62t15 137v1575q0 51 -19 70t-83 44v35l356 82v-698q45 82 136 124t175 42zM642 16q102 0 153 100t51 336t-58 336t-186 101
q-88 -1 -143 -63t-68 -158v-375q12 -143 81 -210q68 -67 170 -67z" />
    <glyph glyph-name="ydieresis" unicode="&#xff;" horiz-adv-x="1107" 
d="M676 946h401v-35q-92 0 -168 -121q-55 -88 -100 -198l-313 -825q-57 -152 -154 -228q-29 -25 -75 -31t-91 15t-65 76t2 108q25 53 80 75t107 -2t71 -85q8 -25 39 -1t51 77l78 211l-387 849q-33 80 -129 80v35h483v-35q-47 0 -61 -31q-13 -32 -3 -63l11 -31l217 -462
l108 276q17 34 29 98t8 106t-39 75t-100 32v35zM866 1261q0 -50 -35 -86t-86 -36t-86 36t-35 86t35 86q35 35 86 35t86 -36t35 -85zM481 1261q0 -50 -35 -86t-86 -36t-86 36q-34 36 -34 86t34 86q35 35 86 35t86 -36t35 -85z" />
    <glyph glyph-name="Abreve" unicode="&#x102;" horiz-adv-x="1449" 
d="M348 438h467l-244 598zM1421 0h-585v35q44 1 66 23t22 70t-25 103l-72 172h-485q-2 -8 -6 -21q-35 -112 -10 -208q35 -150 213 -139v-35h-504v35q25 2 34 4q9 3 37 25q77 61 234 444l354 934h35l520 -1258q30 -76 50 -96t29 -30q22 -23 93 -23v-35zM471 1872
q0 -150 241 -150t240 150h35q1 -129 -67 -216t-206 -87t-208 87t-70 216h35z" />
    <glyph glyph-name="abreve" unicode="&#x103;" horiz-adv-x="1079" 
d="M299 1442q0 -150 241 -150t240 150h35q1 -129 -67 -216t-206 -87t-208 87t-70 216h35zM872 234q0 -10 8 -48q8 -39 35 -59q27 -21 63 -21t48 35l35 -14q-14 -53 -82 -99t-171 -46t-161 85q-25 34 -31 80q-26 -69 -108 -117t-178 -48q-158 0 -220 106q-26 43 -26 102
q0 139 92 194t438 140v127q0 160 -76 231q-77 71 -184 15q-61 -31 -65 -59q0 -10 6 -11q49 -6 76 -46t19 -86q-8 -45 -49 -73q-40 -28 -88 -19t-75 48q-41 63 5 141t149 132q71 40 170 43l28 -2q188 -1 266 -107t76 -303v-321zM346 242q0 -84 69 -121q29 -15 71 -15t77 31
t51 74v276q-268 -59 -268 -245z" />
    <glyph glyph-name="Aogonek" unicode="&#x104;" horiz-adv-x="1449" 
d="M348 438h467l-244 598zM1421 0h-127q-172 -100 -141 -219q10 -39 42 -57t58 -17l27 2q61 10 61 72h35q0 -41 -5 -67t-35 -56t-86 -38q-104 -17 -161 22q-45 28 -57 63l-6 12q-49 176 174 283h-364v35q44 1 66 23t22 70t-25 103l-72 172h-485q-2 -8 -6 -21
q-35 -112 -10 -208q35 -150 213 -139v-35h-504v35q25 2 34 4q9 3 37 25q77 61 234 444l354 934h35l520 -1258q30 -76 50 -96t29 -30q22 -23 93 -23v-35z" />
    <glyph glyph-name="aogonek" unicode="&#x105;" horiz-adv-x="1079" 
d="M346 242q0 -84 69 -121q29 -15 71 -15t77 31t51 74v276q-268 -59 -268 -245zM872 234q0 -10 8 -48q8 -39 35 -59q27 -21 63 -21t48 35l35 -14q-11 -47 -63 -88t-126 -53q-141 -94 -114 -203q10 -39 42 -57t58 -17l27 2q61 10 61 72h35q0 -41 -5 -67t-35 -56t-86 -38
q-139 -22 -201 54q-17 20 -23 43q-43 166 145 269q-143 27 -160 159q-26 -69 -108 -117t-178 -48q-158 0 -220 106q-26 43 -26 102q0 139 92 194t438 140v127q0 160 -76 231q-77 71 -184 15q-61 -31 -65 -59q0 -10 6 -11q49 -6 76 -46t19 -86q-8 -45 -49 -73
q-40 -28 -88 -19t-75 48q-41 63 5 141t149 132q71 40 170 43l28 -2q188 -1 266 -107t76 -303v-321z" />
    <glyph glyph-name="Cacute" unicode="&#x106;" horiz-adv-x="1406" 
d="M457 1505l346 334l229 -72l-500 -262h-75zM793 1460q377 0 530 -125l-29 -321h-34q-90 217 -194 314t-273 97q-121 0 -192 -58q-152 -124 -151 -647t154 -646q72 -57 189 -58q176 0 300 118t167 296h34l29 -321q-109 -72 -233 -100t-297 -27q-322 0 -517 212t-194 527
q0 315 194 527q195 212 517 212z" />
    <glyph glyph-name="cacute" unicode="&#x107;" horiz-adv-x="1024" 
d="M289 1108l346 334l229 -72l-499 -262h-76zM532 -18q-182 0 -311 152t-129 344t141 339t390 148q166 0 268 -91q63 -56 44 -124t-67 -97t-104 -15q-55 14 -84 64q-29 49 -12 103q12 53 63 82q17 8 -19 25q-118 55 -252 -57q-48 -40 -79 -129t-31 -212q0 -293 260 -350
q76 -16 176 16t136 84l28 -18q-27 -98 -131 -181q-105 -83 -287 -83z" />
    <glyph glyph-name="Ccaron" unicode="&#x10c;" horiz-adv-x="1406" 
d="M463 1888h74l243 -157l242 157h76l-318 -383zM793 1460q377 0 530 -125l-29 -321h-34q-90 217 -194 314t-273 97q-121 0 -192 -58q-152 -124 -151 -647t154 -646q72 -57 189 -58q176 0 300 118t167 296h34l29 -321q-109 -72 -233 -100t-297 -27q-322 0 -517 212t-194 527
q0 315 194 527q195 212 517 212z" />
    <glyph glyph-name="ccaron" unicode="&#x10d;" horiz-adv-x="1024" 
d="M262 1442h74l244 -158l241 158h76l-317 -383zM532 -18q-182 0 -311 152t-129 344t141 339t390 148q166 0 268 -91q63 -56 44 -124t-67 -97t-104 -15q-55 14 -84 64q-29 49 -12 103q12 53 63 82q17 8 -19 25q-118 55 -252 -57q-48 -40 -79 -129t-31 -212q0 -293 260 -350
q76 -16 176 16t136 84l28 -18q-27 -98 -131 -181q-105 -83 -287 -83z" />
    <glyph glyph-name="Dcaron" unicode="&#x10e;" horiz-adv-x="1572" 
d="M616 35q227 0 334 109q169 172 166 571q0 311 -85 462q-85 152 -190 191t-225 39h-90v-1372h90zM616 1442q458 0 676 -211q80 -78 131 -210t52 -306q0 -715 -859 -715h-540v35q66 1 110 71t43 175v878q0 98 -44 173t-109 75v35h540zM350 1888h74l244 -157l241 157h76
l-317 -383z" />
    <glyph glyph-name="dcaron" unicode="&#x10f;" horiz-adv-x="1492" 
d="M1071 199q1 -76 21 -102t84 -34v-34l-302 -45q-50 -8 -57 36v127q-45 -81 -136 -123t-177 -42q-182 0 -309 136t-127 372t138 355q138 120 365 120q141 0 246 -62v391q0 53 -20 77t-84 46v35l358 76v-1329zM817 299v289q0 178 -72 260q-71 82 -179 82t-158 -97t-50 -335
t54 -341t168 -103t176 68t61 177zM1227 1442h198q1 -78 -27 -151t-89 -146t-125 -113l-29 -18l-27 30q10 8 27 31q16 23 44 125t28 242z" />
    <glyph glyph-name="Dcroat" unicode="&#x110;" horiz-adv-x="1572" 
d="M616 35q227 0 334 109q169 172 166 571q0 311 -85 462q-85 152 -190 191t-225 39h-90v-659h299v-35h-299v-678h90zM78 713v35h151v411q0 98 -44 173t-109 75v35h540q458 0 676 -211q80 -78 131 -210t52 -306q0 -715 -859 -715h-540v35q66 1 110 71t43 175v432h-151z" />
    <glyph glyph-name="dcroat" unicode="&#x111;" horiz-adv-x="1251" 
d="M817 299v289q0 178 -72 260q-71 82 -179 82t-158 -97t-50 -335t54 -341t168 -103t176 68t61 177zM608 1163v35h209v96q0 53 -20 77t-84 46v35l358 76v-330h182v-35h-182v-964q1 -76 21 -102t84 -34v-34l-302 -45q-50 -8 -57 36v127q-45 -81 -136 -123t-177 -42
q-182 0 -309 136t-127 372t138 355q138 120 365 120q141 0 246 -62v260h-209z" />
    <glyph glyph-name="Eogonek" unicode="&#x118;" horiz-adv-x="1337" 
d="M1208 446v-446h-80q-178 -100 -147 -223q10 -39 42 -57t58 -17l27 2q61 10 61 72h35q0 -41 -5 -67t-35 -56t-86 -38q-103 -17 -155 16t-63 69l-6 12q-47 180 182 287h-981v35q119 0 119 246v878q0 248 -119 248v35h1127v-389h-35q-12 98 -80 172q-68 75 -154 107
q-176 66 -311 73l-57 2h-74v-662h74q111 -1 207 45q44 20 81 65q38 44 44 103h34v-460h-34q-15 152 -222 199q-47 11 -77 12l-33 2h-74v-676h74q168 0 344 78q70 31 123 71q52 40 98 110q46 68 64 152h34z" />
    <glyph glyph-name="eogonek" unicode="&#x119;" horiz-adv-x="1073" 
d="M338 526h401q0 188 -55 296t-142 108q-88 0 -146 -124t-58 -280zM559 965q217 0 323 -117t107 -356h-651q12 -144 80 -228t166 -106t198 10t138 100l34 -18q-30 -92 -120 -171t-246 -93q-150 -96 -123 -209q10 -39 42 -57t58 -17l27 2q61 10 61 72h35q0 -41 -5 -67
t-35 -56t-86 -38q-139 -22 -201 54q-13 16 -17 31l-6 12q-45 172 149 273q-180 16 -297 160t-116 323q0 217 134 357t351 139z" />
    <glyph glyph-name="Ecaron" unicode="&#x11a;" horiz-adv-x="1337" 
d="M350 1888h74l244 -157l241 157h76l-317 -383zM1208 446v-446h-1153v35q119 0 119 246v878q0 248 -119 248v35h1127v-389h-35q-12 98 -80 172q-68 75 -154 107q-176 66 -311 73l-57 2h-74v-662h74q111 -1 207 45q44 20 81 65q38 44 44 103h34v-460h-34q-15 152 -222 199
q-47 11 -77 12l-33 2h-74v-676h74q168 0 344 78q70 31 123 71q52 40 98 110q46 68 64 152h34z" />
    <glyph glyph-name="ecaron" unicode="&#x11b;" horiz-adv-x="1073" 
d="M221 1442h74l244 -158l241 158h76l-317 -383zM521 -18q-191 0 -319 150t-128 352t134 342t351 139q217 0 323 -117t107 -356h-651q12 -144 80 -228t166 -106t198 10t138 100l34 -18q-31 -102 -137 -185t-296 -83zM338 526h401q0 188 -55 296t-142 108q-88 0 -146 -124
t-58 -280z" />
    <glyph glyph-name="dotlessi" unicode="&#x131;" horiz-adv-x="577" 
d="M416 250q0 -98 16 -150t68 -65v-35h-420v35q53 16 67 67t15 148v455q0 53 -20 81t-85 62v35l359 82v-715z" />
    <glyph glyph-name="Lacute" unicode="&#x139;" horiz-adv-x="1366" 
d="M1239 444v-444h-1163v35q66 0 106 62t39 167v961q0 90 -46 136t-116 46v35h650v-35q-190 0 -191 -182v-1190h74q175 0 329 70q245 112 283 339h35zM332 1505l346 334l229 -72l-499 -262h-76z" />
    <glyph glyph-name="lacute" unicode="&#x13a;" horiz-adv-x="542" 
d="M-16 1565l346 333l229 -71l-500 -262h-75zM406 248q0 -96 16 -148t65 -65v-35h-419v35q53 14 67 65t15 148v1036q0 55 -20 83t-83 50v35l359 76v-1280z" />
    <glyph glyph-name="Lcaron" unicode="&#x13d;" horiz-adv-x="1366" 
d="M1239 444v-444h-1163v35q66 0 106 62t39 167v961q0 90 -46 136t-116 46v35h650v-35q-190 0 -191 -182v-1190h74q175 0 329 70q245 112 283 339h35zM774 1442h199q0 -78 -28 -151t-90 -148t-126 -111l-27 -18l-26 30q10 8 26 31t44 125t28 242z" />
    <glyph glyph-name="lcaron" unicode="&#x13e;" horiz-adv-x="864" 
d="M406 248q0 -96 16 -148t65 -65v-35h-419v35q53 14 67 65t15 148v1036q0 55 -20 83t-83 50v35l359 76v-1280zM551 1442h199q0 -78 -28 -151t-89 -146t-125 -113l-29 -18l-26 30q10 8 26 31t44 125t28 242z" />
    <glyph glyph-name="Lslash" unicode="&#x141;" horiz-adv-x="1384" 
d="M1292 446v-446h-1165v35q63 1 104 71t41 177v288l-245 -137v41l245 137v613q0 90 -45 136t-116 46v35h651v-35q-190 0 -191 -182v-445l398 226v-41l-398 -226v-704h74q230 0 365 81t184 168t59 140l4 22h35z" />
    <glyph glyph-name="lslash" unicode="&#x142;" horiz-adv-x="677" 
d="M207 1284q-1 55 -21 83t-82 50v35l359 76v-649l182 118v-41l-182 -118v-590q0 -96 16 -148t66 -65v-35h-420v35q53 14 68 65q14 51 14 148v424l-184 -119v41l184 119v571z" />
    <glyph glyph-name="Nacute" unicode="&#x143;" horiz-adv-x="1720" 
d="M1065 1442h621v-35q-86 0 -150 -49t-92 -121q-57 -141 -64 -266v-971h-108l-895 1124v-602q0 -178 59 -318q27 -65 84 -117t137 -52v-35h-622v35q86 0 149 50t92 122q59 147 64 264l2 51v639l-80 101q-106 133 -185 142q-27 3 -59 3v35h502l826 -1018v498q0 154 -47 282
q-75 203 -234 203v35zM582 1505l346 334l229 -72l-500 -262h-75z" />
    <glyph glyph-name="nacute" unicode="&#x144;" horiz-adv-x="1103" 
d="M315 1108l347 334l229 -72l-500 -262h-76zM975 250q0 -98 16 -150t68 -65v-35h-422v35q53 14 68 66q14 52 14 149v397q0 76 -45 123q-46 47 -114 47t-124 -53t-57 -115v-403q0 -94 17 -146t67 -65v-35h-420v35q53 14 67 63q13 49 13 148v463q1 53 -19 79t-84 60v35
l359 82v-220q35 91 136 155t216 64t179 -67q64 -68 65 -244v-403z" />
    <glyph glyph-name="Ncaron" unicode="&#x147;" horiz-adv-x="1720" 
d="M549 1888h74l243 -157l242 157h76l-318 -383zM1065 1442h621v-35q-86 0 -150 -49t-92 -121q-57 -141 -64 -266v-971h-108l-895 1124v-602q0 -178 59 -318q27 -65 84 -117t137 -52v-35h-622v35q86 0 149 50t92 122q59 147 64 264l2 51v639l-80 101q-106 133 -185 142
q-27 3 -59 3v35h502l826 -1018v498q0 154 -47 282q-75 203 -234 203v35z" />
    <glyph glyph-name="ncaron" unicode="&#x148;" horiz-adv-x="1103" 
d="M270 1442h74l244 -158l241 158h76l-317 -383zM975 250q0 -98 16 -150t68 -65v-35h-422v35q53 14 68 66q14 52 14 149v397q0 76 -45 123q-46 47 -114 47t-124 -53t-57 -115v-403q0 -94 17 -146t67 -65v-35h-420v35q53 14 67 63q13 49 13 148v463q1 53 -19 79t-84 60v35
l359 82v-220q35 91 136 155t216 64t179 -67q64 -68 65 -244v-403z" />
    <glyph glyph-name="Ohungarumlaut" unicode="&#x150;" horiz-adv-x="1587" 
d="M850 1505l346 334l229 -72l-499 -262h-76zM481 1505l346 334l230 -72l-500 -262h-76zM790 16q128 0 200 56q152 117 153 641q0 525 -152 651q-75 61 -201 61t-201 -61t-115 -219t-40 -434t40 -430q40 -153 114 -209t202 -56zM791 1460q326 0 516 -216t190 -532t-189 -524
t-517 -206q-328 0 -518 206q-189 208 -189 524t190 532q191 216 517 216z" />
    <glyph glyph-name="ohungarumlaut" unicode="&#x151;" horiz-adv-x="1138" 
d="M598 1108l346 334l230 -72l-500 -262h-76zM229 1108l346 334l230 -72l-500 -262h-76zM571 16q111 0 148 90t37 366t-37 368q-37 90 -148 90t-149 -90t-37 -366q-1 -276 37 -368q38 -90 149 -90zM84 474q0 210 131 350t357 141q226 -1 356 -141t131 -351q0 -211 -130 -351
q-131 -140 -357 -140t-357 141t-131 351z" />
    <glyph glyph-name="OE" unicode="&#x152;" horiz-adv-x="2056" 
d="M1346 35q148 0 298 76q60 31 107 73t86 110q39 69 55 152h35v-446h-1020q-100 -18 -153 -18q-324 0 -495 204t-171 526q0 324 172 536t494 212q68 0 147 -18h1000v-389h-35q-27 147 -133 229q-106 81 -211 103q-104 22 -152 22h-98v-662h74q145 0 215 108q29 44 34 105
h35v-460h-35q-12 120 -89 164t-138 47l-22 2h-74v-676h74zM975 281v878q0 190 -74 234q-39 23 -67 27t-80 5q-184 0 -250 -147t-66 -567q0 -287 30 -433t94 -204q65 -58 178 -58t136 16t50 42q49 49 49 207z" />
    <glyph glyph-name="oe" unicode="&#x153;" horiz-adv-x="1601" 
d="M513 -18q-205 0 -317 136t-112 352t113 355t323 139t320 -141q141 141 288 142q205 0 297 -117t93 -361h-564q11 -287 204 -329q91 -20 173 16t123 94l39 -20q-27 -96 -81 -156q-99 -111 -269 -111q-169 1 -305 134q-121 -133 -325 -133zM674 467q0 285 -27 374t-120 89
t-117 -86t-25 -375q0 -289 25 -371q26 -82 120 -82t119 83t25 368zM954 522h334q0 408 -160 408q-88 0 -131 -120t-43 -288z" />
    <glyph glyph-name="Racute" unicode="&#x154;" horiz-adv-x="1490" 
d="M545 692q139 0 171 10q84 28 101 49q52 61 70 125t18 157q0 243 -80 307q-31 26 -64 44t-97 21q-64 2 -119 2h-64v-715h64zM1477 0h-238q-91 0 -199 16q-14 2 -44 26t-34 35q-5 11 -27 57t-32 89t-69 223q-30 94 -94 146t-113 59l-49 6h-97v-409q0 -100 42 -156t110 -57
v-35h-596v35q67 0 107 55t40 158v977q0 182 -147 182v35h508q272 0 392 -32t176 -74q126 -94 126 -279q0 -183 -101 -269t-298 -108q115 12 221 -89t176 -355q17 -72 69 -120q81 -76 171 -81v-35zM375 1505l346 334l229 -72l-499 -262h-76z" />
    <glyph glyph-name="racute" unicode="&#x155;" horiz-adv-x="870" 
d="M168 1108l346 334l229 -72l-499 -262h-76zM549 797q0 20 -43 0q-61 -33 -117 -121v-426q1 -98 17 -150t67 -65v-35h-424v35q53 16 68 66q14 50 14 149v455q0 53 -20 83t-82 60v35l360 82v-232q49 78 103 129q54 52 76 64q24 12 59 27t86 9t91 -41q40 -34 44 -99
q4 -64 -37 -110t-103 -52t-112 36q-47 43 -47 101z" />
    <glyph glyph-name="Rcaron" unicode="&#x158;" horiz-adv-x="1490" 
d="M545 692q139 0 171 10q84 28 101 49q52 61 70 125t18 157q0 243 -80 307q-31 26 -64 44t-97 21q-64 2 -119 2h-64v-715h64zM1477 0h-238q-91 0 -199 16q-14 2 -44 26t-34 35q-5 11 -27 57t-32 89t-69 223q-30 94 -94 146t-113 59l-49 6h-97v-409q0 -100 42 -156t110 -57
v-35h-596v35q67 0 107 55t40 158v977q0 182 -147 182v35h508q272 0 392 -32t176 -74q126 -94 126 -279q0 -183 -101 -269t-298 -108q115 12 221 -89t176 -355q17 -72 69 -120q81 -76 171 -81v-35zM307 1888h74l244 -157l241 157h76l-317 -383z" />
    <glyph glyph-name="rcaron" unicode="&#x159;" horiz-adv-x="870" 
d="M92 1444h74l244 -158l241 158h76l-317 -383zM549 797q0 20 -43 0q-61 -33 -117 -121v-426q1 -98 17 -150t67 -65v-35h-424v35q53 16 68 66q14 50 14 149v455q0 53 -20 83t-82 60v35l360 82v-232q49 78 103 129q54 52 76 64q24 12 59 27t86 9t91 -41q40 -34 44 -99
q4 -64 -37 -110t-103 -52t-112 36q-47 43 -47 101z" />
    <glyph glyph-name="Sacute" unicode="&#x15a;" horiz-adv-x="1261" 
d="M94 502h35q64 -183 100 -231q106 -143 171 -182q120 -73 255 -73q80 0 132 50q51 50 63 122q12 70 -28 156t-130 152l-315 198q-469 295 -230 611q13 20 70 65t160 68q104 22 227 22t255 -24t185 -50l54 -24v-344h-35q-66 186 -187 297q-50 45 -132 78t-168 33
q-87 0 -140 -46q-116 -99 -36 -257q42 -81 137 -142l315 -209q280 -184 298 -401q9 -111 -69 -221l-12 -18q-8 -11 -43 -41q-127 -109 -413 -109q-134 0 -274 32t-192 64l-53 31v393zM340 1505l346 334l229 -72l-499 -262h-76z" />
    <glyph glyph-name="sacute" unicode="&#x15b;" horiz-adv-x="909" 
d="M203 1108l346 334l229 -72l-499 -262h-76zM729 674q-88 256 -303 256q-49 0 -83 -27t-41 -65t21 -88q28 -49 91 -91l207 -129q137 -86 177 -206t-36 -232q-8 -12 -28 -30t-93 -50q-73 -30 -175 -30t-194 24t-129 47l-39 23v258h35q3 -4 13 -32t25 -67t32 -62t37 -50
t65 -58q66 -46 151 -48q85 -1 117 49t8 120q-24 68 -98 117l-206 125q-150 90 -187 207t47 227q100 100 244 102q247 3 346 -46l31 -15v-229h-35z" />
    <glyph glyph-name="Scedilla" unicode="&#x15e;" horiz-adv-x="1261" 
d="M655 -18h-39l-36 -111q130 31 198 -29t59 -134q-9 -76 -51 -118q-66 -66 -163 -65q-98 0 -148 43q-29 22 -23 56t29 47t49 7q59 -14 50 -75q-2 -18 -14 -27t8 -14q20 -4 58 -4t66 30t26 79q-1 47 -51 103t-151 40l60 174q-154 6 -276 38t-167 60l-45 27v393h35
q64 -183 100 -231q106 -143 171 -182q120 -73 255 -73q80 0 132 50q51 50 63 122q12 70 -28 156t-130 152l-315 198q-469 295 -230 611q13 20 70 65t160 68q104 22 227 22t255 -24t185 -50l54 -24v-344h-35q-66 186 -187 297q-50 45 -132 78t-168 33q-87 0 -140 -46
q-116 -99 -36 -257q42 -81 137 -142l315 -209q280 -184 298 -401q9 -111 -69 -221l-12 -18q-8 -11 -43 -41q-127 -109 -371 -109z" />
    <glyph glyph-name="scedilla" unicode="&#x15f;" horiz-adv-x="909" 
d="M729 674q-88 256 -303 256q-49 0 -83 -27t-41 -65t21 -88q28 -49 91 -91l207 -129q137 -86 177 -206t-36 -232q-8 -12 -28 -30t-93 -50q-74 -31 -166 -30h-14l-37 -111q129 31 198 -29q70 -60 60 -134q-10 -76 -51 -118q-65 -66 -163 -65q-99 0 -149 43q-29 22 -23 56
t30 47q23 13 49 7q59 -14 49 -75q-2 -19 -10 -25t-4 -13t54 -7t78 30t26 79q-2 47 -51 103q-50 56 -150 40l59 174q-96 4 -176 28t-113 43l-33 21v258h35q3 -4 13 -32t25 -67t32 -62t37 -50t65 -58q66 -46 151 -48q85 -1 117 49t8 120q-24 68 -98 117l-206 125
q-150 90 -187 207t47 227q100 100 244 102q247 3 346 -46l31 -15v-229h-35z" />
    <glyph glyph-name="Scaron" unicode="&#x160;" horiz-adv-x="1261" 
d="M94 502h35q64 -183 100 -231q106 -143 171 -182q120 -73 255 -73q80 0 132 50q51 50 63 122q12 70 -28 156t-130 152l-315 198q-469 295 -230 611q13 20 70 65t160 68q104 22 227 22t255 -24t185 -50l54 -24v-344h-35q-66 186 -187 297q-50 45 -132 78t-168 33
q-87 0 -140 -46q-116 -99 -36 -257q42 -81 137 -142l315 -209q280 -184 298 -401q9 -111 -69 -221l-12 -18q-8 -11 -43 -41q-127 -109 -413 -109q-134 0 -274 32t-192 64l-53 31v393zM281 1888h73l244 -157l242 157h75l-317 -383z" />
    <glyph glyph-name="scaron" unicode="&#x161;" horiz-adv-x="909" 
d="M729 674q-88 256 -303 256q-49 0 -83 -27t-41 -65t21 -88q28 -49 91 -91l207 -129q137 -86 177 -206t-36 -232q-8 -12 -28 -30t-93 -50q-73 -30 -175 -30t-194 24t-129 47l-39 23v258h35q3 -4 13 -32t25 -67t32 -62t37 -50t65 -58q66 -46 151 -48q85 -1 117 49t8 120
q-24 68 -98 117l-206 125q-150 90 -187 207t47 227q100 100 244 102q247 3 346 -46l31 -15v-229h-35zM131 1397h74l244 -158l241 158h76l-317 -383z" />
    <glyph glyph-name="uni0162" unicode="&#x162;" horiz-adv-x="1429" 
d="M39 1442h1347v-412h-34q-4 102 -52 179t-116 113q-136 74 -240 83l-45 2h-39v-1159q0 -98 52 -156t122 -57v-35h-334l-38 -119q130 31 198 -28t59 -135t-51 -117q-67 -66 -164 -66q-98 0 -147 43q-29 23 -23 57t29 47t49 7q59 -14 50 -76q-2 -18 -14 -27t8 -14
q20 -4 58 -4t65 31q28 31 27 79t-51 102q-50 56 -151 40l62 180h-277v35q70 0 122 57t52 156v1159h-39q-56 0 -141 -25q-86 -24 -145 -60q-60 -36 -110 -113t-54 -179h-35v412z" />
    <glyph glyph-name="uni0163" unicode="&#x163;" horiz-adv-x="724" 
d="M551 127q80 0 123 72l31 -19q-33 -78 -119 -138t-185 -60q-25 0 -65 4l-35 -105q129 31 198 -28t59 -135t-50 -117q-66 -66 -164 -66t-147 43q-29 23 -23 57t29 47t49 7q59 -14 49 -76q-2 -19 -10 -25q-9 -6 -5 -13t54 -7t79 31t27 79t-52 102q-50 56 -150 40l59 174
q-80 18 -120 89t-40 212v616h-102l-6 35h108v275l256 43v-318h244l-8 -35h-236v-610q0 -174 152 -174z" />
    <glyph glyph-name="Tcaron" unicode="&#x164;" horiz-adv-x="1429" 
d="M397 1888h74l244 -157l241 157h76l-317 -383zM39 1442h1347v-412h-34q-4 102 -52 179t-116 113q-136 74 -240 83l-45 2h-39v-1159q0 -98 52 -156t122 -57v-35h-645v35q70 0 122 57t52 156v1159h-39q-56 0 -141 -25q-86 -24 -145 -60q-60 -36 -110 -113t-54 -179h-35v412z
" />
    <glyph glyph-name="tcaron" unicode="&#x165;" horiz-adv-x="790" 
d="M551 127q80 0 123 72l31 -19q-33 -78 -119 -138t-201 -60t-178 68t-64 245v616h-102l-6 35h108v275l256 43v-318h244l-8 -35h-236v-610q0 -174 152 -174zM549 1442h199q0 -78 -28 -151t-90 -148t-126 -111l-27 -18l-26 30q10 8 26 31t44 125t28 242z" />
    <glyph glyph-name="Uring" unicode="&#x16e;" horiz-adv-x="1540" 
d="M1507 1442v-35q-86 0 -149 -31t-92 -77q-60 -95 -62 -169l-2 -30v-608q0 -124 -36 -220t-89 -149t-147 -97t-234 -44q-217 0 -362 140t-146 382v723q0 90 -46 135t-117 45v35h651v-35q-190 0 -191 -180v-738q-1 -176 97 -280q98 -105 237 -105t243 104t105 284v608
q0 109 -58 200q-26 41 -83 74t-137 33v35h618zM551 1802q1 80 59 138t139 57t138 -57t57 -137t-57 -138t-138 -57t-140 57q-58 57 -58 137zM748 1915q-47 0 -79 -33t-32 -80t33 -80q33 -32 79 -32q47 0 79 32t32 80q0 47 -32 80t-80 33z" />
    <glyph glyph-name="uring" unicode="&#x16f;" horiz-adv-x="1148" 
d="M603 1454q81 0 138 -56t57 -137t-56 -139q-58 -58 -139 -57q-81 0 -139 57q-58 58 -58 138t58 137t139 57zM602 1372q-47 0 -79 -33q-31 -33 -31 -79t32 -80q32 -33 79 -33q46 0 79 33t33 80q0 48 -33 80t-80 32zM1010 188q0 -72 18 -90t86 -26v-35l-303 -53
q-48 -8 -57 39v180q-38 -86 -144 -154q-106 -67 -218 -67t-178 68q-65 68 -64 245v492q0 11 -4 36q-3 25 -9 30q-32 27 -51 30q-20 4 -51 8v35l368 39v-664q0 -170 172 -170q45 0 97 37q51 37 82 96v488q0 84 -14 108t-83 31v35l353 39v-777z" />
    <glyph glyph-name="Uhungarumlaut" unicode="&#x170;" horiz-adv-x="1540" 
d="M1507 1442v-35q-86 0 -149 -31t-92 -77q-60 -95 -62 -169l-2 -30v-608q0 -124 -36 -220t-89 -149t-147 -97t-234 -44q-217 0 -362 140t-146 382v723q0 90 -46 135t-117 45v35h651v-35q-190 0 -191 -180v-738q-1 -176 97 -280q98 -105 237 -105t243 104t105 284v608
q0 109 -58 200q-26 41 -83 74t-137 33v35h618zM846 1505l346 334l229 -72l-499 -262h-76zM477 1505l346 334l230 -72l-500 -262h-76z" />
    <glyph glyph-name="uhungarumlaut" unicode="&#x171;" horiz-adv-x="1148" 
d="M621 1108l346 334l229 -72l-500 -262h-75zM252 1108l346 334l229 -72l-499 -262h-76zM1010 188q0 -72 18 -90t86 -26v-35l-303 -53q-48 -8 -57 39v180q-38 -86 -144 -154q-106 -67 -218 -67t-178 68q-65 68 -64 245v492q0 11 -4 36q-3 25 -9 30q-32 27 -51 30
q-20 4 -51 8v35l368 39v-664q0 -170 172 -170q45 0 97 37q51 37 82 96v488q0 84 -14 108t-83 31v35l353 39v-777z" />
    <glyph glyph-name="Ydieresis" unicode="&#x178;" horiz-adv-x="1579" 
d="M938 1442h614v-35q-252 0 -483 -453l-135 -284v-422q0 -98 52 -156t122 -57v-35h-645v35q70 0 122 57t52 156v317q-227 406 -367 631l-32 51q-41 72 -87 111t-72 45t-61 6v33h654v-33q-92 0 -105 -49q-16 -60 58 -184l288 -471l138 284q25 49 40 127t14 126t-15 83
t-54 59t-98 23v35zM980 1585q-50 0 -86 35t-36 85t36 86t86 36t86 -36t36 -86t-36 -85t-86 -35zM595 1585q-50 0 -86 35t-36 85t36 86t86 36t85 -36t35 -86t-35 -85t-85 -35z" />
    <glyph glyph-name="Zacute" unicode="&#x179;" horiz-adv-x="1263" 
d="M555 35q290 0 521 319q50 70 69 123h37l-52 -477h-1081l813 1407h-96q-203 0 -379 -112t-231 -267h-41l39 414h1063l-758 -1407h96zM383 1505l346 334l229 -72l-499 -262h-76z" />
    <glyph glyph-name="zacute" unicode="&#x17a;" horiz-adv-x="948" 
d="M297 1108l346 334l229 -72l-499 -262h-76zM881 946l-500 -911q324 0 420 276h35l-19 -311h-758l533 911q-352 0 -434 -235h-35l10 270h748z" />
    <glyph glyph-name="Zdotaccent" unicode="&#x17b;" horiz-adv-x="1263" 
d="M555 35q290 0 521 319q50 70 69 123h37l-52 -477h-1081l813 1407h-96q-203 0 -379 -112t-231 -267h-41l39 414h1063l-758 -1407h96zM803 1734q0 -50 -36 -86t-86 -36t-86 36t-36 86t36 85t86 35t86 -36q36 -34 36 -84z" />
    <glyph glyph-name="zdotaccent" unicode="&#x17c;" horiz-adv-x="948" 
d="M495 1403q49 0 85 -35t36 -85t-36 -86t-85 -36q-50 0 -86 36t-36 86t36 85t86 35zM881 946l-500 -911q324 0 420 276h35l-19 -311h-758l533 911q-352 0 -434 -235h-35l10 270h748z" />
    <glyph glyph-name="Zcaron" unicode="&#x17d;" horiz-adv-x="1263" 
d="M555 35q290 0 521 319q50 70 69 123h37l-52 -477h-1081l813 1407h-96q-203 0 -379 -112t-231 -267h-41l39 414h1063l-758 -1407h96zM383 1888h74l243 -157l242 157h76l-318 -383z" />
    <glyph glyph-name="zcaron" unicode="&#x17e;" horiz-adv-x="954" 
d="M881 946l-500 -911q324 0 420 276h35l-19 -311h-758l533 911q-352 0 -434 -235h-35l10 270h748zM172 1397h74l243 -158l242 158h76l-318 -383z" />
    <glyph glyph-name="florin" unicode="&#x192;" horiz-adv-x="1423" 
d="M1118 1470q-60 0 -116 -112q-54 -113 -76 -225l-25 -113l-31 -232h250l-12 -34h-242l-75 -553q-49 -369 -167 -531t-329 -159q-84 1 -143 33t-82 69q-41 68 -9 139q23 44 72 62t94 -4t61 -71q16 -48 -4 -94q-21 -46 -73 -61q-16 -4 -2 -21q15 -17 77 -17t115 111
q53 112 78 224l25 113l96 760h-156l5 34h153q39 310 177 514t335 203q74 -1 136 -35t83 -69q41 -68 8 -139q-23 -44 -71 -62t-93 4q-46 22 -63 71q-16 48 6 95q23 47 70 60q14 4 4 20q-16 20 -76 20z" />
    <glyph glyph-name="uni0218" unicode="&#x218;" horiz-adv-x="1261" 
d="M94 502h35q64 -183 100 -231q106 -143 171 -182q120 -73 255 -73q80 0 132 50q51 50 63 122q12 70 -28 156t-130 152l-315 198q-469 295 -230 611q13 20 70 65t160 68q104 22 227 22t255 -24t185 -50l54 -24v-344h-35q-66 186 -187 297q-50 45 -132 78t-168 33
q-87 0 -140 -46q-116 -99 -36 -257q42 -81 137 -142l315 -209q280 -184 298 -401q9 -111 -69 -221l-12 -18q-8 -11 -43 -41q-127 -109 -413 -109q-134 0 -274 32t-192 64l-53 31v393zM481 -230q0 70 49 120t120 50t119 -48t49 -124q2 -131 -87 -260q-66 -104 -172 -161
l-22 28q53 41 88 99t34 89q0 32 -12 40q-74 8 -120 52t-46 115z" />
    <glyph glyph-name="uni0219" unicode="&#x219;" horiz-adv-x="909" 
d="M729 674q-88 256 -303 256q-49 0 -83 -27t-41 -65t21 -88q28 -49 91 -91l207 -129q137 -86 177 -206t-36 -232q-8 -12 -28 -30t-93 -50q-73 -30 -175 -30t-194 24t-129 47l-39 23v258h35q3 -4 13 -32t25 -67t32 -62t37 -50t65 -58q66 -46 151 -48q85 -1 117 49t8 120
q-24 68 -98 117l-206 125q-150 90 -187 207t47 227q100 100 244 102q247 3 346 -46l31 -15v-229h-35zM475 -437q0 32 -12 40q-74 8 -120 52t-46 115q0 70 49 120t120 50t119 -48t49 -124q2 -131 -87 -260q-66 -104 -172 -161l-23 28q53 41 88 99t35 89z" />
    <glyph glyph-name="uni021A" unicode="&#x21a;" horiz-adv-x="1429" 
d="M39 1442h1347v-412h-34q-4 102 -52 179t-116 113q-136 74 -240 83l-45 2h-39v-1159q0 -98 52 -156t122 -57v-35h-645v35q70 0 122 57t52 156v1159h-39q-56 0 -141 -25q-86 -24 -145 -60q-60 -36 -110 -113t-54 -179h-35v412zM522 -230q0 70 49 120t120 50t119 -48
t49 -124q2 -131 -87 -260q-66 -104 -172 -161l-22 28q53 41 88 99t34 89q0 32 -12 40q-74 8 -120 52t-46 115z" />
    <glyph glyph-name="uni021B" unicode="&#x21b;" horiz-adv-x="724" 
d="M551 127q80 0 123 72l31 -19q-33 -78 -119 -138t-201 -60t-178 68t-64 245v616h-102l-6 35h108v275l256 43v-318h244l-8 -35h-236v-610q0 -174 152 -174zM223 -230q0 70 49 120t120 50t119 -48t49 -124q2 -131 -87 -260q-66 -104 -172 -161l-22 28q53 41 88 99t34 89
q0 32 -12 40q-74 8 -120 52t-46 115z" />
    <glyph glyph-name="circumflex" unicode="&#x2c6;" horiz-adv-x="634" 
d="M635 1087h-74l-244 158l-243 -158h-74l317 386z" />
    <glyph glyph-name="caron" unicode="&#x2c7;" horiz-adv-x="638" 
d="M0 1475h74l243 -158l242 158h76l-318 -383z" />
    <glyph glyph-name="uni02C9" unicode="&#x2c9;" horiz-adv-x="624" 
d="M676 1194h-727v156h727v-156z" />
    <glyph glyph-name="breve" unicode="&#x2d8;" horiz-adv-x="546" 
d="M273 1292q241 0 241 150h35q0 -129 -68 -216t-206 -87q-137 0 -207 87t-70 216h35q-1 -150 240 -150z" />
    <glyph glyph-name="dotaccent" unicode="&#x2d9;" 
d="M408 1322q0 -50 -36 -86t-86 -36t-86 36t-36 86t36 85t86 35t86 -35t36 -85z" />
    <glyph glyph-name="ring" unicode="&#x2da;" 
d="M290 1499q81 0 138 -56t57 -137q0 -80 -57 -138t-138 -58t-139 57q-59 57 -59 137t58 138q58 57 140 57zM289 1417q-47 0 -79 -33q-32 -34 -32 -80t33 -79t79 -33t79 33t32 80t-33 79t-79 33z" />
    <glyph glyph-name="ogonek" unicode="&#x2db;" 
d="M569 -254q0 -41 -5 -67q-5 -25 -35 -55t-86 -39q-104 -17 -161 22q-43 27 -63 76q-31 119 48 197t239 130v-35q-92 -49 -133 -109t-29 -110t44 -67q32 -18 58 -17l27 2q61 10 62 72h34z" />
    <glyph glyph-name="tilde" unicode="&#x2dc;" horiz-adv-x="911" 
d="M545 1126l-246 88q-120 29 -219 -17q-63 -30 -88 -81l-31 12q41 100 96 165t105 87q102 44 166 29l26 -6l244 -90q66 -23 169 3t140 101l31 -16q-41 -100 -97 -165q-55 -64 -105 -86q-101 -44 -165 -30z" />
    <glyph glyph-name="hungarumlaut" unicode="&#x2dd;" horiz-adv-x="1126" 
d="M547 1141l346 334l229 -72l-499 -262h-76zM178 1141l346 334l230 -72l-500 -262h-76z" />
    <glyph glyph-name="uni03A9" unicode="&#x3a9;" horiz-adv-x="1511" 
d="M1049 900q0 423 -126 522q-42 32 -78 40t-89 8t-89 -8t-78 -40q-126 -96 -126 -511q0 -173 29 -329q30 -156 64 -248t71 -188t47 -146h-551l-64 358h35q47 -115 209 -114h232q-8 25 -71 74t-91 77q-123 129 -171 254t-48 273q0 254 156 418t446 165q290 0 446 -165
t156 -418q0 -146 -48 -272t-171 -255q-29 -29 -68 -59t-63 -52t-31 -40h231q162 -1 209 114h35l-63 -358h-551q10 51 47 146q37 96 71 188t64 249q29 157 29 317z" />
    <glyph glyph-name="uni03BC" unicode="&#x3bc;" horiz-adv-x="1140" 
d="M997 188q1 -72 19 -90t86 -26v-35l-303 -53q-49 -8 -58 39v180q-37 -86 -145 -154t-203 -67v-306q1 -76 21 -102t84 -27v-34l-301 -54q-50 -7 -58 27l-2 12v1289q0 55 -9 63q-34 29 -54 33t-51 8v35l368 39v-664q0 -170 172 -170q45 0 96 37t82 96v488q0 84 -13 108
t-83 31v35l352 39v-777z" />
    <glyph glyph-name="pi" unicode="&#x3c0;" horiz-adv-x="1191" 
d="M735 762h-235l-27 -404q-2 -70 -38 -140t-110 -151q-74 -80 -153 -135l-35 -22l-20 27q90 71 153 201t70 233l27 391q-207 -10 -318 -154l-33 21q33 100 118 204q36 43 97 77t129 36h527q125 0 177 24t60 105h35q0 -153 -46 -233t-187 -80v-526q0 -62 20 -98t41 -40
l21 -6q25 0 39 9t28 34l33 -18q-10 -59 -58 -97t-117 -38q-122 1 -156 65q-34 65 -42 137v578z" />
    <glyph glyph-name="uni2010" unicode="&#x2010;" horiz-adv-x="915" 
d="M776 426h-645v190h645v-190z" />
    <glyph glyph-name="endash" unicode="&#x2013;" horiz-adv-x="1148" 
d="M0 586h1149v-140h-1149v140z" />
    <glyph glyph-name="emdash" unicode="&#x2014;" horiz-adv-x="2160" 
d="M0 586h2161v-140h-2161v140z" />
    <glyph glyph-name="quoteleft" unicode="&#x2018;" horiz-adv-x="548" 
d="M461 1076q0 -71 -49 -121t-120 -50t-119 48t-49 124q-2 130 87 260q66 104 172 162l23 -29q-52 -41 -88 -98t-36 -89t13 -40q74 -8 120 -52t46 -115z" />
    <glyph glyph-name="quoteright" unicode="&#x2019;" horiz-adv-x="559" 
d="M291 1123q0 32 -12 40q-74 8 -120 52t-46 115t49 121t120 50q70 0 118 -48t50 -124q3 -128 -88 -260q-66 -104 -172 -162l-22 29q53 41 88 98t35 89z" />
    <glyph glyph-name="quotesinglbase" unicode="&#x201a;" 
d="M297 -54q0 32 -12 40q-74 8 -120 52t-46 115t49 121t120 50t119 -48t49 -124q2 -131 -87 -261q-66 -104 -172 -161l-23 28q53 40 88 98t35 90z" />
    <glyph glyph-name="quotedblleft" unicode="&#x201c;" horiz-adv-x="1083" 
d="M776 1293q0 -32 12 -40q74 -8 120 -52t46 -115q0 -70 -49 -120t-120 -50t-119 48t-48 124q-3 129 87 260q66 104 172 161l22 -28q-53 -41 -88 -99t-35 -89zM264 1293q0 -32 12 -40q74 -8 120 -52t46 -115q0 -70 -49 -120t-120 -50t-119 48t-48 124q-3 129 87 260
q66 104 172 161l22 -28q-53 -41 -88 -99t-35 -89z" />
    <glyph glyph-name="quotedblright" unicode="&#x201d;" horiz-adv-x="1067" 
d="M803 1123q0 32 -12 40q-74 8 -120 52t-46 115t49 121t120 50q70 0 118 -48t50 -124q3 -128 -88 -260q-66 -104 -172 -162l-22 29q53 41 88 98t35 89zM291 1123q0 32 -12 40q-74 8 -120 52t-46 115t49 121t120 50q70 0 118 -48t50 -124q3 -128 -88 -260
q-66 -104 -172 -162l-22 29q53 41 88 98t35 89z" />
    <glyph glyph-name="quotedblbase" unicode="&#x201e;" horiz-adv-x="1067" 
d="M799 -54q0 32 -13 40q-74 8 -114 49q-51 47 -51 118t49 121t120 50q70 0 118 -48t49 -124q2 -131 -87 -261q-66 -104 -172 -161l-22 28q53 40 88 98t35 90zM287 -54q0 32 -13 40q-74 8 -114 49q-51 47 -51 118t49 121t120 50q70 0 118 -48t49 -124q2 -131 -87 -261
q-66 -104 -172 -161l-22 28q53 40 88 98t35 90z" />
    <glyph glyph-name="dagger" unicode="&#x2020;" horiz-adv-x="870" 
d="M836 888q0 -34 -26 -60t-60 -26t-58 24q-24 23 -28 61q-4 4 -22 4q-18 1 -46 -17q-29 -18 -49 -43l-10 9q37 61 81 90q123 85 192 18q26 -26 26 -60zM426 -543q0 258 -28 582q-28 325 -72 559q42 54 64 110t24 87l2 30q0 55 -24 147t-24 120t1 37q0 9 4 31q15 81 61 81
q29 0 45 -31t19 -63l2 -31q0 -54 -24 -144t-23 -147q-4 -115 90 -227q-45 -233 -70 -518t-27 -453l-2 -170h-18zM330 840l-11 -9q-20 25 -60 48t-56 8q-4 -37 -27 -61q-24 -24 -58 -24t-61 25q-25 27 -25 62q-2 35 24 59q48 46 133 14q85 -33 141 -122zM434 1321
q-40 0 -70 30q-30 31 -30 71t30 69t70 29t70 -29q28 -29 28 -70t-28 -71t-70 -29z" />
    <glyph glyph-name="daggerdbl" unicode="&#x2021;" horiz-adv-x="1107" 
d="M57 152q0 42 31 74t75 32q45 0 73 -30t32 -74q4 -6 24 -6t57 22q36 20 61 51l12 -8q-64 -111 -172 -153q-39 -15 -86 -13t-77 32t-30 73zM936 258q43 0 75 -32q31 -32 31 -74t-30 -73q-30 -30 -93 -33q-64 -3 -143 54q-63 49 -98 113l10 8q25 -31 76 -59t70 -8
q-1 42 29 73t73 31zM164 762q-43 0 -76 31q-31 31 -31 73t30 74q30 31 93 32t130 -45t112 -120l-12 -8q-25 31 -73 57t-69 8q-3 -44 -32 -73t-72 -29zM550 -248q50 0 86 -36t36 -86t-36 -86t-86 -36t-86 36t-36 86t36 86t86 36zM672 1382q0 -52 -36 -86t-86 -34t-86 34
t-36 86q0 51 36 87t86 36t86 -36t36 -87zM936 762q-42 0 -72 30t-30 72q-19 19 -70 -8q-51 -26 -76 -57l-10 8q65 112 172 150q39 15 86 15t77 -32q29 -31 29 -74q0 -44 -32 -74t-74 -30zM631 4v-16q0 -77 -41 -121q-16 -17 -46 -17t-50 38t-23 77l-2 39q0 66 31 142
q30 76 30 139q0 64 -32 126t-82 93q51 35 80 88t32 88l2 37q0 65 -30 143t-31 146v16q0 81 42 121q17 16 46 16t49 -39t23 -76l2 -38q0 -68 -31 -144t-31 -118t3 -69q3 -26 31 -82t79 -89q-51 -35 -79 -88t-30 -88l-4 -35q0 -68 31 -146t31 -143z" />
    <glyph glyph-name="bullet" unicode="&#x2022;" horiz-adv-x="1024" 
d="M513 451q-103 1 -177 73t-74 175t74 177t177 72q103 0 176 -72t73 -176t-73 -176t-176 -73z" />
    <glyph glyph-name="ellipsis" unicode="&#x2026;" horiz-adv-x="1773" 
d="M1610 156q0 -72 -51 -122t-123 -50t-123 50t-51 122t51 123t123 51t123 -51t51 -123zM1065 156q0 -72 -50 -122t-122 -50t-123 50t-51 122t51 123t123 51t122 -51t50 -123zM522 156q0 -72 -51 -122t-123 -50t-122 50t-50 122t50 123t122 51t123 -51t51 -123z" />
    <glyph glyph-name="perthousand" unicode="&#x2030;" horiz-adv-x="2316" 
d="M1960 86q68 0 85 56t17 268t-18 276t-85 64t-85 -62t-18 -274t18 -270t86 -58zM1959 784q284 0 284 -372q1 -170 -63 -266t-221 -95q-157 0 -220 95t-64 266q0 372 284 372zM1266 86q68 0 85 56t17 268t-18 276t-85 64t-85 -62t-18 -274t18 -270t86 -58zM981 412
q0 372 284 372t283 -372q0 -170 -63 -266t-220 -95q-157 0 -221 95q-63 95 -63 266zM322 692q68 0 85 56t17 269q0 212 -18 275q-18 64 -85 64t-85 -62t-18 -274t18 -270t86 -58zM37 1018q0 373 284 373t283 -373q0 -170 -63 -265t-220 -95t-221 94q-64 96 -63 266zM260 0
l934 1442h133l-934 -1442h-133z" />
    <glyph glyph-name="guilsinglleft" unicode="&#x2039;" horiz-adv-x="694" 
d="M575 1034v-80l-251 -409l251 -398v-79l-473 477z" />
    <glyph glyph-name="guilsinglright" unicode="&#x203a;" horiz-adv-x="694" 
d="M98 954v80l473 -489l-473 -477v79l252 398z" />
    <glyph glyph-name="fraction" unicode="&#x2044;" horiz-adv-x="718" 
d="M938 1503h133l-1239 -1503h-131z" />
    <glyph glyph-name="Euro" unicode="&#x20ac;" horiz-adv-x="1275" 
d="M820 1425q-148 -1 -208 -119q-59 -118 -69 -442h463l-27 -35h-438v-215h430l-25 -34h-403q10 -324 69 -444q60 -120 206 -120t224 92t78 228h35v-273q-109 -82 -324 -81q-506 0 -577 598h-209l25 34h180q-6 54 -6 104t6 111h-205l25 35h184q76 596 577 596q127 0 194 -17
t130 -65v-272h-35q0 139 -76 229t-224 90z" />
    <glyph glyph-name="afii61289" unicode="&#x2113;" horiz-adv-x="735" 
d="M428 1030v-311l53 51q98 94 129 236t11 252q-20 108 -60 161q-53 70 -88 -4q-45 -90 -45 -385zM494 -18q-235 0 -294 198q-26 84 -26 207v66l-129 -99v107l129 102v420q0 151 29 263t75 170q97 122 207 91q53 -14 97 -59q72 -76 92 -220t-19 -292t-127 -234l-102 -96
l-4 -231q-10 -151 32 -219t121 -58q72 17 99 99l33 -11q-6 -86 -74 -145t-139 -59z" />
    <glyph glyph-name="trademark" unicode="&#x2122;" horiz-adv-x="1474" 
d="M1356 975q0 -41 22 -64t52 -22v-35h-252v35q59 0 59 86v362l-205 -489h-35l-217 487v-252q2 -2 -1 -31t11 -76q27 -87 93 -87v-35h-252v35q55 0 84 49t30 98v342q-20 29 -86 29v35h211l195 -420l172 420h184v-35q-66 0 -65 -74v-358zM27 1442h548v-168h-34q0 59 -41 92
t-82 37l-41 4h-15v-430q0 -41 20 -65t50 -23v-35h-262v35q29 -1 49 23t21 65v430h-15q-60 -1 -95 -21q-67 -40 -69 -112h-34v168z" />
    <glyph glyph-name="Omega" unicode="&#x2126;" horiz-adv-x="1513" 
d="M1049 900q0 423 -126 522q-42 32 -78 40t-89 8t-89 -8t-78 -40q-126 -96 -126 -511q0 -173 29 -329q30 -156 64 -248t71 -188t47 -146h-551l-64 358h35q47 -115 209 -114h232q-8 25 -71 74t-91 77q-123 129 -171 254t-48 273q0 254 156 418t446 165q290 0 446 -165
t156 -418q0 -146 -48 -272t-171 -255q-29 -29 -68 -59t-63 -52t-31 -40h231q162 -1 209 114h35l-63 -358h-551q10 51 47 146q37 96 71 188t64 249q29 157 29 317z" />
    <glyph glyph-name="estimated" unicode="&#x212e;" horiz-adv-x="1826" 
d="M911 1505q350 0 598 -221t248 -532h-1388v-488q223 -194 549 -194t559 217h98q-119 -135 -292 -211t-372 -76q-350 0 -598 220q-247 220 -247 532t247 532q248 221 598 221zM369 815h1097v414q-230 207 -550 207t-547 -197v-424z" />
    <glyph glyph-name="partialdiff" unicode="&#x2202;" horiz-adv-x="1171" 
d="M528 16q197 0 256 660q-20 70 -84 120t-114 50q-86 0 -146 -110t-80 -314q-18 -240 20 -323t148 -83zM534 1524q276 0 430 -228q153 -228 119 -616q-27 -332 -163 -515t-392 -183q-223 0 -343 122t-101 361q16 189 104 335t295 146q87 0 185 -50t125 -148q23 284 -7 452
t-89 228t-169 60t-202 -104t-90 -221l-41 -14l-70 219q133 156 409 156z" />
    <glyph glyph-name="Delta" unicode="&#x2206;" horiz-adv-x="1462" 
d="M178 90h864l-432 989zM768 1511l602 -1445l-31 -66h-1261l-12 53l589 1422z" />
    <glyph glyph-name="product" unicode="&#x220f;" horiz-adv-x="1718" 
d="M1657 1407q-82 0 -139 -51t-58 -152v-1104q0 -113 58 -176t139 -63v-35h-727v35q80 0 138 63t58 176v1100q0 100 -57 154t-139 53h-152q-80 0 -137 -53t-57 -154v-1100q0 -113 58 -176t136 -63v-35h-725v35q80 0 137 63t58 176v1104q0 100 -55 152t-140 51v35h1604v-35z
" />
    <glyph glyph-name="summation" unicode="&#x2211;" horiz-adv-x="1392" 
d="M496 -166q614 0 802 510h33l-55 -545h-1120l395 693l-508 950h1208l45 -473h-34q-62 176 -272 307t-435 131h-100l407 -711l-506 -862h140z" />
    <glyph glyph-name="minus" unicode="&#x2212;" horiz-adv-x="1282" 
d="M1190 426h-1092v190h1092v-190z" />
    <glyph glyph-name="uni2215" unicode="&#x2215;" horiz-adv-x="720" 
d="M938 1503h133l-1239 -1503h-131z" />
    <glyph glyph-name="uni2219" unicode="&#x2219;" 
d="M416 610q0 -53 -38 -90t-91 -37t-90 37t-37 90t37 91t90 38t91 -38t38 -91z" />
    <glyph glyph-name="radical" unicode="&#x221a;" horiz-adv-x="1157" 
d="M721 160l280 1616l111 -31l-369 -2112l-36 -14l-394 922q-35 82 -92 125t-115 20l-12 31l326 141z" />
    <glyph glyph-name="infinity" unicode="&#x221e;" horiz-adv-x="1636" 
d="M1166 942q142 0 243 -101q102 -101 102 -243t-102 -244q-101 -102 -243 -102t-244 102l-115 115l-117 -115q-102 -102 -246 -102t-242 101t-98 243t95 246q100 100 244 100t247 -102l117 -115l115 115q102 102 244 102zM447 760q-71 0 -117 -47t-47 -116q0 -69 50 -117
q49 -48 113 -48t117 49l115 117l-117 115q-43 47 -114 47zM1164 432q64 0 115 48q50 48 50 117t-47 116t-118 47t-113 -47l-117 -117l117 -115q49 -49 113 -49z" />
    <glyph glyph-name="integral" unicode="&#x222b;" horiz-adv-x="831" 
d="M252 -430q-64 0 -114 24t-70 52q-41 58 -22 112q20 54 62 72t82 0q44 -14 62 -57t1 -86t-56 -54q-16 -6 4 -17t53 -11q133 0 94 405l-72 901q-32 381 48 580t254 199q61 0 112 -24q133 -64 90 -177q-16 -43 -58 -61t-84 -2t-60 58t-3 85q20 47 62 57q10 2 -8 16
q-20 12 -51 13q-131 0 -97 -406l72 -903q33 -380 -46 -578t-255 -198z" />
    <glyph glyph-name="approxequal" unicode="&#x2248;" horiz-adv-x="1089" 
d="M639 252l-246 88q-118 29 -219 -17q-63 -30 -88 -81l-31 12q41 100 97 165t105 87q101 44 165 29l27 -7l243 -90q66 -23 169 3t140 102l31 -17q-41 -100 -97 -165q-55 -65 -105 -87q-100 -43 -164 -28zM639 625l-246 88q-119 29 -219 -18q-63 -30 -88 -81l-31 13
q41 100 97 165q56 64 105 86q100 43 165 29l27 -6l243 -90q66 -23 169 3t140 101l31 -16q-41 -100 -97 -165q-55 -64 -105 -86q-97 -42 -164 -30z" />
    <glyph glyph-name="notequal" unicode="&#x2260;" horiz-adv-x="1079" 
d="M983 705h-303l-115 -252h418v-140h-485l-117 -254l-127 58l90 196h-250v140h316l114 252h-430v139h498l127 276l125 -59l-99 -217h238v-139z" />
    <glyph glyph-name="lessequal" unicode="&#x2264;" horiz-adv-x="1089" 
d="M451 705l530 -279v-211l-866 442v97l866 444v-215zM96 137h885v-178h-885v178z" />
    <glyph glyph-name="greaterequal" unicode="&#x2265;" horiz-adv-x="1089" 
d="M113 426l530 279l-530 278v215l866 -444v-97l-866 -442v211zM113 137h884v-178h-884v178z" />
    <glyph glyph-name="lozenge" unicode="&#x25ca;" horiz-adv-x="1144" 
d="M856 670l-287 551l-286 -551l286 -551zM616 1501l426 -831l-426 -832h-92l-426 832l426 831h92z" />
    <glyph glyph-name="zero.taboldstyle" unicode="&#xf643;" horiz-adv-x="1187" 
d="M603 930q-123 0 -155 -86t-32 -373t32 -371t155 -84q122 0 155 84t33 371t-33 373t-155 86zM604 -18q-238 0 -364 122t-125 363q1 242 127 370t364 128t364 -124t126 -372q0 -487 -492 -487z" />
    <glyph glyph-name="one.taboldstyle" unicode="&#xf644;" horiz-adv-x="1050" 
d="M418 195v553q0 72 -33 90t-121 18v35l410 74v-770q0 -115 57 -141q42 -19 109 -19v-35h-615v35q141 0 175 69q18 36 18 91z" />
    <glyph glyph-name="two.taboldstyle" unicode="&#xf645;" horiz-adv-x="1099" 
d="M280 606q-46 0 -86 43t-20 111q29 84 152 162q37 26 123 36q232 28 351 -61q75 -55 85 -151t-27 -176q-37 -79 -116 -142t-195 -120q-115 -58 -135 -79l313 11q125 -1 186 116h35l-98 -356h-701l215 227q174 160 230 272q55 111 38 217q-18 106 -110 160t-186 13
q-61 -31 -60 -51q2 -6 9 -7q47 4 82 -30q33 -35 33 -82t-36 -80t-82 -33z" />
    <glyph glyph-name="three.taboldstyle" unicode="&#xf646;" horiz-adv-x="1134" 
d="M552 -508q110 0 168 62t73 143q27 154 -16 252q-86 208 -367 246v34q120 37 188 108q116 122 61 279q-48 137 -186 147q-73 5 -145 -33t-109 -114l-35 9q12 94 56 165q43 70 94 102q102 63 182 71l33 2q86 0 165 -36t130 -101q117 -149 47 -323q-41 -99 -139 -196
q133 -53 210 -144q133 -161 58 -383q-55 -158 -192 -240t-268 -84q-132 -1 -216 22t-147 80q-71 63 -49 167q12 53 66 89q56 36 120 22q64 -16 97 -71q34 -55 20 -115t-78 -94q-18 -6 14 -29q55 -37 165 -37z" />
    <glyph glyph-name="four.taboldstyle" unicode="&#xf647;" horiz-adv-x="1191" 
d="M569 45v551l-290 -442q-50 -78 -31 -93t57 -16h264zM1079 -98h-213v-148q0 -185 57 -229q29 -23 53 -28t64 -5v-35h-645v35q41 0 65 6t54 28q56 41 55 218v158h-469v35l676 1028l90 -19v-901h213v-143z" />
    <glyph glyph-name="five.taboldstyle" unicode="&#xf648;" horiz-adv-x="1132" 
d="M526 -543q-212 0 -331 97q-31 26 -45 70t-7 89q17 63 73 97t120 20t97 -70q34 -56 20 -119q-14 -62 -70 -96q-27 -16 8 -34q35 -19 129 -19t166 34t102 85q72 120 33 229q-19 64 -62 117q-44 53 -92 85t-123 62q-124 49 -399 23l152 819h709l-88 -268h-629l-58 -301
q328 57 554 -52q91 -44 147 -116q103 -133 100 -283q0 -223 -147 -346t-359 -123z" />
    <glyph glyph-name="six.taboldstyle" unicode="&#xf649;" horiz-adv-x="1212" 
d="M614 16q117 0 162 90t45 310t-53 341q-53 122 -137 122q-57 -1 -125 -53t-90 -140q4 -354 46 -512t152 -158zM739 965q286 0 364 -318q19 -82 19 -172q0 -231 -143 -362t-365 -131q-256 0 -389 174t-133 485q0 365 184 592t439 227q109 0 177 -43t91 -80q47 -80 2 -151
q-31 -52 -87 -64t-107 19q-49 31 -62 88q-12 57 19 106q33 47 86 58q12 2 -15 14q-37 18 -101 18q-64 -1 -112 -25t-94 -90q-98 -143 -96 -538q73 193 323 193z" />
    <glyph glyph-name="seven.taboldstyle" unicode="&#xf64a;" horiz-adv-x="1138" 
d="M688 -524h-291q0 303 103 568q102 265 401 638h-559q-56 0 -108 -30t-82 -89h-35l49 383h924l-154 -264q-173 -310 -216 -643q-22 -170 -27 -281t-5 -282z" />
    <glyph glyph-name="eight.taboldstyle" unicode="&#xf64b;" horiz-adv-x="1175" 
d="M1104 414q0 -224 -134 -328t-360 -104q-520 0 -520 329q0 125 98 229t224 134q-137 84 -204 188t-67 209q0 189 124 289q123 100 315 100t311 -79t119 -220q0 -100 -68 -189t-188 -116q150 -76 250 -198t100 -244zM315 325q0 -137 77 -223t218 -86q102 0 165 64t63 186
q0 121 -98 203q-98 81 -183 124q-85 44 -108 58q-49 -27 -91 -109t-43 -217zM823 1135q-1 159 -71 225t-163 66t-147 -59q-54 -57 -53 -161q0 -104 78 -184t250 -148q106 51 106 261z" />
    <glyph glyph-name="nine.taboldstyle" unicode="&#xf64c;" horiz-adv-x="1175" 
d="M586 930q-115 0 -161 -94t-46 -312t52 -338q52 -119 138 -118q59 0 126 44t89 130q0 332 -45 510q-44 178 -153 178zM461 -18q-137 0 -228 75t-123 179t-32 227q0 256 139 379t381 123q242 1 376 -183t134 -497q0 -385 -160 -607t-463 -221q-215 0 -297 137
q-20 31 -20 77t25 83q33 56 95 70t116 -20t69 -97q14 -63 -20 -117q-35 -53 -99 -63q-10 -2 13 -12q45 -23 121 -23q144 0 209 67q64 67 80 307q7 108 7 286q-67 -170 -323 -170z" />
    <glyph glyph-name="dollar.taboldstyle" unicode="&#xf653;" horiz-adv-x="1216" 
d="M606 -18v-250h-35v250q-151 8 -269 40t-163 60l-45 27v393h17q154 -428 460 -484v553l-194 123q-469 295 -230 611q13 20 70 65t160 68q104 22 194 22v250h35v-250q145 -2 268 -26t175 -50l49 -22v-344h-17q-56 163 -188 287q-49 45 -125 79t-162 41v-491l246 -162
q280 -184 298 -401q9 -111 -69 -221q-70 -86 -172 -127t-303 -41zM571 1425q-82 0 -135 -45q-116 -99 -36 -257q42 -81 137 -142l34 -25v469zM606 16q115 0 178 54q121 103 28 285q-42 83 -120 141l-86 53v-533z" />
    <glyph glyph-name="cent.taboldstyle" unicode="&#xf654;" horiz-adv-x="1091" 
d="M684 -242h-35v224q-243 0 -369 147t-126 339t132 338t363 159v249h35v-249q166 0 268 -91q63 -56 44 -124t-67 -97q-47 -29 -103 -15t-85 64q-29 49 -12 103q12 53 64 82q18 8 -19 25t-90 18v-770q76 -10 170 22t129 82l29 -18q-25 -86 -109 -166t-219 -98v-224zM412 514
q0 -279 237 -346v760q-89 -18 -163 -114t-74 -300z" />
    <glyph glyph-name="dollar.oldstyle" unicode="&#xf724;" horiz-adv-x="1216" 
d="M606 -18v-250h-35v250q-151 8 -269 40t-163 60l-45 27v393h17q154 -428 460 -484v553l-194 123q-469 295 -230 611q13 20 70 65t160 68q104 22 194 22v250h35v-250q145 -2 268 -26t175 -50l49 -22v-344h-17q-56 163 -188 287q-49 45 -125 79t-162 41v-491l246 -162
q280 -184 298 -401q9 -111 -69 -221q-70 -86 -172 -127t-303 -41zM571 1425q-82 0 -135 -45q-116 -99 -36 -257q42 -81 137 -142l34 -25v469zM606 16q115 0 178 54q121 103 28 285q-42 83 -120 141l-86 53v-533z" />
    <glyph glyph-name="zero.oldstyle" unicode="&#xf730;" horiz-adv-x="1187" 
d="M603 930q-123 0 -155 -86t-32 -373t32 -371t155 -84q122 0 155 84t33 371t-33 373t-155 86zM604 -18q-238 0 -364 122t-125 363q1 242 127 370t364 128t364 -124t126 -372q0 -487 -492 -487z" />
    <glyph glyph-name="one.oldstyle" unicode="&#xf731;" horiz-adv-x="1050" 
d="M418 195v553q0 72 -33 90t-121 18v35l410 74v-770q0 -115 57 -141q42 -19 109 -19v-35h-615v35q141 0 175 69q18 36 18 91z" />
    <glyph glyph-name="two.oldstyle" unicode="&#xf732;" horiz-adv-x="1099" 
d="M280 606q-46 0 -86 43t-20 111q29 84 152 162q37 26 123 36q232 28 351 -61q75 -55 85 -151t-27 -176q-37 -79 -116 -142t-195 -120q-115 -58 -135 -79l313 11q125 -1 186 116h35l-98 -356h-701l215 227q174 160 230 272q55 111 38 217q-18 106 -110 160t-186 13
q-61 -31 -60 -51q2 -6 9 -7q47 4 82 -30q33 -35 33 -82t-36 -80t-82 -33z" />
    <glyph glyph-name="three.oldstyle" unicode="&#xf733;" horiz-adv-x="1134" 
d="M552 -508q110 0 168 62t73 143q27 154 -16 252q-86 208 -367 246v34q120 37 188 108q116 122 61 279q-48 137 -186 147q-73 5 -145 -33t-109 -114l-35 9q12 94 56 165q43 70 94 102q102 63 182 71l33 2q86 0 165 -36t130 -101q117 -149 47 -323q-41 -99 -139 -196
q133 -53 210 -144q133 -161 58 -383q-55 -158 -192 -240t-268 -84q-132 -1 -216 22t-147 80q-71 63 -49 167q12 53 66 89q56 36 120 22q64 -16 97 -71q34 -55 20 -115t-78 -94q-18 -6 14 -29q55 -37 165 -37z" />
    <glyph glyph-name="four.oldstyle" unicode="&#xf734;" horiz-adv-x="1191" 
d="M569 45v551l-290 -442q-50 -78 -31 -93t57 -16h264zM1079 -98h-213v-148q0 -185 57 -229q29 -23 53 -28t64 -5v-35h-645v35q41 0 65 6t54 28q56 41 55 218v158h-469v35l676 1028l90 -19v-901h213v-143z" />
    <glyph glyph-name="five.oldstyle" unicode="&#xf735;" horiz-adv-x="1132" 
d="M526 -543q-212 0 -331 97q-31 26 -45 70t-7 89q17 63 73 97t120 20t97 -70q34 -56 20 -119q-14 -62 -70 -96q-27 -16 8 -34q35 -19 129 -19t166 34t102 85q72 120 33 229q-19 64 -62 117q-44 53 -92 85t-123 62q-124 49 -399 23l152 819h709l-88 -268h-629l-58 -301
q328 57 554 -52q91 -44 147 -116q103 -133 100 -283q0 -223 -147 -346t-359 -123z" />
    <glyph glyph-name="six.oldstyle" unicode="&#xf736;" horiz-adv-x="1212" 
d="M614 16q117 0 162 90t45 310t-53 341q-53 122 -137 122q-57 -1 -125 -53t-90 -140q4 -354 46 -512t152 -158zM739 965q286 0 364 -318q19 -82 19 -172q0 -231 -143 -362t-365 -131q-256 0 -389 174t-133 485q0 365 184 592t439 227q109 0 177 -43t91 -80q47 -80 2 -151
q-31 -52 -87 -64t-107 19q-49 31 -62 88q-12 57 19 106q33 47 86 58q12 2 -15 14q-37 18 -101 18q-64 -1 -112 -25t-94 -90q-98 -143 -96 -538q73 193 323 193z" />
    <glyph glyph-name="seven.oldstyle" unicode="&#xf737;" horiz-adv-x="1138" 
d="M688 -524h-291q0 303 103 568q102 265 401 638h-559q-56 0 -108 -30t-82 -89h-35l49 383h924l-154 -264q-173 -310 -216 -643q-22 -170 -27 -281t-5 -282z" />
    <glyph glyph-name="eight.oldstyle" unicode="&#xf738;" horiz-adv-x="1175" 
d="M1104 414q0 -224 -134 -328t-360 -104q-520 0 -520 329q0 125 98 229t224 134q-137 84 -204 188t-67 209q0 189 124 289q123 100 315 100t311 -79t119 -220q0 -100 -68 -189t-188 -116q150 -76 250 -198t100 -244zM315 325q0 -137 77 -223t218 -86q102 0 165 64t63 186
q0 121 -98 203q-98 81 -183 124q-85 44 -108 58q-49 -27 -91 -109t-43 -217zM823 1135q-1 159 -71 225t-163 66t-147 -59q-54 -57 -53 -161q0 -104 78 -184t250 -148q106 51 106 261z" />
    <glyph glyph-name="nine.oldstyle" unicode="&#xf739;" horiz-adv-x="1175" 
d="M586 930q-115 0 -161 -94t-46 -312t52 -338q52 -119 138 -118q59 0 126 44t89 130q0 332 -45 510q-44 178 -153 178zM461 -18q-137 0 -228 75t-123 179t-32 227q0 256 139 379t381 123q242 1 376 -183t134 -497q0 -385 -160 -607t-463 -221q-215 0 -297 137
q-20 31 -20 77t25 83q33 56 95 70t116 -20t69 -97q14 -63 -20 -117q-35 -53 -99 -63q-10 -2 13 -12q45 -23 121 -23q144 0 209 67q64 67 80 307q7 108 7 286q-67 -170 -323 -170z" />
    <glyph glyph-name="cent.oldstyle" unicode="&#xf7a2;" horiz-adv-x="1091" 
d="M684 -242h-35v224q-243 0 -369 147t-126 339t132 338t363 159v249h35v-249q166 0 268 -91q63 -56 44 -124t-67 -97q-47 -29 -103 -15t-85 64q-29 49 -12 103q12 53 64 82q18 8 -19 25t-90 18v-770q76 -10 170 22t129 82l29 -18q-25 -86 -109 -166t-219 -98v-224zM412 514
q0 -279 237 -346v760q-89 -18 -163 -114t-74 -300z" />
    <glyph glyph-name="fi" unicode="&#xfb01;" horiz-adv-x="1210" 
d="M1049 231q0 -98 16 -150t68 -65v-16h-420v16q53 14 66 66t14 149v512q0 63 -26 115t-77 53h-264v-680q0 -96 17 -148t67 -67v-16h-420v16q54 16 68 68t14 147v680h-131l-4 35h135v47q0 285 134 409t413 124q104 0 185 -41t108 -88q49 -90 10 -170q-27 -55 -85 -75t-114 7
q-55 29 -74 86t7 113q29 55 86 72q31 8 -6 34q-38 26 -92 27q-54 0 -78 -3t-73 -27q-48 -25 -81 -67q-34 -42 -60 -132t-26 -215v-101h623v-715z" />
    <glyph glyph-name="fl" unicode="&#xfb02;" horiz-adv-x="1173" 
d="M1065 231q0 -94 16 -139t68 -57v-35h-420v35q53 14 67 58q13 44 13 138v1063q0 100 -72 131q-127 47 -194 2q-35 -23 -67 -65q-68 -88 -68 -334v-82h219l-6 -35h-213v-680q0 -94 16 -138t68 -58v-35h-422v35q53 16 67 60t15 136v680h-132l-4 35h136v164q0 198 103 308
t255 108q121 0 227 -66l328 68v-1297z" />
    <glyph glyph-name="NULL" horiz-adv-x="0" 
 />
    <glyph glyph-name="CR" 
 />
    <glyph glyph-name="two.superior" horiz-adv-x="552" 
d="M248 1442q70 0 114 -45t46 -121q0 -76 -103 -201l-123 -178h158q55 0 84 53h35l-47 -174h-349l213 311q78 133 9 209q-51 53 -111 34t-82 -68l-33 6q6 49 28 85t62 60t80 29h19z" />
    <glyph glyph-name="one.superior" horiz-adv-x="475" 
d="M307 891q0 -78 82 -78v-35h-301v35q94 0 94 78v356q0 33 -19 40t-40 -3l-19 -10l-24 35l194 133h33v-551z" />
    <glyph glyph-name="a.superior" horiz-adv-x="636" 
d="M43 1052q0 62 48 91q47 29 131 49t97 25v63q0 80 -40 111q-41 31 -101 4q-29 -14 -26 -25q29 0 42 -21t8 -46q-6 -25 -26 -38t-45 -9t-42 27t3 67t70 70q51 26 98 26l16 -2q100 0 140 -55t39 -158v-160q0 -31 14 -54q13 -24 33 -23t24 22l27 -10q-4 -31 -37 -54
q-32 -22 -64 -22t-50 2t-47 21q-30 19 -33 53q-10 -31 -62 -57t-129 -16q-20 3 -54 30t-34 89zM178 1065q0 -24 20 -44q20 -21 60 -21q41 0 61 51v131q-141 -33 -141 -117z" />
    <glyph glyph-name="three.superior" horiz-adv-x="565" 
d="M252 762q-88 0 -156 53q-34 25 -26 63t33 54q26 16 55 9t45 -33t8 -56t-33 -39q-10 -4 10 -10q23 -8 76 -8t84 50t19 105q-23 121 -174 140v36q71 23 101 64t20 79q-9 38 -40 60q-32 29 -80 19t-73 -62l-35 4q8 68 50 106t81 42l37 4q68 0 119 -41t51 -111t-74 -141
q61 -23 95 -67t38 -89q5 -113 -69 -172t-162 -59z" />
    <glyph glyph-name="o.superior" horiz-adv-x="669" 
d="M299 965q27 0 43 5q48 15 61 92q9 46 9 159t-33 151q-33 37 -74 37t-60 -9q-19 -10 -37 -62t-20 -177q0 -167 70 -191q14 -5 41 -5zM299 1444q244 0 244 -260q1 -142 -59 -198t-183 -56t-183 59t-60 197t60 198t181 60z" />
    </font>
</defs>
</svg>
