<?xml version="1.0" standalone="no"?>
<!DOCTYPE svg PUBLIC "-//W3C//DTD SVG 1.1//EN" "http://www.w3.org/Graphics/SVG/1.1/DTD/svg11.dtd" >
<svg xmlns="http://www.w3.org/2000/svg">
<metadata>
Created by FontPrep 20130207 at Fri Feb  5 15:13:03 2016
 By Wilfred Denton
Copyright (c) 2006-2012, Raph Levien (firstname.lastname@gmail.com), Copyright (c) 2011-2012, Cyreal (cyreal.org)
</metadata>
<defs>
<font id="1e809497c56d5ee053aedc961ac7170b" horiz-adv-x='1024' >
  <font-face 
    font-family="Inconsolata-Bold"
    font-weight="700"
    font-stretch="normal"
    units-per-em="2048"
    panose-1="2 11 6 9 3 0 3 0 0 0"
    ascent="1638"
    descent="-410"
    x-height="936"
    cap-height="1276"
    bbox="-25 -389 1059 1759"
    underline-thickness="100"
    underline-position="-309"
    unicode-range="U+0020-F40A"
  />
<missing-glyph 
 />
    <glyph glyph-name=".notdef" 
 />
    <glyph glyph-name=".null" horiz-adv-x="0" 
 />
    <glyph glyph-name="nonmarkingreturn" horiz-adv-x="681" 
 />
    <glyph glyph-name="space" unicode=" " 
 />
    <glyph glyph-name="exclam" unicode="!" 
d="M494 1374q143 0 143 -196q0 -20 -2 -47t-4 -57t-5 -59.5t-5 -51.5l-37 -557h-185l-28 557q-4 46 -12.5 114.5t-8.5 137.5t37 114t107 45zM604 231q47 -45 47 -90q0 -74 -47.5 -117.5t-97.5 -43.5t-78.5 11t-50 31.5t-33.5 47t-12 57.5t12 57.5t46 59t100 32.5
q67 0 114 -45z" />
    <glyph glyph-name="quotedbl" unicode="&#x22;" 
d="M461 1350q39 -41 39 -113t-66 -252l-57 -158l-195 45l54 166q18 56 18 88l-14 119q0 103 51 124.5t91 21.5t79 -41zM724 1391q58 0 95 -41.5t37 -104.5q0 -81 -44 -199t-51.5 -141t-29.5 -78l-192 45l53 166q16 50 16 88l-12 119q0 103 51 124.5t77 21.5z" />
    <glyph glyph-name="numbersign" unicode="#" 
d="M475 799l-31 -277h113l33 277h-115zM326 1282l211 2l-39 -321h110l37 315l211 2l-37 -313h172l-20 -164h-172l-31 -277h182l-12 -159h-188l-41 -340l-211 -13l43 346h-115l-41 -335l-205 -2l37 335h-178l12 160h189l30 279h-202l10 161h211z" />
    <glyph glyph-name="dollar" unicode="$" 
d="M352 918q0 -91 94 -123v229q-43 -10 -68.5 -39t-25.5 -67zM631 215q121 41 121 142t-121 147v-289zM137 901q0 115 80.5 199.5t218.5 113.5v119h205q12 -3 12 -20l-12 -64v-32q160 -30 289 -185l-121 -153q-24 0 -32.5 17t-11.5 28.5t-9 21.5q-53 61 -125 76v-301
q171 -56 250.5 -135.5t79.5 -209.5t-87 -228.5t-233 -127.5v-110h-205v104q-197 33 -336 185l125 176q27 -7 36 -27t13 -31t24 -31q65 -68 148 -83v366q-309 113 -309 332z" />
    <glyph glyph-name="percent" unicode="%" 
d="M686 166.5q22 -37.5 48 -37.5q25 0 39.5 10.5t26 27.5t17.5 40.5t6 50.5t-6 51.5t-17.5 42t-25.5 27.5t-30.5 10t-32 -10t-31.5 -38t-16 -82.5t22 -92zM928 457q73 -82 73 -202t-71.5 -197.5t-178.5 -77.5t-182 79.5t-75 197.5t74.5 200t180.5 82t179 -82zM218.5 927
q21.5 -38 47.5 -38t42 10t26 27.5t16 41t6 50t-6 51.5t-16 42t-25.5 27.5t-32 10.5t-32 -10.5t-31.5 -37.5t-16 -81.5t21.5 -92.5zM459 1218.5q76 -79.5 76 -200.5t-72.5 -200t-180.5 -79t-181.5 81t-73.5 198t75 198.5t178 81.5t179 -79.5zM770 1276h209l-731 -1276h-203z
" />
    <glyph glyph-name="ampersand" unicode="&#x26;" 
d="M327.5 202.5q42.5 -55.5 102.5 -55.5q107 0 184 117l-208 299q-89 -54 -105 -129.5t-16 -125.5t42.5 -105.5zM381 1014q0 -88 90 -205q70 39 84 101.5t14 103t-25.5 76.5t-69.5 36t-68.5 -33.5t-24.5 -78.5zM725 115q-148 -148 -315 -148t-258 93t-91 226t71.5 245.5
t182.5 175.5q-143 155 -143 290q0 136 89 217.5t216 81.5t211 -86.5t84 -190.5t-55.5 -201t-147.5 -146l174 -250q36 51 54 110q0 12 1 24.5t2.5 32t20.5 36.5l185 -129q-90 -152 -146 -232q49 -70 137 -180l-172 -127z" />
    <glyph glyph-name="quotesingle" unicode="'" 
d="M552 1391q58 0 95 -41.5t37 -112.5q0 -72 -66 -252l-57 -158l-194 45l53 166q18 56 18 88l-14 119q0 105 51 125.5t77 20.5z" />
    <glyph glyph-name="parenleft" unicode="(" 
d="M802 1182q-1 0 -44 -24t-174 -157.5t-131 -479.5t164.5 -511.5t263.5 -222.5l-90 -154q-394 205 -472.5 476.5t-78.5 416.5q0 292 149 513.5t402 332.5l94 -188q-20 -8 -35 -8l-41 6h-7z" />
    <glyph glyph-name="parenright" unicode=")" 
d="M621 -16q-163 -243 -435 -357l-53 174q200 90 319 282t119 422t-110.5 408.5t-315.5 282.5l54 178q268 -113 426.5 -350.5t158.5 -516.5q0 -280 -163 -523z" />
    <glyph glyph-name="asterisk" unicode="*" 
d="M406 1075h241l-43 -315l285 129l76 -176l-320 -99l234 -280l-164 -127l-199 301l-205 -303l-161 129l239 278l-319 99l71 186l293 -137z" />
    <glyph glyph-name="plus" unicode="+" 
d="M424 1083h199v-329h327v-174h-327v-359h-199v359h-340v174h340v329z" />
    <glyph glyph-name="comma" unicode="," 
d="M662 61q0 -161 -242 -407l-115 104q90 84 111.5 134.5t21.5 66.5t-28 40t-49 48.5t-21 56.5q0 62 42 104t110 42t119 -53t51 -136z" />
    <glyph glyph-name="hyphen" unicode="-" 
d="M131 750h768v-187h-768v187z" />
    <glyph glyph-name="period" unicode="." 
d="M600.5 207.5q46.5 -44.5 46.5 -84.5q0 -68 -45 -109t-93 -41t-75.5 11.5t-48 30t-32 43t-11.5 53t12.5 54t45 56.5t93.5 31t107.5 -44.5z" />
    <glyph glyph-name="slash" unicode="/" 
d="M106 -10l635 1376l179 -92l-633 -1370z" />
    <glyph glyph-name="zero" unicode="0" horiz-adv-x="1026" 
d="M739 614q0 48 -5 99t-5 65l-373 -485q54 -127 151 -127t164.5 125.5t67.5 322.5zM289 655q0 -38 3 -72t4 -55.5t3 -35.5l373 485q-54 127 -152 127t-164.5 -126t-66.5 -323zM821 1122q137 -183 137 -501q0 -319 -128 -489.5t-320 -170.5q-88 0 -169 48t-141.5 136
t-95 211t-34.5 272.5t35.5 273.5t96 213t141.5 138.5t151 49.5q117 0 185.5 -41t141.5 -140z" />
    <glyph glyph-name="one" unicode="1" 
d="M653 1276v-1276h-225v1016l-219 -66l-55 140l346 186h153z" />
    <glyph glyph-name="two" unicode="2" 
d="M484 1305q194 0 308.5 -109t114.5 -266q0 -193 -181.5 -365t-239.5 -239.5t-93 -135.5h441q10 0 30.5 16.5t44.5 16.5v-223h-792v127q73 176 205 321t183.5 194.5t109 120t57.5 156.5t-48.5 138.5t-109.5 52.5t-93 -12.5t-52.5 -31.5t-31.5 -43t-19.5 -46.5t-14.5 -40.5
t-16 -27l-176 138q57 127 160 192.5t213 65.5z" />
    <glyph glyph-name="three" unicode="3" 
d="M487 1305q168 0 279 -100t111 -248q0 -147 -75 -205t-108 -72q137 -49 174 -155.5t37 -182.5t-28.5 -148.5t-116.5 -152.5t-307 -80t-357 172l162 197q15 -11 23 -34.5t17 -41.5q19 -38 69.5 -66t99.5 -28q93 0 151 59t58 153t-69 145.5t-177 51.5l-8 -1l-105 -3v185
q261 0 294.5 77.5t33.5 117.5q0 72 -43.5 117.5t-120.5 45.5q-111 0 -213 -123l-131 148q130 172 350 172z" />
    <glyph glyph-name="four" unicode="4" horiz-adv-x="1019" 
d="M565 500v381l-258 -381h258zM788 1276v-770h170v-193h-170v-313h-231v315h-487v144l553 817h165z" />
    <glyph glyph-name="five" unicode="5" 
d="M560 856q75 0 149.5 -29.5t154.5 -117t80 -294.5t-116 -330.5t-308 -123.5q-286 0 -411 242l182 137q18 -9 23 -32t8 -32q20 -45 68 -78.5t106 -33.5q108 0 164.5 66.5t56.5 182.5t-52.5 184.5t-144.5 68.5q-61 0 -108 -30t-93 -93l-147 63l47 670h686v-195h-485
l-17 -247q82 22 157 22z" />
    <glyph glyph-name="six" unicode="6" 
d="M338 487q0 -129 57.5 -222t133.5 -93q77 0 125 63t48 177t-52 174.5t-130 60.5q-43 0 -95 -33.5t-87 -89.5v-37zM545 850q164 0 274.5 -123.5t110.5 -312.5t-115.5 -321t-284.5 -132q-201 0 -313.5 175t-112.5 480t131.5 496t344.5 191q171 0 321 -150l-153 -166
q-18 4 -23.5 18.5t-8.5 24.5t-11 23q-46 53 -127 53t-153.5 -84.5t-90.5 -267.5q96 96 211 96z" />
    <glyph glyph-name="seven" unicode="7" 
d="M135 1075v201h768v-117q-229 -524 -422 -1159h-248q207 625 394 1075h-492z" />
    <glyph glyph-name="eight" unicode="8" 
d="M420.5 869.5q43.5 -44.5 124.5 -91.5q51 35 86 85.5t35 92.5t-11.5 67.5t-32 43.5t-47 29.5t-57.5 11.5t-57.5 -10.5t-55 -38t-28.5 -86.5t43.5 -103.5zM643 475q-55 63 -154 100q-112 -58 -136.5 -125t-24.5 -121.5t56.5 -107.5t133.5 -53t128.5 49.5t51.5 122
t-55 135.5zM711 684q229 -136 229 -360q0 -66 -33 -134.5t-91 -120t-136 -80t-215.5 -28.5t-258 109t-120.5 262q0 97 65 193t171 153q-122 78 -149.5 162t-27.5 140t30 118.5t112 136.5t237 74t235.5 -72t109 -131.5t28.5 -115.5q0 -94 -54 -175t-132 -131z" />
    <glyph glyph-name="nine" unicode="9" 
d="M495 616q43 0 95.5 34t87.5 89v37q0 127 -56 221.5t-141 94.5q-114 0 -141 -92.5t-27 -151.5t15.5 -103.5t39 -73t54 -42t73.5 -13.5zM445 -39q-180 0 -330 152l153 166q18 -4 23.5 -18.5t8.5 -25t11 -22.5q46 -53 153.5 -53t157.5 126t60 224q-96 -96 -211 -96
q-161 0 -273 122.5t-112 312.5t115.5 322t283.5 132q194 0 310 -173t116 -479q0 -305 -97 -448.5t-184.5 -192.5t-184.5 -49z" />
    <glyph glyph-name="colon" unicode=":" 
d="M582.5 211q48.5 -41 48.5 -98t-45.5 -98.5t-93.5 -41.5t-75.5 11.5t-47 30t-31.5 43t-12 53t12 54t44.5 56.5t92.5 31q59 0 107.5 -41zM582 851.5q49 -39.5 49 -96.5q0 -58 -46.5 -100.5t-92.5 -42.5t-73.5 11.5t-48 31t-32.5 44t-12 53t12 54t45 55.5t92 30
q58 0 107 -39.5z" />
    <glyph glyph-name="semicolon" unicode=";" 
d="M582 851.5q49 -39.5 49 -96.5q0 -58 -46.5 -100.5t-92.5 -42.5t-73.5 11.5t-48 31t-32.5 44t-12 53t12 54t45 55.5t92 30q58 0 107 -39.5zM647 61q0 -156 -241 -407l-117 104q90 83 112.5 134t22.5 68t-29 40t-49 47.5t-20 56.5q0 62 42 104t92 42q83 0 135 -54t52 -135z
" />
    <glyph glyph-name="less" unicode="&#x3c;" 
d="M954 989l-639 -327l646 -363v-219l-895 524v119l888 469v-203z" />
    <glyph glyph-name="equal" unicode="=" 
d="M84 522h866v-174h-866v174zM84 940h866v-174h-866v174z" />
    <glyph glyph-name="greater" unicode="&#x3e;" 
d="M78 989v203l893 -469v-119l-895 -524v219l643 363z" />
    <glyph glyph-name="question" unicode="?" 
d="M530 1376q174 0 277.5 -109t103.5 -259t-81.5 -225t-115.5 -103q-56 -45 -67.5 -85t-11.5 -103v-113h-203v113q0 96 24 159.5t100 138.5q76 74 101 125.5t25 94.5q0 81 -47.5 132.5t-112.5 51.5q-137 0 -256 -199l-153 146q164 235 417 235zM639.5 207.5
q50.5 -40.5 50.5 -98.5t-45 -99t-92 -41q-76 0 -122 41.5t-46 82.5q0 42 12.5 67.5t45 56.5t89.5 31t107.5 -40.5z" />
    <glyph glyph-name="at" unicode="@" 
d="M776 776q-120 0 -183 -46t-63 -111q0 -64 30 -101t75 -37q80 0 110.5 68t30.5 227zM602 -29q-234 0 -392.5 177t-158.5 497t151 492t402 172t308 -198t57 -335v-442h-187v63q-64 -78 -175 -78t-192 81t-81 202q0 320 434 328q-13 148 -92.5 182.5t-130.5 34.5t-106.5 -31
t-127 -130t-71.5 -335t108 -375t266 -139q123 0 222 84l82 -151q-133 -99 -316 -99z" />
    <glyph glyph-name="A" unicode="A" 
d="M629 489l-133 424l-125 -424h258zM0 0l426 1298h133l467 -1298h-240l-116 330h-334l-100 -330h-236z" />
    <glyph glyph-name="B" unicode="B" 
d="M725 377q0 215 -268 215h-146v-397h178q236 0 236 182zM311 1085v-307h140q179 0 206 61.5t27 93.5q0 65 -54 108.5t-159 43.5h-160zM82 1276h387q334 0 390 -128t56 -184q0 -100 -43 -170.5t-112 -109.5q135 -60 170 -161t35 -167t-63 -211t-435 -145h-385v1276z" />
    <glyph glyph-name="C" unicode="C" 
d="M588 -37q-241 0 -385 170t-144 498q0 235 73.5 386t191 221.5t252.5 70.5t249.5 -79t171.5 -212l-206 -103q-14 3 -15.5 17t-2.5 25.5t-5 23.5q-62 141 -193 141t-204.5 -132t-73.5 -346t78.5 -351t206.5 -137q129 0 227 170l174 -113q-72 -125 -175 -187.5t-220 -62.5z
" />
    <glyph glyph-name="D" unicode="D" 
d="M391 180q354 0 354 452t-333 453h-99v-905h78zM90 1276h330q233 0 394 -137.5t161 -552.5t-213 -500.5t-367 -85.5h-305v1276z" />
    <glyph glyph-name="E" unicode="E" 
d="M115 1276h831v-197h-608v-315h504v-201h-504v-366h604v-197h-827v1276z" />
    <glyph glyph-name="F" unicode="F" 
d="M139 1276h793v-195h-563v-299h454v-192h-454v-590h-230v1276z" />
    <glyph glyph-name="G" unicode="G" 
d="M33 639q0 248 85 398t203.5 211t207.5 61q154 0 259.5 -68.5t167.5 -181.5l-143 -146q-37 16 -44 27.5t-11 20.5l-12 27q-20 45 -75.5 85.5t-114.5 40.5q-125 0 -205.5 -115t-80.5 -347t78.5 -363t197.5 -131t189 53v240h-217v194h434v-536q-172 -146 -410 -146
t-373.5 187t-135.5 489z" />
    <glyph glyph-name="H" unicode="H" 
d="M936 0h-236v571h-376v-571h-236v1276h250q4 -4 4 -9t-7.5 -21.5t-10.5 -41.5v-442h376v514h250q4 -4 4 -9t-6.5 -14.5t-11.5 -48.5v-1204z" />
    <glyph glyph-name="I" unicode="I" 
d="M162 1276h712v-191h-247v-897h258v-188h-735v190h247v895h-235v191z" />
    <glyph glyph-name="J" unicode="J" 
d="M291 1276h659v-191h-192v-673q0 -221 -102 -334t-263 -113q-208 0 -342 178l146 176q14 -3 21 -20.5t12.5 -30t11.5 -26.5q46 -62 79 -71t62 -9q76 0 110.5 64.5t34.5 211.5v647h-237v191z" />
    <glyph glyph-name="K" unicode="K" 
d="M877 1276h141l-475 -543l493 -731l-278 -12l-379 592l-55 -60v-522h-236v1276h250q4 -4 4 -9t-7.5 -21.5t-10.5 -41.5v-416l434 504q70 -16 119 -16z" />
    <glyph glyph-name="L" unicode="L" 
d="M940 193v-193h-815v1276h250q4 -4 4 -11t-7 -18.5t-12 -42.5v-1011h580z" />
    <glyph glyph-name="M" unicode="M" 
d="M61 1276h242l215 -600l213 602h244v-1278h-207v926l-178 -482h-152l-172 482v-926h-205v1276z" />
    <glyph glyph-name="N" unicode="N" 
d="M958 0h-253l-433 965v-965h-206v1276h280l406 -914v914h221q4 -4 4 -11t-7 -18.5t-12 -42.5v-1204z" />
    <glyph glyph-name="O" unicode="O" 
d="M272 659q0 -238 67 -362.5t177 -124.5q162 0 198 169t36 299q0 239 -69 351.5t-163 112.5q-174 0 -210 -161t-36 -284zM35 641.5q0 298.5 131 483t343 184.5q211 0 345.5 -173t134.5 -508t-139 -500t-349 -165t-338 190t-128 488.5z" />
    <glyph glyph-name="P" unicode="P" 
d="M528 711q201 0 201 178q0 82 -52 133t-147 51h-194v-362h192zM102 1276h433q214 0 322 -108t108 -323t-155 -272t-265 -57h-209v-516h-234v1276z" />
    <glyph glyph-name="Q" unicode="Q" 
d="M272 659q0 -238 67 -362.5t177 -124.5q162 0 198 169t36 299q0 239 -69 351.5t-163 112.5q-174 0 -210 -161t-36 -284zM35 650q0 290 131 474.5t343 184.5q211 0 345.5 -173t134.5 -484t-104 -472t-264 -203q2 -35 24.5 -57t65.5 -20l202 8l-6 -207h-164
q-172 0 -255 64.5t-87 211.5q-263 70 -314.5 302.5t-51.5 370.5z" />
    <glyph glyph-name="R" unicode="R" 
d="M330 1073v-350h184q148 0 172.5 66.5t24.5 105.5q0 90 -47.5 134t-149.5 44h-184zM96 1276h404q229 0 337.5 -100.5t108.5 -280.5q0 -106 -66.5 -205t-177.5 -135l299 -555h-258l-264 528h-149v-528h-234v1276z" />
    <glyph glyph-name="S" unicode="S" 
d="M709 340q0 89 -88.5 137.5t-172.5 82.5q-177 71 -262.5 166t-85.5 235q0 139 117.5 243.5t300.5 104.5q117 0 218.5 -49.5t172.5 -141.5l-129 -172q-24 0 -29.5 13.5t-7.5 22.5t-8 19q-82 119 -239 119q-110 0 -134 -56t-24 -87q0 -69 56 -122t183 -104
q216 -87 290.5 -178t74.5 -221q0 -259 -165 -324t-291 -65q-250 0 -429 193l117 204q22 -4 47 -55.5t108 -98t179 -46.5q201 0 201 180z" />
    <glyph glyph-name="T" unicode="T" 
d="M41 1276h940v-199h-360v-1077h-234v1077h-346v199z" />
    <glyph glyph-name="U" unicode="U" 
d="M324 1268q0 -6 -9.5 -23t-9.5 -41v-755q0 -211 74 -249t134 -38q114 0 162 75t48 218v821h225v-819q0 -243 -115.5 -364.5t-323.5 -121.5t-320.5 126.5t-112.5 353.5v825h243q5 -2 5 -8z" />
    <glyph glyph-name="V" unicode="V" 
d="M20 1276h242l268 -905l254 905h236l-410 -1276h-176z" />
    <glyph glyph-name="W" unicode="W" 
d="M12 1276h224l73 -842l150 737h147l150 -731l53 836h213l-152 -1276h-180l-168 776l-170 -776h-184z" />
    <glyph glyph-name="X" unicode="X" 
d="M733 1276h238l-318 -623l359 -653h-258l-234 438l-227 -438h-250l344 651l-340 625h250l221 -418z" />
    <glyph glyph-name="Y" unicode="Y" 
d="M653 0h-241v504l-394 772h256l263 -516l233 516h248l-365 -774v-502z" />
    <glyph glyph-name="Z" unicode="Z" 
d="M106 1276h838v-139l-567 -940h491q23 2 36.5 8t23.5 10l20 8t27 4v-227h-891v139l578 938h-556v199z" />
    <glyph glyph-name="bracketleft" unicode="[" 
d="M242 1370h635v-190h-420v-1180h420v-184h-635v1554z" />
    <glyph glyph-name="backslash" unicode="\" 
d="M922 -10l-179 -86l-639 1376l179 94z" />
    <glyph glyph-name="bracketright" unicode="]" 
d="M780 1370v-1554h-633v184h418v1180h-415v190h630z" />
    <glyph glyph-name="asciicircum" unicode="^" 
d="M158 760l331 520h74l293 -520l-168 -80l-170 354l-192 -354z" />
    <glyph glyph-name="underscore" unicode="_" 
d="M59 -16h906v-191h-906v191z" />
    <glyph glyph-name="grave" unicode="`" 
d="M622 903q-40 -26 -72 -26t-88 13.5t-159 283.5l-59 159l180 84l65 -166q33 -73 82 -122q50 -50 70.5 -77.5t20.5 -74.5q0 -48 -40 -74z" />
    <glyph glyph-name="a" unicode="a" 
d="M351 185q42 -35 93 -35q88 0 149 50.5t81 96.5q16 28 16 119l-84 2q-239 5 -268 -59t-29 -101q0 -38 42 -73zM516 977q389 0 389 -395v-582h-219v86q-53 -51 -127.5 -81t-154.5 -30q-155 0 -238.5 79t-83.5 200q0 150 125 243t356 93h121q-2 109 -44 158t-132 49
q-117 0 -238 -127l-116 151q147 156 362 156z" />
    <glyph glyph-name="b" unicode="b" 
d="M510 791q-180 1 -180 -315t186 -316q81 0 145 74.5t64 232.5q0 241 -84 282.5t-131 41.5zM102 0v1382h258q0 -18 -12.5 -30.5t-15.5 -28.5v-449q95 103 221 103q173 0 288 -125.5t115 -364.5t-123 -378.5t-280 -139.5t-260 123l-31 -92h-160z" />
    <glyph glyph-name="c" unicode="c" 
d="M938 137q-155 -170 -374 -170t-352.5 143t-133.5 362q0 218 137 361.5t348 143.5q256 0 383 -184l-147 -172q-16 4 -20.5 24.5t-6.5 28.5q-69 112 -209 112q-105 0 -178.5 -86.5t-73.5 -220t72 -224.5t194 -91q123 0 228 127z" />
    <glyph glyph-name="d" unicode="d" 
d="M690 476q0 316 -182 315q-83 0 -139 -62q-76 -82 -76 -251t64 -243.5t145 -74.5q188 0 188 316zM698 59v29q-44 -80 -121 -99.5t-135 -19.5t-131 31t-161.5 129t-88.5 333t119 375t287 140q125 0 221 -96v501h258q0 -12 -2 -15l-13 -19q-11 -17 -13 -25v-1208
q0 -45 18 -115h-217q-21 14 -21 59z" />
    <glyph glyph-name="e" unicode="e" 
d="M707 582q0 147 -74 185t-136.5 38t-118 -59.5t-67.5 -163.5h396zM915 139q-145 -172 -360 -172t-347 134.5t-132 367.5t127.5 370.5t315.5 137.5t302.5 -122t114.5 -345q0 -30 -6 -96h-627q15 -129 84.5 -196.5t165.5 -67.5q143 0 235 116z" />
    <glyph glyph-name="f" unicode="f" 
d="M735 1217q-86 0 -128 -63.5t-42 -199.5v-49h293v-182h-293v-723h-223v723h-207v182h207v68q0 201 111.5 313.5t292.5 112.5t309 -156l-94 -184q-16 0 -21.5 10t-11.5 33q-49 73 -104.5 94t-88.5 21z" />
    <glyph glyph-name="g" unicode="g" 
d="M276 -80q0 -78 92.5 -91t140.5 -13q101 0 161.5 34t64.5 84q-4 86 -119 86q-149 0 -268 7q-72 -45 -72 -107zM66 -122q0 121 124 202q-61 44 -61 131t117 186q-56 33 -93.5 103.5t-37.5 141.5q0 144 111.5 243.5t244.5 99.5t221 -67q89 61 211 61h66l30 -195l-106 13
q-43 0 -88 -17q33 -78 33 -139q0 -128 -106.5 -226t-254.5 -98q-42 0 -84 11q-61 -38 -61 -72q0 -35 28.5 -44t75.5 -9l142 6q368 0 368 -258q0 -125 -116 -215t-326 -90q-326 0 -382 97t-56 135zM371 766q-43 -43 -43 -117q0 -104 56 -129.5t91 -25.5t62.5 12t47 33.5
t30 49t10.5 60.5t-10.5 61.5t-42 63.5t-95.5 35q-63 0 -106 -43z" />
    <glyph glyph-name="h" unicode="h" 
d="M696 578q0 210 -143 210q-83 0 -141 -65.5t-58 -169.5v-553h-231v1382h260q0 -18 -14.5 -32.5t-14.5 -26.5v-465q49 53 116 86t134 33q318 0 318 -397v-580h-226v578z" />
    <glyph glyph-name="i" unicode="i" 
d="M207 956h448v-778h211v-178h-669v178h231v600h-221v178zM541 1384q33 0 59.5 -10t46 -28.5t30.5 -42t11 -50t-11 -51t-30.5 -42t-46.5 -28t-70.5 -10.5t-86 38.5t-42.5 89.5q0 52 27 82t53.5 41t59.5 11z" />
    <glyph glyph-name="j" unicode="j" 
d="M648 1393q32 0 58.5 -10.5t46 -29t32 -44t12.5 -52t-12.5 -51t-32 -43t-46 -30t-69.5 -11.5t-87 40t-44 95q0 56 28.5 84.5t55 40t58.5 11.5zM203 956h563v-909q0 -204 -107.5 -306.5t-286.5 -102.5t-313 159l142 187q16 -6 22 -29t24 -47t55.5 -50t74.5 -26
q73 0 115.5 50.5t42.5 156.5v731h-332v186z" />
    <glyph glyph-name="k" unicode="k" 
d="M123 1382h260q0 -18 -14.5 -32.5t-14.5 -24.5v-721l367 363q74 -16 117 -17h149l-391 -377q65 -78 222 -292.5t210 -278.5l-280 -10l-316 440l-78 -74v-358h-231v1382z" />
    <glyph glyph-name="l" unicode="l" 
d="M150 1382h479v-1204h262v-178h-754v178h262v1026h-249v178z" />
    <glyph glyph-name="m" unicode="m" 
d="M416 657q0 160 -60 160q-43 0 -63.5 -42t-20.5 -140v-635h-206v967h196v-60q86 90 165 90t116 -41t51 -73q35 55 88 84.5t107 29.5q104 0 147 -69.5t43 -220.5v-707h-213v668q0 80 -13.5 114.5t-47.5 34.5q-78 0 -78 -188v-629h-211v657z" />
    <glyph glyph-name="n" unicode="n" 
d="M696 578q0 210 -143 210q-83 0 -141 -65.5t-58 -169.5v-553h-231v956h231v-98q49 53 116 86t134 33q318 0 318 -397v-580h-226v578z" />
    <glyph glyph-name="o" unicode="o" 
d="M737 469q0 232 -88 278t-136 46t-88 -21.5t-68.5 -62.5t-45 -99.5t-16.5 -169.5t61.5 -198.5t161.5 -87.5t159.5 80.5t59.5 234.5zM193 107q-134 140 -134 360t136 365t325 145t317 -134t128 -368.5t-126 -371t-319 -136.5t-327 140z" />
    <glyph glyph-name="p" unicode="p" 
d="M332 956v-98q83 119 244 119t276 -135t115 -376t-116 -369t-288 -128q-59 0 -119.5 25.5t-101.5 68.5v-405h-229l-2 1298h221zM342 487q0 -329 186 -329q82 0 145.5 75t63.5 232q0 156 -55 239.5t-160 83.5q-149 0 -164.5 -121t-15.5 -180z" />
    <glyph glyph-name="q" unicode="q" 
d="M682 481q0 310 -195 310q-81 0 -138.5 -81.5t-57.5 -222.5t59 -233t147 -92q87 0 136 78.5t49 240.5zM465 977q98 0 154.5 -38t74.5 -60v77h221v-1298h-229v408q-86 -99 -223 -99q-171 0 -287.5 145.5t-116.5 367.5t115 359.5t291 137.5z" />
    <glyph glyph-name="r" unicode="r" 
d="M418 852q106 125 280 125q60 0 132.5 -25.5t130.5 -79.5l-107 -223q-93 133 -193 133t-173.5 -83.5t-73.5 -198.5v-500h-232v956h236v-104z" />
    <glyph glyph-name="s" unicode="s" 
d="M688 250q0 68 -66.5 93.5t-161.5 51.5t-152.5 61.5t-88.5 68t-47 74.5t-16 121.5t110.5 168t268.5 88.5q227 0 374 -166l-110 -166q-14 0 -18.5 11.5t-6.5 18.5t-4 13q-56 71 -133.5 91t-112.5 20q-155 0 -155 -84q0 -49 54.5 -76t194.5 -65q140 -37 221 -113t81 -172
q0 -130 -111.5 -226t-296.5 -96q-246 0 -416 162l119 215q12 -2 18.5 -14.5t14.5 -34.5q31 -52 112.5 -95.5t155.5 -43.5q172 0 172 94z" />
    <glyph glyph-name="t" unicode="t" 
d="M303 393q0 137 19 377h-207v186h219l14 224l254 43q0 -27 -8 -43.5t-14 -38.5l-21 -185h289v-186h-297q-2 -74 -9 -152.5t-7 -200.5t20.5 -185.5t87 -63.5t217.5 113l72 -189q-178 -125 -324 -125q-238 0 -271.5 144.5t-33.5 281.5z" />
    <glyph glyph-name="u" unicode="u" 
d="M680 59v31q-57 -89 -139.5 -110t-138.5 -21q-136 0 -217 94.5t-81 304.5v598h226v-598q0 -111 38 -161t90 -50q98 0 156 68t58 168v573h231v-841q0 -50 19 -115h-222q-20 13 -20 59z" />
    <glyph glyph-name="v" unicode="v" 
d="M328 956q0 -17 -7.5 -33.5t-7.5 -31.5l217 -612l93 270q77 217 116 407h219q-56 -229 -143 -438l-213 -518h-188l-363 956h277z" />
    <glyph glyph-name="w" unicode="w" 
d="M270 956q0 -15 -11 -30t-11 -22v-10q0 -9 2 -15l88 -598l119 565h141l135 -563q49 318 49 610v63h217q-53 -490 -147 -956h-203l-125 532l-118 -532h-209l-181 956h254z" />
    <glyph glyph-name="x" unicode="x" 
d="M694 956h248l-305 -464q127 -182 216 -310.5t128 -181.5h-262l-209 324l-197 -324h-262l330 485q-291 420 -326 471h258l195 -309z" />
    <glyph glyph-name="y" unicode="y" 
d="M344 956l-14 -65l213 -594l92 252q78 221 117 407h219q-46 -187 -144 -438l-237 -622q-100 -258 -314 -258q-141 0 -253 108l114 197q24 -12 34.5 -65.5t92.5 -53.5q46 0 84 42t74 146l-359 944h281z" />
    <glyph glyph-name="z" unicode="z" 
d="M127 936h764v-143l-490 -600h435q16 0 47 15t53 15v-223h-848v143l496 598h-457v195z" />
    <glyph glyph-name="braceleft" unicode="{" 
d="M520 53q0 -104 44 -151t145 -47h143v-181h-115q-123 0 -207 23.5t-114 46.5q-125 93 -125 309l6 203q0 140 -45 156t-74 16h-86v182h84q63 0 94 38t31 126l-1 22l-3 140q0 182 98.5 275.5t292.5 93.5h166v-185h-201q-129 0 -129 -164v-9l4 -150q0 -90 -38.5 -162
t-106.5 -115q60 -39 100.5 -114.5t40.5 -178.5l-1 -37z" />
    <glyph glyph-name="bar" unicode="|" 
d="M403 1335h220v-1644h-220v1644z" />
    <glyph glyph-name="braceright" unicode="}" 
d="M289 -326h-115v181h143q100 0 144.5 47t44.5 151v7l-4 167q0 148 55 210.5t86 82.5q-68 43 -106.5 115t-38.5 162l1 31l3 128q0 164 -129 164h-201v185h166q391 0 391 -369l-1 -32l-3 -130q0 -86 30.5 -125t94.5 -39h84v-182h-86q-62 0 -90.5 -38.5t-28.5 -133.5l6 -203
q0 -217 -125 -309q-48 -35 -143.5 -52.5t-177.5 -17.5z" />
    <glyph glyph-name="asciitilde" unicode="~" 
d="M367 795q-68 0 -146 -131l-166 112q60 94 150 158.5t167 64.5t124.5 -35.5t75.5 -55.5t53 -38t47 -18q38 0 72 29t92 112l153 -123q-66 -102 -144 -161.5t-163 -59.5t-158 58q-20 14 -63.5 51t-93.5 37z" />
    <glyph glyph-name="Zcaron" 
d="M106 1276h838v-139l-567 -940h491q23 2 36 8q14 6 24 10l20 8t27 4v-227h-891v139l578 938h-556v199zM825 1550l-272 -221h-64l-258 217l78 92l215 -135l232 129z" />
    <glyph glyph-name="Zcaron" unicode="&#x17d;" 
d="M106 1276h838v-139l-567 -940h491q23 2 36 8q14 6 24 10l20 8t27 4v-227h-891v139l578 938h-556v199zM825 1550l-272 -221h-64l-258 217l78 92l215 -135l232 129z" />
    <glyph glyph-name="zcaron" 
d="M127 936h764v-143l-490 -600h435q16 0 28 6q48 24 72 24v-223h-848v143l496 598h-457v195zM791 1348l-236 -297h-66l-235 299l119 88l155 -181l164 179z" />
    <glyph glyph-name="zcaron" unicode="&#x17e;" 
d="M127 936h764v-143l-490 -600h435q16 0 28 6q48 24 72 24v-223h-848v143l496 598h-457v195zM791 1348l-236 -297h-66l-235 299l119 88l155 -181l164 179z" />
    <glyph glyph-name="nonbreakingspace" unicode="&#xa0;" 
 />
    <glyph glyph-name="exclamdown" unicode="&#xa1;" 
d="M494 -20q-70 0 -107 46t-37 114t8.5 134.5t12.5 116.5l28 557h185l37 -557l16 -215q0 -196 -143 -196zM332 1211.5q0 45.5 12 72.5t33.5 47.5t50.5 31.5t78.5 11t97 -43.5t47.5 -100.5t-47 -108q-47 -45 -113 -45t-112.5 44.5t-46.5 90z" />
    <glyph glyph-name="cent" unicode="&#xa2;" 
d="M313 542q0 -157 103 -243l67 547q-118 -42 -144 -140t-26 -164zM80 552q0 193 120 334t310 163l29 229l221 -21q0 -19 -19 -65l-22 -160q135 -37 221 -155l-135 -181q-15 4 -20 24.5t-7 29.5q-27 49 -86 81l-76 -587q115 20 195 123l133 -154q-143 -161 -354 -170
l-27 -205l-201 25l27 209q-217 84 -263 236.5t-46 243.5z" />
    <glyph glyph-name="sterling" unicode="&#xa3;" 
d="M205 924q0 61 29.5 131.5t109 151.5t246.5 81t297 -141l-137 -170q-31 12 -44.5 32.5t-34 57.5t-87.5 37q-104 0 -131 -76t-27 -125t8 -90h205v-182h-162q15 -81 15 -138q0 -194 -60 -257q8 2 12 2h41q43 0 137.5 -33t115.5 -33t38 5t34 15.5t38.5 27t48.5 36.5l86 -176
q-133 -109 -252 -109q-47 0 -174.5 43t-184.5 43t-233 -92l-82 182q126 45 156 95q59 95 59 221q0 64 -18 168h-133v182h92q-8 50 -8 111z" />
    <glyph glyph-name="currency" unicode="&#xa4;" 
d="M360 706.5q0 -34.5 11.5 -64.5t32 -52.5t48 -35.5t60.5 -13t60.5 13t48 35.5t32 52.5t11.5 64.5t-11.5 65.5t-32 53.5t-48 35.5t-60.5 13t-60.5 -13t-48 -35.5t-32 -53.5t-11.5 -65.5zM516 1038q82 0 158 -39l110 109l134 -121l-113 -110q47 -71 47 -164q0 -92 -47 -172
l113 -111l-134 -121l-108 109q-66 -39 -164 -39t-164 41l-108 -111l-134 121l113 115q-45 76 -45 162t45 167l-113 113l134 121l110 -111q84 41 166 41z" />
    <glyph glyph-name="yen" unicode="&#xa5;" 
d="M152 592h258l-375 684h254l239 -483l222 483h239l-350 -684h252v-182h-252v-62h252v-180h-252v-168h-223v168h-264v180h264v62h-264v182z" />
    <glyph glyph-name="brokenbar" unicode="&#xa6;" 
d="M623 -309h-220v755h220v-755zM403 1335h220v-778h-220v778z" />
    <glyph glyph-name="section" unicode="&#xa7;" 
d="M412 778q-39 -20 -39 -105q0 -34 40 -75t94 -56t103 -32q29 25 29 80q0 110 -162 166zM743 426q113 -92 113 -222t-103 -225.5t-266 -95.5q-234 0 -378 203l141 166q14 0 20 -7t12 -27q15 -46 75.5 -90t110.5 -44q83 0 122 35t39 72q0 66 -46 101.5t-135 62.5
q-162 48 -234.5 120t-72.5 174q0 58 44.5 123.5t109.5 91.5q-53 29 -89 89.5t-36 120.5q0 127 101.5 219.5t258.5 92.5t236.5 -84.5t107.5 -134.5l-169 -147q-18 4 -23.5 14t-9.5 38q-7 50 -50.5 89t-85.5 39q-65 0 -100 -35t-35 -73q0 -66 52.5 -103.5t134.5 -65.5
t126 -52.5t102 -85t58 -156.5q0 -60 -36.5 -118.5t-94.5 -84.5z" />
    <glyph glyph-name="dieresis" unicode="&#xa8;" 
d="M799.5 1348q44.5 -38 44.5 -92t-42 -94t-99 -40t-99.5 38.5t-42.5 79.5q0 42 11.5 65.5t41.5 52t85 28.5q56 0 100.5 -38zM424.5 1348q44.5 -38 44.5 -92t-41.5 -94t-86 -40t-70 10.5t-45 29t-31 42t-11.5 50t11.5 50t41 53t86.5 29.5t101.5 -38z" />
    <glyph glyph-name="copyright" unicode="&#xa9;" 
d="M259.5 276q103.5 -120 254.5 -120q150 0 256.5 121t106.5 286t-106.5 284.5t-256 119.5t-254 -119.5t-104.5 -285.5t103.5 -286zM868 193q-148 -156 -357 -156t-355 152t-146 368t148 370t354 154q207 0 356.5 -153.5t149.5 -367.5q0 -213 -150 -367zM528 725
q-126 0 -125 -149q0 -79 30 -129t93 -50q85 0 125 103l144 -92q-43 -78 -116 -123t-151 -45q-141 0 -225 94.5t-84 230.5q0 135 84 224.5t201 89.5q185 0 236 -89.5t63 -136.5l-160 -57q-16 4 -16 25t-7 43t-35.5 41.5t-56.5 19.5z" />
    <glyph glyph-name="ordfeminine" unicode="&#xaa;" 
d="M141 453h748v-160h-748v160zM627 842q-194 0 -215 -34t-21 -53q0 -38 24.5 -58.5t56.5 -20.5q67 0 111 38t44 128zM623 586q-63 -72 -194 -72q-95 0 -171 64.5t-76 165.5t70 162t197 79q85 6 172 6q0 121 -105 121q-92 0 -182 -102l-113 133q133 133 307 133
q139 0 218 -69.5t79 -205.5v-466h-202v51z" />
    <glyph glyph-name="guillemotleft" unicode="&#xab;" 
d="M457 856l131 -137l-232 -223l244 -265l-137 -135l-342 369v67zM463 532l334 324l133 -137l-234 -223l244 -265l-135 -135l-342 369v67z" />
    <glyph glyph-name="logicalnot" unicode="&#xac;" 
d="M166 750h702v-435h-215v240h-487v195z" />
    <glyph glyph-name="softhyphen" unicode="&#xad;" 
d="M131 750h768v-187h-768v187z" />
    <glyph glyph-name="registered" unicode="&#xae;" 
d="M594 678q0 53 -98 53h-50v-113h56q92 0 92 60zM496 856q256 0 256 -174q0 -49 -28 -91t-77 -65l119 -231l-150 -23l-114 232h-56v-223h-141v575h191zM259.5 276q103.5 -120 254.5 -120q150 0 256.5 121t106.5 286t-106.5 284.5t-256 119.5t-254 -119.5t-104.5 -285.5
t103.5 -286zM868 193q-148 -156 -357 -156t-355 152t-146 368t148 370t354 154q207 0 356.5 -153.5t149.5 -367.5q0 -213 -150 -367z" />
    <glyph glyph-name="macron" unicode="&#xaf;" 
d="M221 1315h574v-180h-574v180z" />
    <glyph glyph-name="degree" unicode="&#xb0;" 
d="M418 1075q0 -55 28.5 -91t76.5 -36t79 36t31 78q0 69 -31 105.5t-78 36.5t-76.5 -37t-29.5 -92zM526 1364q61 0 115.5 -23.5t95.5 -63.5t64.5 -93.5t23.5 -110.5t-23.5 -110.5t-64.5 -93.5t-95 -63.5t-117.5 -23.5t-119 22.5t-95.5 61.5t-63.5 92.5t-23.5 115t24.5 114.5
t65.5 92t96.5 61.5t116.5 22.5z" />
    <glyph glyph-name="plusminus" unicode="&#xb1;" 
d="M412 1180h213v-324h321v-190h-321v-353h-213v353h-334v190h334v324zM80 225h868v-192h-868v192z" />
    <glyph glyph-name="uni00B2" unicode="&#xb2;" 
d="M539 1337q115 0 201.5 -72.5t86.5 -181.5q0 -79 -36.5 -124.5t-81.5 -81t-91 -69.5t-55.5 -42t-17.5 -13t-11 -7l-30 -31h266q10 0 31 14t41 14v-204h-621v129q94 131 266 262l54 41q77 58 77 116q0 31 -24.5 54.5t-67.5 23.5t-91 -26t-57 -64.5t-20 -52.5l-165 108
q120 207 346 207z" />
    <glyph glyph-name="uni00B3" unicode="&#xb3;" 
d="M485 1032q59 0 84 18t25 36q0 33 -26.5 55t-65.5 22q-84 0 -174 -112l-129 131q131 155 309 155q118 0 205.5 -68.5t87.5 -164.5q0 -95 -84 -146q78 -34 97.5 -88.5t19.5 -93.5t-28 -86t-101 -101t-203 -54q-184 0 -326 159l150 170q12 -14 19 -30.5t15 -33.5
q14 -30 50 -57.5t87 -27.5t88.5 24.5t37.5 59.5q0 67 -119 67h-3l-102 -4v178l19 -2z" />
    <glyph glyph-name="acute" unicode="&#xb4;" 
d="M571 1462l166 -114l-215 -289l-114 67z" />
    <glyph glyph-name="micro" unicode="&#xb5;" 
d="M417 -18q-114 0 -186 47v-344h-211q0 144 10 275q28 381 27 458v518h219v-549q0 -182 55.5 -204.5t82.5 -26.5q56 8 98.5 66t42.5 161v553h215v-680q0 -92 26 -92t50 49l53 102l105 -194q-98 -139 -213 -139t-170 86q-90 -86 -204 -86z" />
    <glyph glyph-name="paragraph" unicode="&#xb6;" 
d="M930 1364v-1505h-203v1323h-80v-1323h-205v790q-143 19 -240.5 123t-97.5 236q0 249 183.5 302.5t328.5 53.5h314z" />
    <glyph glyph-name="periodcentered" unicode="&#xb7;" 
d="M487.5 827q64.5 0 113 -44.5t48.5 -87.5q0 -44 -12 -70.5t-34.5 -46t-52.5 -30.5t-62.5 -11t-61.5 11t-50.5 30.5t-33.5 46t-12 57.5t13 57.5t46.5 57t98 30.5z" />
    <glyph glyph-name="cedilla" unicode="&#xb8;" 
d="M629 -215q0 10 -14.5 21.5t-39.5 11.5h-100l25 182h164l-9 -63q78 -8 119 -47.5t41 -85.5q0 -82 -68.5 -137.5t-203.5 -55.5t-248 94l76 129q90 -73 136 -78.5t73 -5.5t38 12.5t11 22.5z" />
    <glyph glyph-name="uni00B9" unicode="&#xb9;" 
d="M627 1329v-790h-215v551l-162 -41l-60 118l291 162h146z" />
    <glyph glyph-name="ordmasculine" unicode="&#xba;" 
d="M137 483h752v-176h-752v176zM415.5 1070.5q-34.5 -55.5 -34.5 -124.5t10 -105t26.5 -60.5t39 -38t47 -13.5t47 12.5t40 37t28 60t10.5 83t-10.5 86.5t-35.5 78.5t-79 39.5t-88.5 -55.5zM274.5 1199q100.5 110 238.5 110t230.5 -101.5t92.5 -277.5t-99 -281.5t-236 -105.5
t-232 103.5t-95 272.5q0 170 100.5 280z" />
    <glyph glyph-name="guillemotright" unicode="&#xbb;" 
d="M940 465l-342 -369l-137 135l244 265l-232 223l131 137l336 -324v-67zM598 465l-342 -369l-135 135l244 265l-234 223l133 137l334 -324v-67z" />
    <glyph glyph-name="onequarter" unicode="&#xbc;" 
d="M113 -10l635 1376l178 -92l-633 -1370zM365 1386v-638h-185v450l-133 -35l-47 94l240 129h125zM737 131v127l-100 -127h100zM911 514v-379h97v-127h-97v-151h-176v151h-278v92l325 414h129z" />
    <glyph glyph-name="onehalf" unicode="&#xbd;" 
d="M90 -10l635 1376l178 -92l-633 -1370zM365 1386v-638h-185v450l-133 -35l-47 94l240 129h125zM782 502q94 0 160 -62.5t66 -135.5t-36.5 -120.5t-150.5 -126.5q-20 -14 -40.5 -31.5t-37.5 -31.5h224q12 2 23 13t32 11v-168h-508v105q75 85 217 213q14 14 31.5 28.5t42 39
t24.5 56.5t-26.5 52.5t-76.5 20.5t-73 -72q-7 -29 -18 -45l-135 88q102 166 282 166z" />
    <glyph glyph-name="threequarters" unicode="&#xbe;" 
d="M131 -10l635 1376l178 -92l-633 -1370zM739 131v127l-100 -127h100zM913 514v-379h97v-127h-97v-151h-176v151h-278v92l325 414h129zM264 1409q100 0 169 -57.5t69 -137.5q0 -52 -29 -79t-45 -35q100 -53 100 -138t-78.5 -145.5t-173.5 -60.5q-94 0 -155.5 31.5
t-120.5 97.5l117 129q14 -12 19.5 -26t11.5 -26q12 -26 43.5 -44.5t68.5 -18.5q98 0 98 63.5t-98 63.5h-4q-5 0 -74 -6v151q32 -14 74 -14q43 0 60.5 15.5t17.5 35.5t-20.5 41t-73.5 21t-123 -88l-94 102q105 125 241 125z" />
    <glyph glyph-name="questiondown" unicode="&#xbf;" 
d="M188.5 106q-75.5 77 -75.5 242q0 164 114 252.5t138 120t24 133.5v111h203v-111q0 -100 -23 -159.5t-100 -135.5q-77 -77 -102 -128.5t-25 -94.5q0 -82 47 -133t98 -51q84 0 147 48.5t124 149.5l153 -145q-159 -236 -429 -236q-76 0 -147 30t-146.5 107zM334 1231
q0 37 12 61.5t32.5 43t48.5 29.5t58.5 11t58 -11t49 -29.5t34 -43t12.5 -67.5t-46 -85t-106 -42q-59 0 -106 41q-47 55 -47 92z" />
    <glyph glyph-name="Agrave" unicode="&#xc0;" 
d="M629 489l-133 424l-125 -424h258zM0 0l426 1298h133l467 -1298h-240l-116 330h-334l-100 -330h-236zM389 1671l313 -231l-55 -101l-368 129z" />
    <glyph glyph-name="Aacute" unicode="&#xc1;" 
d="M629 489l-133 424l-125 -424h258zM0 0l426 1298h133l467 -1298h-240l-116 330h-334l-100 -330h-236zM731 1468l-369 -129l-55 101l314 231z" />
    <glyph glyph-name="Acircumflex" unicode="&#xc2;" 
d="M629 489l-133 424l-125 -424h258zM0 0l426 1298h133l467 -1298h-240l-116 330h-334l-100 -330h-236zM197 1417l272 221h63l259 -217l-78 -92l-215 135l-232 -129z" />
    <glyph glyph-name="Atilde" unicode="&#xc3;" 
d="M629 489l-133 424l-125 -424h258zM0 0l426 1298h133l467 -1298h-240l-116 330h-334l-100 -330h-236zM424 1669q70 1 135 -63t85 -64q45 0 88 73q13 22 28 44l112 -127q-71 -93 -118 -133q-47 -39 -92 -39q-86 0 -158 78q-57 57 -86 57q-28 0 -52 -34t-59 -99l-141 102
q125 205 258 205z" />
    <glyph glyph-name="Adieresis" unicode="&#xc4;" 
d="M629 489l-133 424l-125 -424h258zM0 0l426 1298h133l467 -1298h-240l-116 330h-334l-100 -330h-236zM552 1582q37 81 130 81q92 0 131 -85q10 -24 10 -50q0 -84 -86 -119q-27 -10 -55 -10q-90 0 -130 79q-11 24 -11 52t11 52zM306 1663q60 0 100 -38t42 -80
q3 -100 -88 -136q-28 -10 -56 -10q-91 0 -129 80q-11 25 -11 51t11 51q36 82 131 82z" />
    <glyph glyph-name="Aring" unicode="&#xc5;" 
d="M426 1460q0 -33 19.5 -54.5t46 -21.5t46 21.5t19.5 54.5t-19.5 55.5t-47.5 22.5t-46 -22.5t-18 -55.5zM629 489l-133 410l-125 -410h258zM639.5 1601q65.5 -60 65.5 -150t-53.5 -130.5t-82.5 -52.5l457 -1268h-240l-116 330h-334l-100 -330h-236l416 1266
q-58 19 -97.5 73.5t-39.5 107.5q0 54 17 90t63.5 80t130.5 44t149.5 -60z" />
    <glyph glyph-name="AE" unicode="&#xc6;" 
d="M483 514v453l-125 -453h125zM1016 1276v-195h-322v-317h271v-201h-271v-366h318v-197h-531v326h-174l-90 -326h-221l393 1276h627z" />
    <glyph glyph-name="Ccedilla" unicode="&#xc7;" 
d="M815 -196q0 -82 -68.5 -137.5t-203.5 -55.5t-248 94l76 129q90 -73 136 -78.5t73 -5.5t38 12.5t11 22.5t-14.5 21.5t-39.5 11.5h-100l21 151q-198 29 -317.5 199t-119.5 463q0 235 73.5 386t191 221.5t252.5 70.5t249.5 -79t171.5 -212l-206 -103q-14 3 -15.5 17
t-2.5 25.5t-5 23.5q-62 141 -193 141t-204.5 -132t-73.5 -346t78.5 -351t206.5 -137q129 0 227 170l174 -113q-121 -206 -324 -242l-4 -34q78 -8 119 -47.5t41 -85.5z" />
    <glyph glyph-name="Egrave" unicode="&#xc8;" 
d="M115 1276h831v-197h-608v-315h504v-201h-504v-366h604v-197h-827v1276zM389 1671l313 -231l-55 -101l-368 129z" />
    <glyph glyph-name="Eacute" unicode="&#xc9;" 
d="M115 1276h831v-197h-608v-315h504v-201h-504v-366h604v-197h-827v1276zM764 1468l-369 -129l-55 101l313 231z" />
    <glyph glyph-name="Ecircumflex" unicode="&#xca;" 
d="M115 1276h831v-197h-608v-315h504v-201h-504v-366h604v-197h-827v1276zM215 1417l272 221h64l258 -217l-78 -92l-215 135l-231 -129z" />
    <glyph glyph-name="Edieresis" unicode="&#xcb;" 
d="M115 1276h831v-197h-608v-315h504v-201h-504v-366h604v-197h-827v1276zM564 1582q37 81 131 81t130 -85q22 -53 -1 -99q-21 -49 -74 -70q-27 -10 -56 -10q-90 0 -130 79q-11 24 -11 52t11 52zM318 1663q62 0 102 -39t41 -80q0 -99 -88 -135q-27 -10 -56 -10
q-92 0 -130 80q-11 25 -11 51t11 51q36 82 131 82z" />
    <glyph glyph-name="Igrave" unicode="&#xcc;" 
d="M162 1276h712v-191h-247v-897h258v-188h-735v190h247v895h-235v191zM389 1671l313 -231l-55 -101l-368 129z" />
    <glyph glyph-name="Iacute" unicode="&#xcd;" 
d="M162 1276h712v-191h-247v-897h258v-188h-735v190h247v895h-235v191zM764 1468l-369 -129l-55 101l313 231z" />
    <glyph glyph-name="Icircumflex" unicode="&#xce;" 
d="M162 1276h712v-191h-247v-897h258v-188h-735v190h247v895h-235v191zM195 1417l272 221h63l258 -217l-77 -92l-215 135l-232 -129z" />
    <glyph glyph-name="Idieresis" unicode="&#xcf;" 
d="M162 1276h712v-191h-247v-897h258v-188h-735v190h247v895h-235v191zM690 1663q61 0 100 -41t39 -80q0 -98 -86 -133q-27 -10 -55 -10q-90 0 -130 79q-11 24 -11 52t11 52q37 81 132 81zM312 1663q62 0 101 -38t41 -80q3 -99 -87 -136q-27 -10 -56 -10q-92 0 -130 80
q-11 25 -11 51t11 51q36 82 131 82z" />
    <glyph glyph-name="Eth" unicode="&#xd0;" 
d="M391 180q354 0 354 452t-333 453h-99v-317h193v-188h-193v-400h78zM90 580h-80v188h80v508h330q233 0 394 -137.5t161 -552.5t-213 -500.5t-367 -85.5h-305v580z" />
    <glyph glyph-name="Ntilde" unicode="&#xd1;" 
d="M958 0h-253l-433 965v-965h-206v1276h280l406 -914v914h221q4 -4 4 -11t-7 -19t-12 -42v-1204zM434 1669q69 0 144 -70l17 -17q40 -40 59 -40q45 0 88 73q13 22 28 44l113 -127q-102 -132 -164 -161q-25 -11 -57 -11q-63 0 -127 57l-21 21q-57 57 -86 57q-28 0 -52 -34
t-59 -99l-141 102q125 205 258 205z" />
    <glyph glyph-name="Ograve" unicode="&#xd2;" 
d="M425 1082q-153 -76 -153 -427t146 -452q45 -31 94 -31q234 0 238 471q0 237 -69 349t-163 112q-49 0 -93 -22zM35 641q0 296 131 482t342 186q212 0 346 -172q135 -172 135 -498q0 -453 -248 -609q-104 -67 -227 -67q-225 0 -352 191q-127 190 -127 487zM389 1671
l313 -231l-55 -101l-368 129z" />
    <glyph glyph-name="Oacute" unicode="&#xd3;" 
d="M425 1082q-153 -76 -153 -427t146 -452q45 -31 94 -31q234 0 238 471q0 237 -69 349t-163 112q-49 0 -93 -22zM35 641q0 296 131 482t342 186q212 0 346 -172q135 -172 135 -498q0 -453 -248 -609q-104 -67 -227 -67q-225 0 -352 191q-127 190 -127 487zM764 1468
l-369 -129l-55 101l313 231z" />
    <glyph glyph-name="Ocircumflex" unicode="&#xd4;" 
d="M425 1082q-153 -76 -153 -427t146 -452q45 -31 94 -31q234 0 238 471q0 237 -69 349t-163 112q-49 0 -93 -22zM35 641q0 296 131 482t342 186q212 0 346 -172q135 -172 135 -498q0 -453 -248 -609q-104 -67 -227 -67q-225 0 -352 191q-127 190 -127 487zM219 1417
l273 221h63l258 -217l-78 -92l-215 135l-231 -129z" />
    <glyph glyph-name="Otilde" unicode="&#xd5;" 
d="M425 1082q-153 -76 -153 -427t146 -452q45 -31 94 -31q234 0 238 471q0 237 -69 349t-163 112q-49 0 -93 -22zM35 641q0 296 131 482t342 186q212 0 346 -172q135 -172 135 -498q0 -453 -248 -609q-104 -67 -227 -67q-225 0 -352 191q-127 190 -127 487zM434 1669
q69 0 144 -70l17 -17q40 -40 59 -40q45 0 88 73q13 22 28 44l113 -127q-102 -132 -164 -161q-25 -11 -57 -11q-63 0 -127 57l-21 21q-57 57 -86 57q-28 0 -52 -34t-59 -99l-141 102q125 205 258 205z" />
    <glyph glyph-name="Odieresis" unicode="&#xd6;" 
d="M425 1082q-153 -76 -153 -427t146 -452q45 -31 94 -31q234 0 238 471q0 237 -69 349t-163 112q-49 0 -93 -22zM35 641q0 296 131 482t342 186q212 0 346 -172q135 -172 135 -498q0 -453 -248 -609q-104 -67 -227 -67q-225 0 -352 191q-127 190 -127 487zM564 1582
q37 81 131 81t130 -85q22 -53 -1 -99q-21 -49 -74 -70q-27 -10 -56 -10q-90 0 -130 79q-11 24 -11 52t11 52zM318 1663q62 0 102 -39t41 -80q0 -99 -88 -135q-27 -10 -56 -10q-92 0 -130 80q-11 25 -11 51t11 51q36 82 131 82z" />
    <glyph glyph-name="multiply" unicode="&#xd7;" 
d="M758 1083l153 -139l-243 -254l237 -252l-147 -149l-238 252l-235 -242l-144 143l238 246l-238 252l150 145l233 -245z" />
    <glyph glyph-name="Oslash" unicode="&#xd8;" 
d="M721 375.5q29 134.5 29 246.5t-13 197l-327 -610q89 -70 185.5 -19t125.5 185.5zM522 1104q-250 0 -250 -451q0 -100 21 -223l334 629q-51 45 -105 45zM989 639q0 -345 -139 -510.5t-290 -165.5t-255 53l-84 -157l-180 94l113 213q-119 182 -119 478t131 480.5t350 184.5
q112 0 213 -60l78 148l188 -97l-112 -208q106 -177 106 -453z" />
    <glyph glyph-name="Ugrave" unicode="&#xd9;" 
d="M76 1276h243q4 -2 5 -4v-6q0 -6 -10 -24t-9 -38v-755q0 -210 108 -267q40 -20 100 -20q168 0 200 171q10 54 10 122v821h225v-819q0 -243 -116 -364q-116 -122 -323 -122q-208 0 -321 127q-114 127 -112 353v825zM387 1671l313 -231l-55 -101l-369 129z" />
    <glyph glyph-name="Uacute" unicode="&#xda;" 
d="M76 1276h243q4 -2 5 -4v-6q0 -6 -10 -24t-9 -38v-755q0 -210 108 -267q40 -20 100 -20q168 0 200 171q10 54 10 122v821h225v-819q0 -243 -116 -364q-116 -122 -323 -122q-208 0 -321 127q-114 127 -112 353v825zM764 1468l-369 -129l-55 101l313 231z" />
    <glyph glyph-name="Ucircumflex" unicode="&#xdb;" 
d="M76 1276h243q4 -2 5 -4v-6q0 -6 -10 -24t-9 -38v-755q0 -210 108 -267q40 -20 100 -20q168 0 200 171q10 54 10 122v821h225v-819q0 -243 -116 -364q-116 -122 -323 -122q-208 0 -321 127q-114 127 -112 353v825zM219 1417l273 221h63l258 -217l-78 -92l-215 135
l-231 -129z" />
    <glyph glyph-name="Udieresis" unicode="&#xdc;" 
d="M76 1276h243q4 -2 5 -4v-6q0 -6 -10 -24t-9 -38v-755q0 -210 108 -267q40 -20 100 -20q168 0 200 171q10 54 10 122v821h225v-819q0 -243 -116 -364q-116 -122 -323 -122q-208 0 -321 127q-114 127 -112 353v825zM581 1582q37 81 130 81q92 0 131 -85q10 -24 10 -50
q0 -84 -86 -119q-28 -10 -56 -10q-93 0 -129 79q-25 55 0 104zM335 1663q61 0 101 -39t41 -80q0 -99 -88 -135q-27 -10 -55 -10q-94 0 -130 80q-11 25 -11 51t11 51q36 82 131 82z" />
    <glyph glyph-name="Yacute" unicode="&#xdd;" 
d="M653 0h-241v504l-394 772h256l263 -516l233 516h248l-365 -774v-502zM764 1468l-369 -129l-55 101l313 231z" />
    <glyph glyph-name="Thorn" unicode="&#xde;" 
d="M528 492q155 0 178 69.5t23 126.5t-51.5 111.5t-147.5 54.5h-192l-2 -362h192zM102 1276h250q4 -4 4 -9t-6.5 -14.5t-11.5 -48.5v-147h197q214 0 322 -108t108 -323t-155 -272t-265 -57h-209v-297h-234v1276z" />
    <glyph glyph-name="germandbls" unicode="&#xdf;" 
d="M78 0v854q0 384 152.5 456t243.5 72q176 0 283 -118.5t107 -268.5q0 -76 -38 -145t-101 -111q160 -63 192.5 -180t32.5 -195q0 -174 -102 -284.5t-293 -110.5q-99 0 -213 64l115 180q51 -49 97 -49q80 0 128.5 56t48.5 127q0 133 -64 206.5t-188 73.5h-102v182h115
q151 0 151 201q0 123 -63.5 155.5t-107.5 32.5q-87 0 -130 -90.5t-43 -249.5v-858h-221z" />
    <glyph glyph-name="agrave" unicode="&#xe0;" 
d="M321 221q39 -71 141 -71t184 104q34 45 39 81t5 81l-84 2q-239 5 -284 -95q-26 -60 -1 -102zM516 977q285 0 363 -218q27 -75 26 -177v-582h-219v86q-53 -51 -128 -81q-74 -30 -154 -30q-153 0 -238 79q-84 79 -84 213t124 229q125 94 357 94h121q-2 109 -44 158t-132 49
q-117 0 -238 -127l-116 151q147 156 362 156zM686 1126l-115 -67l-215 289l166 114z" />
    <glyph glyph-name="aacute" unicode="&#xe1;" 
d="M321 221q39 -71 141 -71t184 104q34 45 39 81t5 81l-84 2q-239 5 -284 -95q-26 -60 -1 -102zM516 977q285 0 363 -218q27 -75 26 -177v-582h-219v86q-53 -51 -128 -81q-74 -30 -154 -30q-153 0 -238 79q-84 79 -84 213t124 229q125 94 357 94h121q-2 109 -44 158t-132 49
q-117 0 -238 -127l-116 151q147 156 362 156zM571 1462l166 -114l-215 -289l-114 67z" />
    <glyph glyph-name="acircumflex" unicode="&#xe2;" 
d="M321 221q39 -71 141 -71t184 104q34 45 39 81t5 81l-84 2q-239 5 -284 -95q-26 -60 -1 -102zM516 977q285 0 363 -218q27 -75 26 -177v-582h-219v86q-53 -51 -128 -81q-74 -30 -154 -30q-153 0 -238 79q-84 79 -84 213t124 229q125 94 357 94h121q-2 109 -44 158t-132 49
q-117 0 -238 -127l-116 151q147 156 362 156zM268 1130l236 297h65l236 -299l-119 -88l-156 181l-163 -179z" />
    <glyph glyph-name="atilde" unicode="&#xe3;" 
d="M321 221q39 -71 141 -71t184 104q34 45 39 81t5 81l-84 2q-239 5 -284 -95q-26 -60 -1 -102zM516 977q285 0 363 -218q27 -75 26 -177v-582h-219v86q-53 -51 -128 -81q-74 -30 -154 -30q-153 0 -238 79q-84 79 -84 213t124 229q125 94 357 94h121q-2 109 -44 158t-132 49
q-117 0 -238 -127l-116 151q147 156 362 156zM901 1284q-76 -94 -119 -133t-104 -39t-125 57l-41 41q-38 37 -66 37t-53 -34t-57 -99l-141 103q125 205 258 204q74 0 143 -69q43 -58 76 -58q32 0 58 32t58 85z" />
    <glyph glyph-name="adieresis" unicode="&#xe4;" 
d="M321 221q39 -71 141 -71t184 104q34 45 39 81t5 81l-84 2q-239 5 -284 -95q-26 -60 -1 -102zM516 977q285 0 363 -218q27 -75 26 -177v-582h-219v86q-53 -51 -128 -81q-74 -30 -154 -30q-153 0 -238 79q-84 79 -84 213t124 229q125 94 357 94h121q-2 109 -44 158t-132 49
q-117 0 -238 -127l-116 151q147 156 362 156zM711 1386q43 0 82 -16t57 -52t18 -78t-40 -79t-85 -38t-84 15t-56 53q-17 36 -17 78t41 79q41 38 84 38zM296 1132q-86 36 -87 135q1 40 41 80q40 39 97 39t89 -27q56 -46 57 -102t-39 -95q-40 -38 -87 -39q-45 -1 -71 9z" />
    <glyph glyph-name="aring" unicode="&#xe5;" 
d="M321 221q39 -71 141 -71t184 104q34 45 39 81t5 81l-84 2q-239 5 -284 -95q-26 -60 -1 -102zM516 977q285 0 363 -218q27 -75 26 -177v-582h-219v86q-53 -51 -128 -81q-74 -30 -154 -30q-153 0 -238 79q-84 79 -84 213t124 229q125 94 357 94h121q-2 109 -44 158t-132 49
q-117 0 -238 -127l-116 151q147 156 362 156zM446 1255q0 -33 18 -55t48 -20q29 0 47 22q19 22 19 54t-18 55t-48 23t-48 -24q-18 -22 -18 -55zM662 1396q63 -60 63 -144q0 -83 -63 -143t-152 -60t-150 61q-61 60 -61 142t61 143t150 61t152 -60z" />
    <glyph glyph-name="ae" unicode="&#xe6;" 
d="M827 625q0 126 -39.5 156t-66.5 30q-52 0 -83.5 -57.5t-31.5 -145.5l221 6v11zM234.5 185.5q31.5 -35.5 82.5 -35.5q107 0 107 182v98q-112 -4 -166.5 -49t-54.5 -103q0 -57 31.5 -92.5zM530 858q74 117 216 117q52 0 159 -59t107 -361v-100l-406 -17v-73
q0 -99 43 -160.5t122 -61.5t140 105l113 -139q-108 -134 -259 -134t-241 125q-52 -84 -122 -104.5t-120 -20.5t-104.5 24t-114 86t-59.5 179q0 149 112 239.5t302 98.5q0 98 -32 153.5t-87 55.5q-85 0 -152 -113l-112 144q100 133 274 133q96 0 149.5 -47t71.5 -70z" />
    <glyph glyph-name="ccedilla" unicode="&#xe7;" 
d="M815 -196q0 -82 -68.5 -137.5t-203.5 -55.5t-248 94l76 129q90 -73 136 -78.5t73 -5.5t38 12.5t11 22.5t-14.5 21.5t-39.5 11.5h-100l21 153q-186 20 -302 158.5t-116 349.5t137 354.5t348 143.5q256 0 383 -184l-147 -172q-16 4 -20.5 24.5t-6.5 28.5q-69 112 -209 112
q-105 0 -178.5 -86.5t-73.5 -220t72 -224.5t194 -91q123 0 228 127l133 -154q-107 -127 -279 -160l-4 -40q78 -8 119 -47.5t41 -85.5z" />
    <glyph glyph-name="egrave" unicode="&#xe8;" 
d="M707 582q0 146 -112 204q-79 40 -157 2q-105 -48 -127 -206h396zM915 139q-145 -172 -360 -172t-347 136t-132 366t126 369t315 139q188 0 304 -122q115 -122 115 -345q0 -30 -6 -96h-627q14 -126 84 -195t166 -69q143 0 235 116zM686 1126l-115 -67l-215 289l166 114z
" />
    <glyph glyph-name="eacute" unicode="&#xe9;" 
d="M707 582q0 146 -112 204q-79 40 -157 2q-105 -48 -127 -206h396zM915 139q-145 -172 -360 -172t-347 136t-132 366t126 369t315 139q188 0 304 -122q115 -122 115 -345q0 -30 -6 -96h-627q14 -126 84 -195t166 -69q143 0 235 116zM571 1462l166 -114l-215 -289l-114 67z
" />
    <glyph glyph-name="ecircumflex" unicode="&#xea;" 
d="M707 582q0 146 -112 204q-79 40 -157 2q-105 -48 -127 -206h396zM915 139q-145 -172 -360 -172t-347 136t-132 366t126 369t315 139q188 0 304 -122q115 -122 115 -345q0 -30 -6 -96h-627q14 -126 84 -195t166 -69q143 0 235 116zM254 1130l235 297h66l236 -299l-119 -88
l-156 181l-164 -179z" />
    <glyph glyph-name="edieresis" unicode="&#xeb;" 
d="M707 582q0 146 -112 204q-79 40 -157 2q-105 -48 -127 -206h396zM915 139q-145 -172 -360 -172t-347 136t-132 366t126 369t315 139q188 0 304 -122q115 -122 115 -345q0 -30 -6 -96h-627q14 -126 84 -195t166 -69q143 0 235 116zM689 1386q43 0 82 -16t57 -52t18 -78
t-40 -79t-85 -38q-107 -3 -147 79q-11 25 -11 67t41 79q42 38 85 38zM453 1319q18 -37 18 -79t-40 -78q-40 -37 -86 -39q-75 -2 -116 37t-42 92t39 93q41 41 85 41t84 -15t58 -52z" />
    <glyph glyph-name="igrave" unicode="&#xec;" 
d="M193 956h448v-772h209v-184h-668v184h230v588h-219v184zM586 1126l-115 -67l-215 289l166 114z" />
    <glyph glyph-name="iacute" unicode="&#xed;" 
d="M193 956h448v-772h209v-184h-668v184h230v588h-219v184zM557 1462l166 -114l-215 -289l-115 67z" />
    <glyph glyph-name="icircumflex" unicode="&#xee;" 
d="M193 956h448v-772h209v-184h-668v184h230v588h-219v184zM213 1130l236 297h65l236 -299l-119 -88l-156 181l-164 -179z" />
    <glyph glyph-name="idieresis" unicode="&#xef;" 
d="M193 956h448v-772h209v-184h-668v184h230v588h-219v184zM672 1386q43 0 82 -16t57 -52t18 -78t-40 -79t-85 -38t-84 15t-56 53q-17 36 -17 78t41 79q41 38 84 38zM410 1349q43 -37 44 -80q2 -68 -39 -106q-41 -39 -87 -40q-106 -3 -147 80q-11 24 -11 64t40 80
q40 39 99 39q58 0 101 -37z" />
    <glyph glyph-name="eth" unicode="&#xf0;" 
d="M673.5 240.5q55.5 80.5 55.5 232.5t-58 226.5t-148 74.5q-91 0 -149.5 -78t-58.5 -220q0 -141 57.5 -228.5t151.5 -87.5t149.5 80.5zM963 514q0 -251 -114 -399t-315 -148q-202 0 -330 139t-128 349q0 211 118.5 360.5t301.5 149.5q82 0 131 -29t67 -47q-53 115 -125 198
l-254 -71l-61 162l170 43q-114 82 -197 125l246 55q109 -74 160 -119l235 61l58 -153l-164 -43q201 -266 201 -633z" />
    <glyph glyph-name="ntilde" unicode="&#xf1;" 
d="M604 977q318 0 318 -397v-580h-226v578q0 109 -39 160q-35 50 -88 50q-100 0 -156 -64q-57 -64 -59 -171v-553h-231v956h231v-98q49 53 116 86t134 33zM669 1112q-89 0 -161 78q-57 57 -86 57q-30 0 -54 -34t-57 -99l-141 103q125 205 258 204q76 0 143 -69
q43 -58 81 -58t84 74q13 20 28 43l113 -127q-72 -89 -117 -131q-45 -41 -91 -41z" />
    <glyph glyph-name="ograve" unicode="&#xf2;" 
d="M737 469q0 233 -135 302q-41 22 -89 22q-96 0 -157 -85t-61 -231q0 -223 131 -300q41 -24 92 -23q100 0 160 80q59 81 59 235zM195 831q135 146 324 146t317 -132q129 -137 129 -371q0 -233 -124 -370t-320 -137q-195 0 -329 142q-133 142 -133 361t136 361zM686 1126
l-115 -67l-215 289l166 114z" />
    <glyph glyph-name="oacute" unicode="&#xf3;" 
d="M737 469q0 233 -135 302q-41 22 -89 22q-96 0 -157 -85t-61 -231q0 -223 131 -300q41 -24 92 -23q100 0 160 80q59 81 59 235zM195 831q135 146 324 146t317 -132q129 -137 129 -371q0 -233 -124 -370t-320 -137q-195 0 -329 142q-133 142 -133 361t136 361zM571 1462
l166 -114l-215 -289l-114 67z" />
    <glyph glyph-name="ocircumflex" unicode="&#xf4;" 
d="M737 469q0 233 -135 302q-41 22 -89 22q-96 0 -157 -85t-61 -231q0 -223 131 -300q41 -24 92 -23q100 0 160 80q59 81 59 235zM195 831q135 146 324 146t317 -132q129 -137 129 -371q0 -233 -124 -370t-320 -137q-195 0 -329 142q-133 142 -133 361t136 361zM254 1130
l235 297h66l236 -299l-119 -88l-156 181l-164 -179z" />
    <glyph glyph-name="otilde" unicode="&#xf5;" 
d="M737 469q0 233 -135 302q-41 22 -89 22q-96 0 -157 -85t-61 -231q0 -223 131 -300q41 -24 92 -23q100 0 160 80q59 81 59 235zM195 831q135 146 324 146t317 -132q129 -137 129 -371q0 -233 -124 -370t-320 -137q-195 0 -329 142q-133 142 -133 361t136 361zM578 1352
q43 -58 81 -58q37 0 83 74q13 20 28 43l113 -127q-72 -89 -117 -131q-45 -41 -106 -41t-125 57l-21 21q-57 57 -86 57q-30 0 -54 -34t-57 -99l-141 103q125 205 258 204q75 0 144 -69z" />
    <glyph glyph-name="odieresis" unicode="&#xf6;" 
d="M737 469q0 233 -135 302q-41 22 -89 22q-96 0 -157 -85t-61 -231q0 -223 131 -300q41 -24 92 -23q100 0 160 80q59 81 59 235zM195 831q135 146 324 146t317 -132q129 -137 129 -371q0 -233 -124 -370t-320 -137q-195 0 -329 142q-133 142 -133 361t136 361zM799 1349
q43 -37 44 -80q2 -102 -86 -136q-58 -22 -110 -1t-75 70q-11 25 -11 67t41 79q41 38 97 38q57 0 100 -37zM451 1319q18 -37 18 -79t-40 -78q-40 -37 -86 -39q-75 -2 -116 37t-42 92t39 93q41 41 85 41t84 -15t58 -52z" />
    <glyph glyph-name="divide" unicode="&#xf7;" 
d="M616 450q37 -39 37 -74q0 -36 -10 -57.5t-27.5 -38t-42 -25.5t-64.5 -9t-80 36t-40 74t11.5 60t40 47.5t83.5 25.5t92 -39zM615 1031q38 -40 38 -75t-10 -56t-27.5 -37.5t-42 -27t-51 -10.5t-50 10.5t-42 27t-29 38t-10.5 46t11.5 48t39.5 50t82 26.5q53 0 91 -40z
M127 762h772v-203h-772v203z" />
    <glyph glyph-name="oslash" unicode="&#xf8;" 
d="M295 501q0 -120 20 -177l250 462q-76 20 -128 -8t-97 -92.5t-45 -184.5zM518 154q100 0 159.5 80.5t59.5 234.5q0 92 -24 164l-258 -471q28 -8 63 -8zM829 848q136 -142 136 -375t-126 -369.5t-321 -136.5q-80 0 -156 29l-71 -135l-176 92l82 151q-138 142 -138 363
t136 365.5t325 144.5q76 0 137 -21l64 115l178 -96z" />
    <glyph glyph-name="ugrave" unicode="&#xf9;" 
d="M680 59v31q-54 -84 -187 -122q-35 -9 -91 -9q-132 0 -214 91q-84 98 -84 308v598h226v-598q0 -110 38 -160t90 -50q145 -1 197 140q16 44 17 95v573h231v-841q0 -52 19 -115h-222q-20 13 -20 59zM686 1126l-115 -67l-215 289l166 114z" />
    <glyph glyph-name="uacute" unicode="&#xfa;" 
d="M680 59v31q-54 -84 -187 -122q-35 -9 -91 -9q-132 0 -214 91q-84 98 -84 308v598h226v-598q0 -110 38 -160t90 -50q145 -1 197 140q16 44 17 95v573h231v-841q0 -52 19 -115h-222q-20 13 -20 59zM571 1462l166 -114l-215 -289l-114 67z" />
    <glyph glyph-name="ucircumflex" unicode="&#xfb;" 
d="M680 59v31q-54 -84 -187 -122q-35 -9 -91 -9q-132 0 -214 91q-84 98 -84 308v598h226v-598q0 -110 38 -160t90 -50q145 -1 197 140q16 44 17 95v573h231v-841q0 -52 19 -115h-222q-20 13 -20 59zM254 1130l235 297h66l236 -299l-119 -88l-156 181l-164 -179z" />
    <glyph glyph-name="udieresis" unicode="&#xfc;" 
d="M680 59v31q-54 -84 -187 -122q-35 -9 -91 -9q-132 0 -214 91q-84 98 -84 308v598h226v-598q0 -110 38 -160t90 -50q145 -1 197 140q16 44 17 95v573h231v-841q0 -52 19 -115h-222q-20 13 -20 59zM799 1349q43 -37 44 -80q2 -102 -86 -136q-58 -22 -110 -1t-75 70
q-11 25 -11 67t41 79q41 38 97 38q57 0 100 -37zM451 1319q18 -37 18 -79t-40 -78q-40 -37 -86 -39q-75 -2 -116 37t-42 92t39 93q41 41 85 41t84 -15t58 -52z" />
    <glyph glyph-name="yacute" unicode="&#xfd;" 
d="M344 956l-14 -65l213 -594l92 252q78 221 117 407h219q-47 -193 -144 -438l-237 -622q-100 -258 -314 -258q-141 0 -253 108l114 197q25 -13 29 -35q17 -85 98 -84q45 0 72 31q51 57 86 157l-359 944h281zM571 1462l166 -114l-215 -289l-114 67z" />
    <glyph glyph-name="thorn" unicode="&#xfe;" 
d="M553 977q173 0 288 -125.5t115 -364.5q0 -240 -118 -379t-283 -139q-92 0 -146.5 36t-74.5 58v-405h-232v1724h258q0 -18 -12.5 -30.5t-15.5 -28.5v-449q95 103 221 103zM510 791q-180 1 -180 -315t186 -316q81 0 145 74.5t64 232.5q0 241 -84 282.5t-131 41.5z" />
    <glyph glyph-name="ydieresis" unicode="&#xff;" 
d="M344 956l-14 -65l213 -594l92 252q78 221 117 407h219q-47 -193 -144 -438l-237 -622q-100 -258 -314 -258q-141 0 -253 108l114 197q25 -13 29 -35q17 -85 98 -84q45 0 72 31q51 57 86 157l-359 944h281zM799 1349q43 -37 44 -80q2 -102 -86 -136q-58 -22 -110 -1
t-75 70q-11 25 -11 67t41 79q41 38 97 38q57 0 100 -37zM451 1319q18 -37 18 -79t-40 -78q-40 -37 -86 -39q-75 -2 -116 37t-42 92t39 93q41 41 85 41t84 -15t58 -52z" />
    <glyph glyph-name="Abreve" unicode="&#x102;" 
d="M629 489l-133 424l-125 -424h258zM0 0l426 1298h133l467 -1298h-240l-116 330h-334l-100 -330h-236zM500 1509q134 0 227 146l98 -148q-145 -170 -329 -174q-179 0 -338 170l125 152q83 -146 217 -146z" />
    <glyph glyph-name="abreve" unicode="&#x103;" 
d="M321 221q39 -71 141 -71t184 104q34 45 39 81t5 81l-84 2q-239 5 -284 -95q-26 -60 -1 -102zM516 977q285 0 363 -218q27 -75 26 -177v-582h-219v86q-53 -51 -128 -81q-74 -30 -154 -30q-153 0 -238 79q-84 79 -84 213t124 229q125 94 357 94h121q-2 109 -44 158t-132 49
q-117 0 -238 -127l-116 151q147 156 362 156zM860 1235q-142 -174 -323 -174t-344 170l124 151q82 -145 216 -145t229 145z" />
    <glyph glyph-name="Aogonek" unicode="&#x104;" 
d="M627 489l-131 388l-123 -388h254zM850 -373q-92 0 -138 42t-46 101t31 107.5t112 122.5h-23l-116 330h-334l-100 -330h-236l424 1307h137l467 -1307q-47 -45 -78.5 -73.5t-56.5 -55t-25 -47.5q0 -33 32 -33t65.5 27.5t62.5 52.5v-178q-86 -66 -178 -66z" />
    <glyph glyph-name="aogonek" unicode="&#x105;" 
d="M606 418q-297 0 -297 -152q0 -46 42 -81t93 -35q85 0 145.5 46.5t84.5 100.5q16 28 16 119q-20 2 -25 2h-59zM727 -373q-92 0 -138 42t-46 101t31 107.5t112 122.5v86q-53 -51 -127.5 -81t-154.5 -30q-155 0 -238.5 79t-83.5 200q0 150 125 243t356 93h121
q-2 109 -44 158t-132 49q-117 0 -238 -127l-116 151q147 156 362 156q389 0 389 -395v-582q-47 -45 -78.5 -73.5t-56.5 -55t-25 -47.5q0 -33 32 -33t66 27.5t62 52.5v-178q-86 -66 -178 -66z" />
    <glyph glyph-name="Cacute" unicode="&#x106;" 
d="M59 631q0 230 80 399q67 139 194 214q103 63 234 65q216 0 359 -172q43 -53 71 -119l-206 -103q-14 3 -15 17q-2 14 -3 25t-5 24q-62 141 -203 141q-119 0 -194 -132q-74 -132 -74 -348q0 -217 78 -348q79 -138 207 -138q129 0 227 170l174 -113q-143 -248 -390 -249
t-390 169q-144 170 -144 498zM729 1468l-369 -129l-55 101l313 231z" />
    <glyph glyph-name="cacute" unicode="&#x107;" 
d="M938 137q-155 -170 -374 -170t-353 144q-133 144 -133 361t138 361t347 144q253 0 383 -184l-147 -172q-16 4 -21 24q-4 20 -6 29q-70 114 -209 112q-105 0 -177 -85q-73 -85 -74 -220t72 -227t181 -90q135 0 240 127zM571 1462l166 -114l-215 -289l-114 67z" />
    <glyph glyph-name="Ccaron" unicode="&#x10c;" 
d="M59 631q0 230 80 399q67 139 194 214q103 63 234 65q216 0 359 -172q43 -53 71 -119l-206 -103q-14 3 -15 17q-2 14 -3 25t-5 24q-62 141 -203 141q-119 0 -194 -132q-74 -132 -74 -348q0 -217 78 -348q79 -138 207 -138q129 0 227 170l174 -113q-143 -248 -390 -249
t-390 169q-144 170 -144 498zM860 1550l-272 -221h-64l-258 217l78 92l215 -135l232 129z" />
    <glyph glyph-name="ccaron" unicode="&#x10d;" 
d="M938 137q-155 -170 -374 -170t-353 144q-133 144 -133 361t138 361t347 144q253 0 383 -184l-147 -172q-16 4 -21 24q-4 20 -6 29q-70 114 -209 112q-105 0 -177 -85q-73 -85 -74 -220t72 -227t181 -90q135 0 240 127zM791 1348l-236 -297h-66l-235 299l119 88l155 -181
l164 179z" />
    <glyph glyph-name="Dcaron" unicode="&#x10e;" 
d="M745 623q0 466 -333 462h-99v-905h78q354 0 354 443zM90 1276h330q232 0 353 -102q202 -175 202 -545q0 -458 -317 -585q-110 -44 -263 -44h-305v1276zM778 1550l-272 -221h-64l-258 217l78 92l215 -135l232 129z" />
    <glyph glyph-name="dcaron" unicode="&#x10f;" 
d="M551 474q0 152 -32.5 234.5t-123.5 82.5q-157 0 -172.5 -130.5t-15.5 -204.5q0 -147 55.5 -221.5t126.5 -74.5q162 0 162 314zM559 88q-61 -119 -227 -119q-54 0 -123.5 31t-151.5 130t-82 330q0 232 111.5 374.5t267.5 142.5q78 0 129.5 -39t65.5 -57v501h252
q0 -15 -14.5 -31t-14.5 -28v-1208q0 -50 19 -115h-211q-21 14 -21 59v29zM889 1159q1 3 -17 23t-35.5 40.5t-17.5 50.5q0 57 33.5 92.5t71.5 35.5q62 0 98.5 -46.5t36.5 -115.5q0 -140 -156 -332l-104 90q90 112 90 162z" />
    <glyph glyph-name="Dcroat" unicode="&#x110;" 
d="M391 180q354 0 354 452t-333 453h-99v-317h193v-188h-193v-400h78zM90 580h-80v188h80v508h330q233 0 394 -137.5t161 -552.5t-213 -500.5t-367 -85.5h-305v580z" />
    <glyph glyph-name="dcroat" unicode="&#x111;" 
d="M690 476q0 316 -182 315q-83 0 -139 -62q-76 -82 -76 -251t64 -243.5t145 -74.5q188 0 188 316zM698 59v29q-44 -80 -121 -99.5t-135 -19.5t-131 31t-161.5 129t-88.5 333t119 375t287 140q125 0 221 -96v194h-131v176h131v131h258q0 -12 -2 -15l-13 -19q-11 -17 -13 -25
v-72h88v-176h-88v-960q0 -45 18 -115h-217q-21 14 -21 59z" />
    <glyph glyph-name="Eogonek" unicode="&#x118;" 
d="M764 -373q-92 0 -138 42t-46 99t37.5 104.5t125.5 127.5h-628v1276h831v-197h-608v-315h504v-201h-504v-366h604v-197q-47 -45 -103.5 -95.5t-56.5 -81.5q0 -32 32 -32t65.5 27.5t62.5 52.5v-178q-86 -66 -178 -66z" />
    <glyph glyph-name="eogonek" unicode="&#x119;" 
d="M707 582q0 147 -74 185t-136.5 38t-118 -59.5t-67.5 -163.5h396zM514 -33q-189 0 -313.5 135t-124.5 367t127.5 370t315.5 138t302.5 -122t114.5 -345q0 -30 -6 -96h-627q15 -129 84.5 -196.5t165.5 -67.5q143 0 235 116l127 -129l-127 -168q-61 -78 -61 -118t17.5 -50
t31.5 -10q58 0 129 80v-178q-86 -66 -178 -66t-138 42t-46 108q0 92 139 225q-78 -35 -168 -35z" />
    <glyph glyph-name="Ecaron" unicode="&#x11a;" 
d="M115 1276h831v-197h-608v-315h504v-201h-504v-366h604v-197h-827v1276zM827 1550l-272 -221h-63l-259 217l78 92l215 -135l232 129z" />
    <glyph glyph-name="ecaron" unicode="&#x11b;" 
d="M707 582q0 146 -112 204q-79 40 -157 2q-105 -48 -127 -206h396zM915 139q-145 -172 -360 -172t-347 136t-132 366t126 369t315 139q188 0 304 -122q115 -122 115 -345q0 -30 -6 -96h-627q14 -126 84 -195t166 -69q143 0 235 116zM791 1348l-236 -297h-66l-235 299
l119 88l155 -181l164 179z" />
    <glyph glyph-name="Gbreve" unicode="&#x11e;" 
d="M33 639q0 245 93 413q76 136 208 202q100 52 192 54q220 3 358 -148q42 -46 72 -101l-143 -146q-37 16 -44 28q-7 11 -11 19t-12 28q-8 18 -28 42q-70 84 -169 84q-187 0 -254 -247q-25 -87 -25 -209q0 -353 169 -467q52 -34 114 -33q112 0 182 53v240h-217v194h434v-536
q-172 -146 -410 -146q-237 0 -373 187q-136 186 -136 489zM864 1520q-149 -174 -329 -174q-181 0 -338 170l125 151q83 -147 218 -146q134 1 226 146z" />
    <glyph glyph-name="gbreve" unicode="&#x11f;" 
d="M670 -151q61 33 65 85q-4 86 -119 86q-149 0 -268 7q-70 -43 -72 -107q0 -78 143 -98q42 -6 116 -6t135 33zM129 211q0 87 117 186q-85 50 -122 174q-9 35 -9 89t30 116q63 129 199 182q65 27 135 27q125 0 213 -67q89 61 211 61h66l30 -195l-106 13q-43 0 -88 -17
q61 -143 4 -261q-29 -60 -78 -105q-106 -97 -254 -97q-48 0 -84 11q-61 -38 -61 -72q0 -35 28 -44t76 -9l142 6q368 0 368 -258q0 -125 -116 -216t-326 -89q-324 0 -413 150q-58 98 9 198q32 51 90 86q-61 44 -61 131zM339 716q-11 -30 -11 -82t40 -96t107 -44q104 0 139 95
q22 63 0 122q-10 29 -29 50q-41 48 -108 48q-101 0 -138 -93zM860 1235q-142 -174 -323 -174t-344 170l124 151q82 -145 216 -145t229 145z" />
    <glyph glyph-name="Idotaccent" unicode="&#x130;" 
d="M162 1276h712v-191h-247v-897h258v-188h-735v190h247v895h-235v191zM510 1667q108 0 152 -81q12 -24 12 -65t-43 -81q-43 -39 -87 -39q-103 0 -147 81q-12 24 -12 64t39 80t86 41z" />
    <glyph glyph-name="dotlessi" unicode="&#x131;" 
d="M193 956h448v-772h209v-184h-668v184h230v588h-219v184z" />
    <glyph glyph-name="kgreenlandic" unicode="&#x138;" 
d="M123 958h260q0 -18 -14.5 -32.5t-14.5 -24.5v-297l367 363q74 -16 117 -17h149l-391 -377q65 -78 222 -292.5t210 -278.5l-280 -10l-316 440l-78 -74v-358h-231v958z" />
    <glyph glyph-name="Lacute" unicode="&#x139;" 
d="M940 193v-193h-815v1276h250q4 -4 4 -11t-7 -19t-12 -42v-1011h580zM729 1468l-369 -129l-55 101l313 231z" />
    <glyph glyph-name="lacute" unicode="&#x13a;" 
d="M150 1382h479v-1204h262v-178h-754v178h262v1026h-249v178zM729 1556l-369 -129l-55 101l313 231z" />
    <glyph glyph-name="Lcaron" unicode="&#x13d;" 
d="M940 193v-193h-815v1276h250q4 -4 4 -11t-7 -19t-12 -42v-1011h580zM696 1077q0 2 -20 25q-20 18 -38 38t-20 51q0 29 10 53q33 74 128 75q58 0 103 -45q46 -42 46 -117q0 -137 -205 -342l-118 103q114 114 114 159z" />
    <glyph glyph-name="lcaron" unicode="&#x13e;" 
d="M115 1382h479v-1204h262v-178h-754v178h263v1026h-250v178zM717 1273q0 86 82 119q25 9 69 9t89 -45q47 -43 47 -117q0 -137 -205 -342l-119 102q110 110 115 160q0 1 -21 25q-20 18 -38 38t-19 51z" />
    <glyph glyph-name="Lslash" unicode="&#x141;" 
d="M940 195v-193h-815v451l-115 -37v194l115 37v629h250q4 -4 4 -11t-7 -18.5t-12 -42.5v-479l283 92q33 13 74 47v-219l-357 -117v-333h580z" />
    <glyph glyph-name="lslash" unicode="&#x142;" 
d="M150 1382h479v-579l57 20q18 9 115 68v-232l-172 -59v-422h262v-178h-754v178h262v346l-151 -51v199l151 53v479h-249v178z" />
    <glyph glyph-name="Nacute" unicode="&#x143;" 
d="M958 0h-253l-433 965v-965h-206v1276h280l406 -914v914h221q4 -4 4 -11t-7 -19t-12 -42v-1204zM729 1468l-369 -129l-55 101l313 231z" />
    <glyph glyph-name="nacute" unicode="&#x144;" 
d="M604 977q318 0 318 -397v-580h-226v578q0 109 -39 160q-35 50 -88 50q-100 0 -156 -64q-57 -64 -59 -171v-553h-231v956h231v-98q49 53 116 86t134 33zM571 1462l166 -114l-215 -289l-114 67z" />
    <glyph glyph-name="Ncaron" unicode="&#x147;" 
d="M958 0h-253l-433 965v-965h-206v1276h280l406 -914v914h221q4 -4 4 -11t-7 -19t-12 -42v-1204zM827 1550l-272 -221h-63l-259 217l78 92l215 -135l232 129z" />
    <glyph glyph-name="ncaron" unicode="&#x148;" 
d="M604 977q318 0 318 -397v-580h-226v578q0 109 -39 160q-35 50 -88 50q-100 0 -156 -64q-57 -64 -59 -171v-553h-231v956h231v-98q49 53 116 86t134 33zM791 1348l-236 -297h-66l-235 299l119 88l155 -181l164 179z" />
    <glyph glyph-name="Eng" unicode="&#x14a;" 
d="M569 1307q272 0 317.5 -163t45.5 -280v-508q0 -294 -131 -344.5t-197 -50.5q-118 0 -239 74l106 186q19 0 29 -18q26 -45 98 -45q102 0 102 190v512q0 250 -153 250q-88 0 -164 -76t-76 -190v-844h-237v1276h237v-94q125 125 262 125z" />
    <glyph glyph-name="eng" unicode="&#x14b;" 
d="M696 578q0 210 -143 210q-83 0 -141 -65.5t-58 -169.5v-553h-231v956h231v-98q49 53 116 86t134 33q318 0 318 -397v-471q0 -355 -143.5 -415.5t-221.5 -60.5q-119 0 -238 93l103 200q14 -4 21.5 -15t15.5 -23q37 -53 102 -52q135 0 135 252v490z" />
    <glyph glyph-name="omacron" unicode="&#x14d;" 
d="M737 469q0 233 -135 302q-41 22 -89 22q-96 0 -157 -85t-61 -231q0 -223 131 -300q41 -24 92 -23q100 0 160 80q59 81 59 235zM195 831q135 146 324 146t317 -132q129 -137 129 -371q0 -233 -124 -370t-320 -137q-195 0 -329 142q-133 142 -133 361t136 361zM221 1313
h574v-180h-574v180z" />
    <glyph glyph-name="Ohungarumlaut" unicode="&#x150;" 
d="M425 1082q-153 -76 -153 -427t146 -452q45 -31 94 -31q234 0 238 471q0 237 -69 349t-163 112q-49 0 -93 -22zM35 641q0 296 131 482t342 186q212 0 346 -172q135 -172 135 -498q0 -453 -248 -609q-104 -67 -227 -67q-225 0 -352 191q-127 190 -127 487zM471 1686
l119 -170l-318 -209l-77 98zM838 1686l118 -170l-317 -209l-78 98z" />
    <glyph glyph-name="ohungarumlaut" unicode="&#x151;" 
d="M737 469q0 233 -135 302q-41 22 -89 22q-96 0 -157 -85t-61 -231q0 -223 131 -300q41 -24 92 -23q100 0 160 80q59 81 59 235zM195 831q135 146 324 146t317 -132q129 -137 129 -371q0 -233 -124 -370t-320 -137q-195 0 -329 142q-133 142 -133 361t136 361zM729 1462
l166 -114l-215 -289l-115 67zM412 1462l166 -114l-216 -289l-114 67z" />
    <glyph glyph-name="OE" unicode="&#x152;" 
d="M369 1104q-144 0 -144 -461t160 -461q79 0 92 113v682q-24 127 -108 127zM6 638q0 327 94.5 491.5t268.5 164.5q67 0 120 -47v31h521v-197h-318v-317h269v-199h-269v-368h314v-197h-519v33q-55 -47 -131 -47q-161 0 -255.5 162.5t-94.5 489.5z" />
    <glyph glyph-name="oe" unicode="&#x153;" 
d="M341 784q-54 0 -91 -70t-37 -225t35 -240t100 -85q23 0 36 12t13 22t-12 63.5t-12 206.5t8 204t8 52v9q0 18 -11 34.5t-37 16.5zM693 795q-100 0 -109 -189h221q-2 102 -30 145.5t-82 43.5zM332 -29q-135 0 -230.5 115.5t-95.5 379.5t97 385.5t241 121.5q103 0 180 -88
q88 88 187 88q216 0 258.5 -149.5t42.5 -243.5v-156h-430q0 -215 59 -240.5t90 -25.5q55 0 92.5 24.5t89.5 81.5l119 -149q-142 -146 -291 -146q-90 0 -148 34t-75 50q-82 -82 -186 -82z" />
    <glyph glyph-name="Racute" unicode="&#x154;" 
d="M514 723q193 0 197 172q0 90 -47 134t-150 44h-184v-350h184zM96 1276h404q226 0 337 -102t109 -279q0 -106 -67 -205t-177 -135l299 -555h-258l-264 528h-149v-528h-234v1276zM729 1468l-369 -129l-55 101l313 231z" />
    <glyph glyph-name="racute" unicode="&#x155;" 
d="M418 852q106 125 280 125q60 0 132 -26t131 -79l-107 -223q-94 135 -193 134t-173 -84t-74 -199v-500h-232v956h236v-104zM571 1462l166 -114l-215 -289l-114 67z" />
    <glyph glyph-name="Rcaron" unicode="&#x158;" 
d="M514 723q193 0 197 172q0 90 -47 134t-150 44h-184v-350h184zM96 1276h404q226 0 337 -102t109 -279q0 -106 -67 -205t-177 -135l299 -555h-258l-264 528h-149v-528h-234v1276zM827 1550l-272 -221h-63l-259 217l78 92l215 -135l232 129z" />
    <glyph glyph-name="rcaron" unicode="&#x159;" 
d="M418 852q106 125 280 125q60 0 132 -26t131 -79l-107 -223q-94 135 -193 134t-173 -84t-74 -199v-500h-232v956h236v-104zM791 1348l-236 -297h-66l-235 299l119 88l155 -181l164 179z" />
    <glyph glyph-name="Sacute" unicode="&#x15a;" 
d="M508 160q199 0 201 180q0 120 -250 215q-283 115 -339 279q-47 136 14 263q61 128 215 184q77 28 181 28t206 -49q101 -49 173 -142l-129 -172q-25 0 -29 14q-5 14 -8 22q-2 9 -8 19q-82 119 -239 119q-107 0 -147 -87q-11 -27 -11 -57q0 -71 56 -122q56 -52 183 -103
q217 -87 291 -178t74 -221q0 -260 -244 -355q-86 -34 -212 -34q-250 0 -429 193l117 204q23 -4 40 -41q34 -68 118 -114q83 -45 176 -45zM729 1468l-369 -129l-55 101l313 231z" />
    <glyph glyph-name="sacute" unicode="&#x15b;" 
d="M516 156q172 0 172 94q0 68 -98 105q-35 13 -132 41t-152 62q-56 34 -87 66t-47 75q-16 42 -16 93q0 50 28 102q59 107 199 157q69 26 165 26q213 0 361 -166l-110 -166q-18 0 -25 30q-2 7 -4 13q-36 46 -107 79q-71 32 -139 32q-155 0 -155 -84q0 -47 53 -75t195 -65
q141 -38 222 -114t81 -172q0 -130 -111 -226q-113 -96 -297 -96q-245 0 -416 162l119 215q12 -2 18 -14t15 -35q49 -82 190 -127q41 -12 78 -12zM571 1462l166 -114l-215 -289l-114 67z" />
    <glyph glyph-name="Scedilla" unicode="&#x15e;" 
d="M709 340q0 89 -88.5 137.5t-172.5 82.5q-177 71 -262.5 166t-85.5 235q0 139 117.5 243.5t300.5 104.5q117 0 218.5 -49.5t172.5 -141.5l-129 -172q-24 0 -29.5 13.5t-7.5 22.5t-8 19q-82 119 -239 119q-110 0 -134 -56t-24 -87q0 -69 56 -122t183 -104
q216 -87 290.5 -178t74.5 -221q0 -222 -126 -294t-218 -87l-4 -34q78 -8 119 -47.5t41 -85.5q0 -85 -70 -139t-203 -54q-134 0 -248 94l76 129q91 -73 135.5 -78.5t72.5 -5.5t39 12.5t11 22.5t-13 21.5t-40 11.5h-100l18 147q-221 23 -375 191l117 204q22 -4 47 -55.5
t108 -98t179 -46.5q201 0 201 180z" />
    <glyph glyph-name="scedilla" unicode="&#x15f;" 
d="M688 250q0 68 -66.5 93.5t-161.5 51.5t-152.5 61.5t-88.5 68t-47 74.5t-16 121.5t110.5 168t268.5 88.5q227 0 374 -166l-110 -166q-14 0 -18.5 11.5t-6.5 18.5t-4 13q-56 71 -133.5 91t-112.5 20q-155 0 -155 -84q0 -49 54.5 -76t194.5 -65q140 -37 221 -113t81 -181
t-84.5 -193t-237.5 -114l-4 -36q78 -8 119 -47.5t41 -85.5q0 -85 -70 -139t-203 -54q-134 0 -248 94l76 129q91 -73 135.5 -78.5t72.5 -5.5t39 12.5t11 22.5t-13 21.5t-40 11.5h-100l20 153q-197 20 -338 158l119 215q12 -2 18.5 -14.5t14.5 -34.5q31 -52 112.5 -95.5
t155.5 -43.5q172 0 172 94z" />
    <glyph glyph-name="Scaron" unicode="&#x160;" 
d="M508 160q199 0 201 180q0 120 -250 215q-283 115 -339 279q-47 136 14 263q61 128 215 184q77 28 181 28t206 -49q101 -49 173 -142l-129 -172q-25 0 -29 14q-5 14 -8 22q-2 9 -8 19q-82 119 -239 119q-107 0 -147 -87q-11 -27 -11 -57q0 -71 56 -122q56 -52 183 -103
q217 -87 291 -178t74 -221q0 -260 -244 -355q-86 -34 -212 -34q-250 0 -429 193l117 204q23 -4 40 -41q34 -68 118 -114q83 -45 176 -45zM838 1552l-273 -221h-63l-258 217l78 92l215 -135l231 129z" />
    <glyph glyph-name="scaron" unicode="&#x161;" 
d="M516 156q172 0 172 94q0 68 -98 105q-35 13 -132 41t-152 62q-56 34 -87 66t-47 75q-16 42 -16 93q0 50 28 102q59 107 199 157q69 26 165 26q213 0 361 -166l-110 -166q-18 0 -25 30q-2 7 -4 13q-36 46 -107 79q-71 32 -139 32q-155 0 -155 -84q0 -47 53 -75t195 -65
q141 -38 222 -114t81 -172q0 -130 -111 -226q-113 -96 -297 -96q-245 0 -416 162l119 215q12 -2 18 -14t15 -35q49 -82 190 -127q41 -12 78 -12zM791 1348l-236 -297h-66l-235 299l119 88l155 -181l164 179z" />
    <glyph glyph-name="Tcedilla" unicode="&#x162;" 
d="M41 1276h940v-199h-360v-1077h-39l-9 -63q78 -8 119 -47.5t41 -85.5q0 -82 -68.5 -137.5t-203.5 -55.5t-248 94l76 129q90 -72 135 -78t73 -6t39 12.5t11 22.5t-13.5 21.5t-39.5 11.5h-101l25 182h-31v1077h-346v199z" />
    <glyph glyph-name="tcedilla" unicode="&#x163;" 
d="M303 354q0 176 19 416h-207v186h219l14 224l254 43q0 -27 -8 -43.5t-14 -38.5l-21 -185h289v-186h-297q-2 -74 -9 -152.5t-7 -200.5t20.5 -185.5t87 -63.5t217.5 113l72 -189q-123 -89 -236 -112l-4 -43q78 -8 119 -47.5t41 -85.5q0 -82 -68.5 -137.5t-203.5 -55.5
t-248 94l76 129q91 -73 135.5 -78.5t72.5 -5.5t39 12.5t11 22.5t-13.5 21.5t-40.5 11.5h-100l20 155q-119 20 -174 112.5t-55 268.5z" />
    <glyph glyph-name="Tcaron" unicode="&#x164;" 
d="M41 1276h940v-199h-360v-1077h-234v1077h-346v199zM827 1550l-272 -221h-63l-259 217l78 92l215 -135l232 129z" />
    <glyph glyph-name="tcaron" unicode="&#x165;" 
d="M254 387q0 131 18 383h-206v186h219l14 224l254 43q0 -27 -8 -43t-15 -39l-20 -185h289v-186h-297l-17 -309q-1 -167 15 -213q16 -48 38 -64t56 -16q63 0 217 113l72 -189q-178 -125 -324 -125q-237 0 -288 214q-17 75 -17 206zM815 1231q0 4 -20 23q-21 20 -39 40
t-18 50q-1 58 37 93q38 34 97 35t106 -45q46 -42 46 -116q0 -137 -205 -342l-119 102q115 115 115 160z" />
    <glyph glyph-name="Uring" unicode="&#x16e;" 
d="M76 1276h243q4 -2 5 -4v-6q0 -6 -10 -24t-9 -38v-755q0 -210 108 -267q40 -20 100 -20q168 0 200 171q10 54 10 122v821h225v-819q0 -243 -116 -364q-116 -122 -323 -122q-208 0 -321 127q-114 127 -112 353v825zM455 1468q0 -32 18 -54t47 -22t47 22q19 22 19 54t-18 56
q-18 22 -48 22q-29 0 -47 -22t-18 -56zM669 1609q64 -60 64 -145t-64 -143q-64 -59 -153 -59q-88 0 -148 61q-59 61 -60 142q-2 81 60 143t149 61q88 0 152 -60z" />
    <glyph glyph-name="uring" unicode="&#x16f;" 
d="M680 59v31q-54 -84 -187 -122q-35 -9 -91 -9q-132 0 -214 91q-84 98 -84 308v598h226v-598q0 -110 38 -160t90 -50q145 -1 197 140q16 44 17 95v573h231v-841q0 -52 19 -115h-222q-20 13 -20 59zM446 1255q0 -33 18 -55t48 -20q29 0 47 22q19 22 19 54t-18 55t-48 23
t-48 -24q-18 -22 -18 -55zM662 1396q63 -60 63 -144q0 -83 -63 -143t-152 -60t-150 61q-61 60 -61 142t61 143t150 61t152 -60z" />
    <glyph glyph-name="Uhungarumlaut" unicode="&#x170;" 
d="M76 1276h243q4 -2 5 -4v-6q0 -6 -10 -24t-9 -38v-755q0 -210 108 -267q40 -20 100 -20q168 0 200 171q10 54 10 122v821h225v-819q0 -243 -116 -364q-116 -122 -323 -122q-208 0 -321 127q-114 127 -112 353v825zM471 1686l119 -170l-318 -209l-77 98zM838 1686l118 -170
l-317 -209l-78 98z" />
    <glyph glyph-name="uhungarumlaut" unicode="&#x171;" 
d="M680 59v31q-54 -84 -187 -122q-35 -9 -91 -9q-132 0 -214 91q-84 98 -84 308v598h226v-598q0 -110 38 -160t90 -50q145 -1 197 140q16 44 17 95v573h231v-841q0 -52 19 -115h-222q-20 13 -20 59zM729 1462l166 -114l-215 -289l-115 67zM412 1462l166 -114l-216 -289
l-114 67z" />
    <glyph glyph-name="Ydieresis" unicode="&#x178;" 
d="M653 0h-241v504l-394 772h256l263 -516l233 516h248l-365 -774v-502zM566 1582q37 81 131 81t130 -85q22 -53 -1 -99q-21 -49 -74 -70q-27 -10 -56 -10q-90 0 -130 79q-11 24 -11 52t11 52zM320 1663q62 0 102 -39t41 -80q0 -99 -88 -135q-27 -10 -56 -10q-92 0 -130 80
q-11 25 -11 51t11 51q36 82 131 82z" />
    <glyph glyph-name="Zacute" unicode="&#x179;" 
d="M106 1276h838v-139l-567 -940h491q23 2 36 8q14 6 24 10l20 8t27 4v-227h-891v139l578 938h-556v199zM729 1468l-369 -129l-55 101l313 231z" />
    <glyph glyph-name="zacute" unicode="&#x17a;" 
d="M127 936h764v-143l-490 -600h435q16 0 28 6q48 24 72 24v-223h-848v143l496 598h-457v195zM571 1462l166 -114l-215 -289l-114 67z" />
    <glyph glyph-name="Zdotaccent" unicode="&#x17b;" 
d="M106 1276h838v-139l-567 -940h491q23 2 36 8q14 6 24 10l20 8t27 4v-227h-891v139l578 938h-556v199zM541 1655q107 0 151 -81q27 -55 0 -105q-40 -80 -130 -80t-134 80q-12 25 -12 65t39 80t86 41z" />
    <glyph glyph-name="zdot" unicode="&#x17c;" 
d="M127 936h764v-143l-490 -600h435q16 0 28 6q48 24 72 24v-223h-848v143l496 598h-457v195zM377 1244q0 42 9 64t40 54q31 31 77 31q108 0 148 -84q26 -55 0 -103q-24 -51 -80 -74t-107 2q-26 11 -56 40q-30 28 -31 70z" />
    <glyph glyph-name="florin" unicode="&#x192;" 
d="M756 1204q-62 0 -95 -54t-40 -194l-9 -139h228v-184h-244q-12 -208 -26.5 -357t-22.5 -236q-17 -187 -106 -292.5t-211 -105.5t-214 100l115 180q23 -2 31 -11t16 -25q22 -42 62 -42q68 0 88 224l45 565h-228v184h238l14 164q18 213 108.5 310.5t238.5 97.5t262 -134
l-80 -168q-67 0 -78 52q-8 33 -35 49t-57 16z" />
    <glyph glyph-name="dotlessj" unicode="&#x237;" 
d="M203 956h563v-909q0 -204 -107.5 -306.5t-286.5 -102.5t-313 159l142 187q13 -5 16.5 -17t7.5 -23.5t22 -35.5t55.5 -50t74.5 -26q73 0 115.5 50.5t42.5 156.5v731h-332v186z" />
    <glyph glyph-name="afii57929" unicode="&#x2bc;" 
d="M459 1159q-1 3 -21 23t-38.5 40.5t-18.5 50.5q0 60 39.5 94t82.5 34q70 0 117.5 -45t47.5 -117q0 -137 -205 -342l-119 102q115 115 115 160z" />
    <glyph glyph-name="circumflex" unicode="&#x2c6;" 
d="M254 1130l235 297h66l236 -299l-119 -88l-156 181l-164 -179z" />
    <glyph glyph-name="caron" unicode="&#x2c7;" 
d="M791 1348l-236 -297h-66l-235 299l119 88l155 -181l164 179z" />
    <glyph glyph-name="uni02C9" unicode="&#x2c9;" 
d="M221 1313h574v-180h-574v180z" />
    <glyph glyph-name="uni02CB" unicode="&#x2cb;" 
d="M686 1126l-115 -67l-215 289l166 114z" />
    <glyph glyph-name="breve" unicode="&#x2d8;" 
d="M518 1237q133 0 225 145l99 -147q-142 -174 -324 -174t-344 170l125 151q43 -76 101.5 -110.5t117.5 -34.5z" />
    <glyph glyph-name="dotaccent" unicode="&#x2d9;" 
d="M503 1393q46 0 71.5 -11.5t45 -30t32 -43t12.5 -63.5t-44 -81t-88 -42q-70 0 -112.5 40.5t-42.5 81.5q0 42 9 64.5t40 53.5t77 31z" />
    <glyph glyph-name="ring" unicode="&#x2da;" 
d="M446 1255.5q0 -32.5 18.5 -54t47.5 -21.5t47.5 21.5t18.5 54t-18.5 55t-47.5 22.5t-47.5 -22.5t-18.5 -55zM662 1395q63 -61 63 -142t-62.5 -142.5t-152.5 -61.5q-134 0 -172.5 80.5t-38.5 123.5t17.5 79t61.5 80t132.5 44t151.5 -61z" />
    <glyph glyph-name="ogonek" unicode="&#x2db;" 
d="M727 -373q-92 0 -138 42t-46 101t31 107.5t112 122.5h219q-47 -45 -78.5 -73.5t-56.5 -55t-25 -47.5q0 -33 32 -33t66 27.5t62 52.5v-178q-86 -66 -178 -66z" />
    <glyph glyph-name="tilde" unicode="&#x2dc;" 
d="M883 1284q-72 -90 -118 -131t-105 -41t-125 57l-39 39q-39 39 -68 39t-53.5 -33.5t-57.5 -99.5l-141 103q125 205 258 204q73 0 144 -69q44 -58 82 -58q25 0 49 29.5t61 87.5z" />
    <glyph glyph-name="hungarumlaut" unicode="&#x2dd;" 
d="M729 1462l166 -114l-215 -289l-115 67zM412 1462l166 -114l-216 -289l-114 67z" />
    <glyph glyph-name="quoteleft" unicode="&#x2018;" 
d="M336 920q0 157 242 407l114 -104q-86 -80 -109.5 -132.5t-23.5 -68.5t29 -40t49 -48.5t20 -57.5q0 -61 -42 -103t-109 -42t-118.5 54t-51.5 135z" />
    <glyph glyph-name="quoteright" unicode="&#x2019;" 
d="M659 1139q0 -163 -241 -408l-115 105q91 84 112 134t21 66t-28 40t-49 48.5t-21 57.5q0 62 41.5 103.5t109.5 41.5t119 -53.5t51 -134.5z" />
    <glyph glyph-name="quotesinglbase" unicode="&#x201a;" 
d="M662 61q0 -161 -242 -407l-115 104q90 84 111.5 134.5t21.5 66.5t-28 40t-49 48.5t-21 56.5q0 62 42 104t110 42t119 -53t51 -136z" />
    <glyph glyph-name="quotedblleft" unicode="&#x201c;" 
d="M131 920q0 157 242 407l114 -104q-86 -80 -109.5 -132.5t-23.5 -68.5t29 -40t49.5 -48.5t20.5 -57.5q0 -61 -44 -103t-94 -42q-81 0 -132.5 54t-51.5 135zM553 920q0 157 242 407l114 -104q-86 -80 -109.5 -132.5t-23.5 -68.5t29 -40t49 -48.5t20 -57.5
q0 -62 -43.5 -103.5t-93.5 -41.5q-81 0 -132.5 54t-51.5 135z" />
    <glyph glyph-name="quotedblright" unicode="&#x201d;" 
d="M879 1139q0 -162 -242 -408l-115 105q91 84 112 134t21 66q-1 16 -29 40t-48.5 48.5t-20.5 57.5q0 60 41 102.5t110 42.5t120 -53t51 -135zM457 1139q0 -162 -242 -408l-115 105q91 84 112 134t21 66q-1 16 -29 40t-48.5 48.5t-20.5 57.5q0 62 43.5 103.5t93.5 41.5
q84 0 134.5 -55t50.5 -133z" />
    <glyph glyph-name="quotedblbase" unicode="&#x201e;" 
d="M879 61q0 -161 -242 -407l-115 104q90 84 111.5 134.5t21.5 66.5q-1 16 -29 40t-48.5 48.5t-20.5 56.5q0 60 41.5 103t110.5 43q68 0 119 -53t51 -136zM457 61q0 -161 -242 -407l-115 104q90 84 111.5 134.5t21.5 66.5q-1 16 -29 40t-48.5 48.5t-20.5 56.5q0 62 44 104
t94 42q84 0 134 -55t50 -134z" />
    <glyph glyph-name="dagger" unicode="&#x2020;" 
d="M397 1335h221v-364h314v-189h-314v-1089h-221v1089h-315v189h315v364z" />
    <glyph glyph-name="daggerdbl" unicode="&#x2021;" 
d="M397 1333h221v-364h314v-189h-314v-497h314v-191h-314v-399h-221v399h-315v191h315v497h-315v189h315v364z" />
    <glyph glyph-name="bullet" unicode="&#x2022;" 
d="M520 811q87 0 147 -58.5t60 -136.5q0 -79 -60 -136.5t-147 -57.5t-147 58t-60 136.5t60 136.5t147 58z" />
    <glyph glyph-name="ellipsis" unicode="&#x2026;" 
d="M10 110.5q0 28.5 10.5 54t30 44t46 30t57 11.5t58.5 -11.5t46 -30t29.5 -44t11.5 -67.5t-40.5 -84t-89.5 -42q-48 0 -73.5 11.5t-45 30t-30 44t-10.5 54zM688 110.5q0 28.5 10.5 54t30 44t46 30t57 11.5t57 -11.5t46 -30t31 -44t11.5 -54t-11.5 -54t-31 -44t-46 -30
t-57 -11.5t-57 11.5t-46 30t-30 44t-10.5 54zM350 110.5q0 28.5 10.5 54t30 44t46 30t57 11.5t58.5 -11.5t46 -30t29.5 -44t11.5 -67.5t-40.5 -84t-89.5 -42q-48 0 -73.5 11.5t-45 30t-30 44t-10.5 54z" />
    <glyph glyph-name="guilsinglleft" unicode="&#x2039;" 
d="M250 526l336 326l135 -139l-234 -224l244 -262l-139 -139l-342 369v69z" />
    <glyph glyph-name="guilsinglright" unicode="&#x203a;" 
d="M737 457l-342 -369l-139 139l244 262l-234 224l135 139l336 -326v-69z" />
    <glyph glyph-name="fraction" unicode="&#x2044;" 
d="M123 -8l635 1382l170 -96l-637 -1378z" />
    <glyph glyph-name="uni2074" unicode="&#x2074;" 
d="M541 872v162l-129 -162h129zM731 1343v-460h117v-164h-117v-182h-203v184h-342v115l398 507h147z" />
    <glyph glyph-name="Euro" unicode="&#x20ac;" 
d="M147 672q0 2 3 14h-109l43 186h96q70 315 238 366.5t248 51.5q190 0 315 -137l-76 -199q-55 76 -101 115t-140 39q-95 0 -166.5 -59.5t-102.5 -176.5h482l-70 -186h-442q-3 -24 -3 -61v-31h416l-71 -184h-324q29 -123 99.5 -187.5t174.5 -64.5t220 110l94 -168
q-154 -131 -332 -131t-307.5 118t-165.5 323h-127l43 184l65 4v74z" />
    <glyph glyph-name="trademark" unicode="&#x2122;" 
d="M989 1303v-648h-145v353l-68 -142h-61l-58 135v-346h-141v648h119l117 -265l125 265h112zM489 1303v-132h-151v-516h-148v516h-153v132h452z" />
    <glyph glyph-name="uparrow" unicode="&#x2191;" 
d="M625 -72h-222v1041l-163 -256l-148 121l385 487h94l361 -494l-168 -110l-139 241v-1030z" />
    <glyph glyph-name="downarrow" unicode="&#x2193;" 
d="M399 1321h222v-1061l163 277l148 -121l-385 -488h-94l-361 494l168 110l139 -262v1051z" />
    <glyph glyph-name="minus" unicode="&#x2212;" 
d="M78 745h868v-190h-868v190z" />
    <glyph glyph-name="visiblespace" unicode="&#x2423;" 
d="M84 145h182v-172h488v172h186v-331h-856v331z" />
    <glyph glyph-name="Apostrophe" unicode="&#xf40a;" 
d="M461 1077q-1 6 -21 25q-20 18 -38.5 38.5t-18.5 50.5q0 60 39.5 94t82.5 34q70 0 117.5 -45t47.5 -117q0 -137 -205 -342l-119 103q115 115 115 159z" />
    <glyph glyph-name="NULL" horiz-adv-x="0" 
 />
    <glyph glyph-name="dotaccent.cap" 
d="M526 1667q31 0 57.5 -10t46 -28.5t32 -42t12.5 -52.5t-12.5 -52.5t-32 -42t-46 -28.5t-70 -10t-86 40.5t-42.5 78.5q0 39 10.5 62.5t28.5 43t44.5 30.5t57.5 11z" />
    <glyph glyph-name="breve.cap" 
d="M498 1509q133 0 229 146l98 -148q-149 -174 -328 -174q-180 0 -339 170l125 152q82 -146 215 -146z" />
    <glyph glyph-name="tilde.cap" 
d="M424 1669q70 0 143 -70q8 -8 17.5 -17t26 -24.5t34.5 -15.5t32.5 10.5t28 25.5t26.5 36.5t28 44.5l112 -127q-71 -93 -118 -132.5t-104 -39.5t-126 57q-8 8 -20 20.5t-34.5 35t-51.5 22.5t-52.5 -34t-58.5 -99l-141 102q125 205 258 205z" />
    <glyph glyph-name="dieresis.cap" 
d="M783.5 1622q39.5 -41 39.5 -80t-11 -63.5t-29.5 -42t-45 -27.5t-55.5 -10t-55.5 10t-45 27.5t-29.5 41t-11 52.5t11 52.5t40.5 52t90.5 28.5t100.5 -41zM406.5 1624q42.5 -39 42.5 -80t-11.5 -65.5t-31 -42t-46 -27.5t-55.5 -10t-55.5 10t-45 27.5t-29.5 42t-11 51
t11 51.5t40.5 53.5t88.5 28.5q60 0 102.5 -39z" />
    <glyph glyph-name="circumflex.cap" 
d="M219 1417l273 221h63l258 -217l-78 -92l-215 135l-231 -129z" />
    <glyph glyph-name="caron.cap" 
d="M788 1550l-272 -221h-63l-258 217l77 92l215 -135l232 129z" />
    <glyph glyph-name="grave.cap" 
d="M436 1671l314 -231l-56 -101l-368 129z" />
    <glyph glyph-name="acute.cap" 
d="M764 1468l-369 -129l-55 101l313 231z" />
    <glyph glyph-name="ring.cap" 
d="M455 1468.5q0 -32.5 18.5 -54t47 -21.5t47 21.5t18.5 54t-18.5 55t-47 22.5t-47 -22.5t-18.5 -55zM668.5 1608.5q64.5 -60.5 64.5 -142.5q0 -83 -64 -143.5t-174.5 -60.5t-149 80.5t-38.5 123.5t17.5 79t61.5 80t131 44t151.5 -60.5z" />
    <glyph glyph-name="r.serif" 
d="M418 852q106 125 280 125q60 0 132.5 -25.5t130.5 -79.5l-107 -223q-93 133 -193 133t-173.5 -83.5t-73.5 -198.5v-322h176v-178h-531v178h123v594h-119v184h355v-104z" />
    <glyph glyph-name="hungarumlaut.cap" 
d="M471 1686l119 -170l-318 -209l-77 98zM838 1686l118 -170l-317 -209l-78 98z" />
    <glyph glyph-name="zero.noslash" 
d="M289 635q0 -96 15 -182t45 -149.5t72 -100.5t93 -37t93 37t72 100.5t45 149.5t15 182t-16 181t-47 149.5t-72 101.5t-90 37t-91 -37t-71.5 -101.5t-46 -149.5t-16.5 -181zM513 1303q89 0 171 -46.5t178 -187.5t96 -454t-128 -483.5t-320 -170.5q-88 0 -169 48t-141.5 136
t-95 211t-34.5 272.5t35.5 273.5t96 213t141.5 138.5t170 49.5z" />
  </font>
</defs>
</svg>
